<mxfile host="app.diagrams.net" agent="Mozilla/5.0 (Windows NT 10.0; Win64; x64) AppleWebKit/537.36 (KHTML, like Gecko) Chrome/128.0.0.0 Safari/537.36 OPR/114.0.0.0" version="24.8.6">
  <diagram name="Page-1" id="dHMNfBGR77CZECHaiepK">
    <mxGraphModel dx="2014" dy="2265" grid="1" gridSize="10" guides="1" tooltips="1" connect="1" arrows="1" fold="1" page="1" pageScale="1" pageWidth="827" pageHeight="1169" math="0" shadow="0">
      <root>
        <mxCell id="0" />
        <mxCell id="1" parent="0" />
        <mxCell id="hA0B3OljWH3qkmqwlUpI-1" value="&lt;font style=&quot;font-size: 21px;&quot;&gt;ECUmaster EMU black&lt;/font&gt;" style="rounded=0;whiteSpace=wrap;html=1;" parent="1" vertex="1">
          <mxGeometry x="234" y="40" width="360" height="965" as="geometry" />
        </mxCell>
        <mxCell id="hA0B3OljWH3qkmqwlUpI-7" value="" style="endArrow=none;html=1;rounded=0;" parent="1" edge="1">
          <mxGeometry width="50" height="50" relative="1" as="geometry">
            <mxPoint x="594" y="60" as="sourcePoint" />
            <mxPoint x="760" y="60" as="targetPoint" />
          </mxGeometry>
        </mxCell>
        <mxCell id="hA0B3OljWH3qkmqwlUpI-8" value="" style="endArrow=none;html=1;rounded=0;" parent="1" edge="1">
          <mxGeometry width="50" height="50" relative="1" as="geometry">
            <mxPoint x="594" y="80" as="sourcePoint" />
            <mxPoint x="760" y="80" as="targetPoint" />
          </mxGeometry>
        </mxCell>
        <mxCell id="hA0B3OljWH3qkmqwlUpI-9" value="" style="endArrow=none;html=1;rounded=0;" parent="1" edge="1">
          <mxGeometry width="50" height="50" relative="1" as="geometry">
            <mxPoint x="594" y="100" as="sourcePoint" />
            <mxPoint x="760" y="100" as="targetPoint" />
          </mxGeometry>
        </mxCell>
        <mxCell id="hA0B3OljWH3qkmqwlUpI-10" value="" style="endArrow=none;html=1;rounded=0;" parent="1" edge="1">
          <mxGeometry width="50" height="50" relative="1" as="geometry">
            <mxPoint x="594" y="120" as="sourcePoint" />
            <mxPoint x="760" y="120" as="targetPoint" />
          </mxGeometry>
        </mxCell>
        <mxCell id="hA0B3OljWH3qkmqwlUpI-11" value="" style="endArrow=none;html=1;rounded=0;" parent="1" edge="1">
          <mxGeometry width="50" height="50" relative="1" as="geometry">
            <mxPoint x="594" y="140" as="sourcePoint" />
            <mxPoint x="760" y="140" as="targetPoint" />
          </mxGeometry>
        </mxCell>
        <mxCell id="hA0B3OljWH3qkmqwlUpI-12" value="" style="endArrow=none;html=1;rounded=0;" parent="1" edge="1">
          <mxGeometry width="50" height="50" relative="1" as="geometry">
            <mxPoint x="594" y="160" as="sourcePoint" />
            <mxPoint x="760" y="160" as="targetPoint" />
          </mxGeometry>
        </mxCell>
        <mxCell id="hA0B3OljWH3qkmqwlUpI-13" value="" style="endArrow=none;html=1;rounded=0;" parent="1" edge="1">
          <mxGeometry width="50" height="50" relative="1" as="geometry">
            <mxPoint x="594" y="180" as="sourcePoint" />
            <mxPoint x="760" y="180" as="targetPoint" />
          </mxGeometry>
        </mxCell>
        <mxCell id="hA0B3OljWH3qkmqwlUpI-14" value="" style="endArrow=none;html=1;rounded=0;" parent="1" edge="1">
          <mxGeometry width="50" height="50" relative="1" as="geometry">
            <mxPoint x="594" y="200" as="sourcePoint" />
            <mxPoint x="760" y="200" as="targetPoint" />
          </mxGeometry>
        </mxCell>
        <mxCell id="hA0B3OljWH3qkmqwlUpI-15" value="" style="endArrow=none;html=1;rounded=0;" parent="1" edge="1">
          <mxGeometry width="50" height="50" relative="1" as="geometry">
            <mxPoint x="594" y="319.8" as="sourcePoint" />
            <mxPoint x="760" y="320" as="targetPoint" />
            <Array as="points">
              <mxPoint x="680" y="320" />
            </Array>
          </mxGeometry>
        </mxCell>
        <mxCell id="hA0B3OljWH3qkmqwlUpI-16" value="" style="endArrow=none;html=1;rounded=0;" parent="1" edge="1">
          <mxGeometry width="50" height="50" relative="1" as="geometry">
            <mxPoint x="594" y="340" as="sourcePoint" />
            <mxPoint x="760" y="340" as="targetPoint" />
          </mxGeometry>
        </mxCell>
        <mxCell id="hA0B3OljWH3qkmqwlUpI-17" value="" style="endArrow=none;html=1;rounded=0;" parent="1" edge="1">
          <mxGeometry width="50" height="50" relative="1" as="geometry">
            <mxPoint x="594" y="360" as="sourcePoint" />
            <mxPoint x="760" y="360" as="targetPoint" />
          </mxGeometry>
        </mxCell>
        <mxCell id="hA0B3OljWH3qkmqwlUpI-18" value="" style="endArrow=none;html=1;rounded=0;" parent="1" edge="1">
          <mxGeometry width="50" height="50" relative="1" as="geometry">
            <mxPoint x="594" y="380" as="sourcePoint" />
            <mxPoint x="760" y="380" as="targetPoint" />
          </mxGeometry>
        </mxCell>
        <mxCell id="hA0B3OljWH3qkmqwlUpI-27" value="" style="endArrow=none;html=1;rounded=0;" parent="1" edge="1">
          <mxGeometry width="50" height="50" relative="1" as="geometry">
            <mxPoint x="68" y="50" as="sourcePoint" />
            <mxPoint x="234" y="50" as="targetPoint" />
          </mxGeometry>
        </mxCell>
        <mxCell id="hA0B3OljWH3qkmqwlUpI-28" value="" style="endArrow=none;html=1;rounded=0;" parent="1" edge="1">
          <mxGeometry width="50" height="50" relative="1" as="geometry">
            <mxPoint x="68" y="70" as="sourcePoint" />
            <mxPoint x="234" y="70" as="targetPoint" />
          </mxGeometry>
        </mxCell>
        <mxCell id="hA0B3OljWH3qkmqwlUpI-29" value="" style="endArrow=none;html=1;rounded=0;" parent="1" edge="1">
          <mxGeometry width="50" height="50" relative="1" as="geometry">
            <mxPoint x="68" y="99.71000000000001" as="sourcePoint" />
            <mxPoint x="234" y="99.71000000000001" as="targetPoint" />
          </mxGeometry>
        </mxCell>
        <mxCell id="hA0B3OljWH3qkmqwlUpI-30" value="" style="endArrow=none;html=1;rounded=0;" parent="1" edge="1">
          <mxGeometry width="50" height="50" relative="1" as="geometry">
            <mxPoint x="68" y="130" as="sourcePoint" />
            <mxPoint x="234" y="130" as="targetPoint" />
            <Array as="points">
              <mxPoint x="150" y="130" />
            </Array>
          </mxGeometry>
        </mxCell>
        <mxCell id="hA0B3OljWH3qkmqwlUpI-32" value="G15" style="text;html=1;align=center;verticalAlign=middle;whiteSpace=wrap;rounded=0;" parent="1" vertex="1">
          <mxGeometry x="550" y="70" width="60" height="20" as="geometry" />
        </mxCell>
        <mxCell id="hA0B3OljWH3qkmqwlUpI-31" value="G7" style="text;html=1;align=center;verticalAlign=middle;whiteSpace=wrap;rounded=0;" parent="1" vertex="1">
          <mxGeometry x="550" y="50" width="60" height="20" as="geometry" />
        </mxCell>
        <mxCell id="hA0B3OljWH3qkmqwlUpI-38" value="G6" style="text;html=1;align=center;verticalAlign=middle;whiteSpace=wrap;rounded=0;" parent="1" vertex="1">
          <mxGeometry x="550" y="110" width="60" height="20" as="geometry" />
        </mxCell>
        <mxCell id="hA0B3OljWH3qkmqwlUpI-39" value="G23" style="text;html=1;align=center;verticalAlign=middle;whiteSpace=wrap;rounded=0;" parent="1" vertex="1">
          <mxGeometry x="550" y="90" width="60" height="20" as="geometry" />
        </mxCell>
        <mxCell id="hA0B3OljWH3qkmqwlUpI-41" value="G14" style="text;html=1;align=center;verticalAlign=middle;whiteSpace=wrap;rounded=0;" parent="1" vertex="1">
          <mxGeometry x="550" y="120" width="60" height="30" as="geometry" />
        </mxCell>
        <mxCell id="hA0B3OljWH3qkmqwlUpI-42" value="G22" style="text;html=1;align=center;verticalAlign=middle;whiteSpace=wrap;rounded=0;" parent="1" vertex="1">
          <mxGeometry x="550" y="140" width="60" height="30" as="geometry" />
        </mxCell>
        <mxCell id="hA0B3OljWH3qkmqwlUpI-43" value="G21" style="text;html=1;align=center;verticalAlign=middle;whiteSpace=wrap;rounded=0;" parent="1" vertex="1">
          <mxGeometry x="550" y="160" width="60" height="30" as="geometry" />
        </mxCell>
        <mxCell id="hA0B3OljWH3qkmqwlUpI-44" value="G13" style="text;html=1;align=center;verticalAlign=middle;whiteSpace=wrap;rounded=0;" parent="1" vertex="1">
          <mxGeometry x="550" y="180" width="60" height="30" as="geometry" />
        </mxCell>
        <mxCell id="hA0B3OljWH3qkmqwlUpI-46" value="G16" style="text;html=1;align=center;verticalAlign=middle;whiteSpace=wrap;rounded=0;" parent="1" vertex="1">
          <mxGeometry x="550" y="330" width="60" height="20" as="geometry" />
        </mxCell>
        <mxCell id="hA0B3OljWH3qkmqwlUpI-47" value="G8" style="text;html=1;align=center;verticalAlign=middle;whiteSpace=wrap;rounded=0;" parent="1" vertex="1">
          <mxGeometry x="550" y="310" width="60" height="20" as="geometry" />
        </mxCell>
        <mxCell id="hA0B3OljWH3qkmqwlUpI-48" value="B14" style="text;html=1;align=center;verticalAlign=middle;whiteSpace=wrap;rounded=0;" parent="1" vertex="1">
          <mxGeometry x="550" y="370" width="60" height="20" as="geometry" />
        </mxCell>
        <mxCell id="hA0B3OljWH3qkmqwlUpI-49" value="G9" style="text;html=1;align=center;verticalAlign=middle;whiteSpace=wrap;rounded=0;" parent="1" vertex="1">
          <mxGeometry x="550" y="350" width="60" height="20" as="geometry" />
        </mxCell>
        <mxCell id="hA0B3OljWH3qkmqwlUpI-50" value="Injector 1-8" style="text;html=1;align=center;verticalAlign=middle;whiteSpace=wrap;rounded=0;" parent="1" vertex="1">
          <mxGeometry x="570" y="-10" width="100" height="30" as="geometry" />
        </mxCell>
        <mxCell id="hA0B3OljWH3qkmqwlUpI-57" style="edgeStyle=orthogonalEdgeStyle;rounded=0;orthogonalLoop=1;jettySize=auto;html=1;exitX=0.75;exitY=0;exitDx=0;exitDy=0;" parent="1" source="hA0B3OljWH3qkmqwlUpI-55" edge="1">
          <mxGeometry relative="1" as="geometry">
            <mxPoint x="920" y="260" as="targetPoint" />
            <Array as="points">
              <mxPoint x="828" y="260" />
            </Array>
          </mxGeometry>
        </mxCell>
        <mxCell id="hA0B3OljWH3qkmqwlUpI-58" style="edgeStyle=orthogonalEdgeStyle;rounded=0;orthogonalLoop=1;jettySize=auto;html=1;exitX=1;exitY=0;exitDx=0;exitDy=0;" parent="1" source="hA0B3OljWH3qkmqwlUpI-55" edge="1">
          <mxGeometry relative="1" as="geometry">
            <mxPoint x="920" y="280" as="targetPoint" />
            <Array as="points">
              <mxPoint x="885" y="280" />
              <mxPoint x="920" y="281" />
            </Array>
          </mxGeometry>
        </mxCell>
        <mxCell id="hA0B3OljWH3qkmqwlUpI-59" style="edgeStyle=orthogonalEdgeStyle;rounded=0;orthogonalLoop=1;jettySize=auto;html=1;exitX=1;exitY=0.25;exitDx=0;exitDy=0;" parent="1" source="hA0B3OljWH3qkmqwlUpI-55" edge="1">
          <mxGeometry relative="1" as="geometry">
            <mxPoint x="920" y="310" as="targetPoint" />
            <Array as="points">
              <mxPoint x="850" y="310" />
            </Array>
          </mxGeometry>
        </mxCell>
        <mxCell id="hA0B3OljWH3qkmqwlUpI-60" style="edgeStyle=orthogonalEdgeStyle;rounded=0;orthogonalLoop=1;jettySize=auto;html=1;exitX=1;exitY=0.5;exitDx=0;exitDy=0;" parent="1" source="hA0B3OljWH3qkmqwlUpI-55" edge="1">
          <mxGeometry relative="1" as="geometry">
            <mxPoint x="930" y="345" as="targetPoint" />
          </mxGeometry>
        </mxCell>
        <mxCell id="hA0B3OljWH3qkmqwlUpI-61" style="edgeStyle=orthogonalEdgeStyle;rounded=0;orthogonalLoop=1;jettySize=auto;html=1;exitX=1;exitY=0.75;exitDx=0;exitDy=0;" parent="1" source="hA0B3OljWH3qkmqwlUpI-55" edge="1">
          <mxGeometry relative="1" as="geometry">
            <mxPoint x="920" y="377" as="targetPoint" />
          </mxGeometry>
        </mxCell>
        <mxCell id="hA0B3OljWH3qkmqwlUpI-62" style="edgeStyle=orthogonalEdgeStyle;rounded=0;orthogonalLoop=1;jettySize=auto;html=1;exitX=1;exitY=1;exitDx=0;exitDy=0;" parent="1" source="hA0B3OljWH3qkmqwlUpI-55" edge="1">
          <mxGeometry relative="1" as="geometry">
            <mxPoint x="930" y="410" as="targetPoint" />
            <Array as="points">
              <mxPoint x="930" y="410" />
            </Array>
          </mxGeometry>
        </mxCell>
        <mxCell id="hA0B3OljWH3qkmqwlUpI-63" style="edgeStyle=orthogonalEdgeStyle;rounded=0;orthogonalLoop=1;jettySize=auto;html=1;exitX=0.75;exitY=1;exitDx=0;exitDy=0;" parent="1" source="hA0B3OljWH3qkmqwlUpI-55" edge="1">
          <mxGeometry relative="1" as="geometry">
            <mxPoint x="930" y="430" as="targetPoint" />
            <Array as="points">
              <mxPoint x="828" y="430" />
            </Array>
          </mxGeometry>
        </mxCell>
        <mxCell id="hA0B3OljWH3qkmqwlUpI-64" style="edgeStyle=orthogonalEdgeStyle;rounded=0;orthogonalLoop=1;jettySize=auto;html=1;exitX=0.5;exitY=1;exitDx=0;exitDy=0;" parent="1" source="hA0B3OljWH3qkmqwlUpI-55" edge="1">
          <mxGeometry relative="1" as="geometry">
            <mxPoint x="930" y="440" as="targetPoint" />
            <Array as="points">
              <mxPoint x="805" y="440" />
            </Array>
          </mxGeometry>
        </mxCell>
        <mxCell id="hA0B3OljWH3qkmqwlUpI-55" value="Ignition&amp;nbsp;&lt;div&gt;module&lt;/div&gt;" style="rounded=0;whiteSpace=wrap;html=1;" parent="1" vertex="1">
          <mxGeometry x="760" y="280" width="90" height="130" as="geometry" />
        </mxCell>
        <mxCell id="hA0B3OljWH3qkmqwlUpI-66" value="Ignition 1-4" style="text;html=1;align=center;verticalAlign=middle;whiteSpace=wrap;rounded=0;" parent="1" vertex="1">
          <mxGeometry x="594" y="290" width="66" height="30" as="geometry" />
        </mxCell>
        <mxCell id="hA0B3OljWH3qkmqwlUpI-69" value="Ignition 1-8" style="text;html=1;align=center;verticalAlign=middle;whiteSpace=wrap;rounded=0;" parent="1" vertex="1">
          <mxGeometry x="820" y="230" width="70" height="30" as="geometry" />
        </mxCell>
        <mxCell id="hA0B3OljWH3qkmqwlUpI-70" value="Eventuelt koble rett i smart coils" style="text;html=1;align=center;verticalAlign=middle;whiteSpace=wrap;rounded=0;" parent="1" vertex="1">
          <mxGeometry x="970" y="325" width="150" height="30" as="geometry" />
        </mxCell>
        <mxCell id="hA0B3OljWH3qkmqwlUpI-71" value="" style="endArrow=none;html=1;rounded=0;fillColor=#f8cecc;strokeColor=#FF3333;" parent="1" edge="1">
          <mxGeometry width="50" height="50" relative="1" as="geometry">
            <mxPoint x="900" y="440" as="sourcePoint" />
            <mxPoint x="900" y="220" as="targetPoint" />
          </mxGeometry>
        </mxCell>
        <mxCell id="hA0B3OljWH3qkmqwlUpI-72" value="" style="endArrow=none;html=1;rounded=0;fillColor=#f8cecc;strokeColor=#FF3333;exitX=0.996;exitY=0.448;exitDx=0;exitDy=0;exitPerimeter=0;" parent="1" edge="1">
          <mxGeometry width="50" height="50" relative="1" as="geometry">
            <mxPoint x="594" y="541.1600000000001" as="sourcePoint" />
            <mxPoint x="901.44" y="538.84" as="targetPoint" />
          </mxGeometry>
        </mxCell>
        <mxCell id="hA0B3OljWH3qkmqwlUpI-73" value="G18" style="text;html=1;align=center;verticalAlign=middle;whiteSpace=wrap;rounded=0;" parent="1" vertex="1">
          <mxGeometry x="550" y="530" width="60" height="30" as="geometry" />
        </mxCell>
        <mxCell id="hA0B3OljWH3qkmqwlUpI-74" value="+12V ignition" style="text;html=1;align=center;verticalAlign=middle;whiteSpace=wrap;rounded=0;" parent="1" vertex="1">
          <mxGeometry x="594" y="508.84000000000003" width="60" height="30" as="geometry" />
        </mxCell>
        <mxCell id="hA0B3OljWH3qkmqwlUpI-78" value="Injector 7-8 in Aux 1-2" style="text;html=1;align=center;verticalAlign=middle;whiteSpace=wrap;rounded=0;" parent="1" vertex="1">
          <mxGeometry x="680" y="30" width="90" height="30" as="geometry" />
        </mxCell>
        <mxCell id="hA0B3OljWH3qkmqwlUpI-79" value="" style="endArrow=none;html=1;rounded=0;fillColor=#f8cecc;strokeColor=#FF3333;exitX=0.996;exitY=0.448;exitDx=0;exitDy=0;exitPerimeter=0;" parent="1" edge="1">
          <mxGeometry width="50" height="50" relative="1" as="geometry">
            <mxPoint x="594" y="611.1600000000001" as="sourcePoint" />
            <mxPoint x="920" y="608.84" as="targetPoint" />
          </mxGeometry>
        </mxCell>
        <mxCell id="hA0B3OljWH3qkmqwlUpI-81" value="B13" style="text;html=1;align=center;verticalAlign=middle;whiteSpace=wrap;rounded=0;" parent="1" vertex="1">
          <mxGeometry x="550" y="590" width="60" height="30" as="geometry" />
        </mxCell>
        <mxCell id="hA0B3OljWH3qkmqwlUpI-82" value="+12V&lt;div&gt;Power supply&lt;/div&gt;" style="text;html=1;align=center;verticalAlign=middle;whiteSpace=wrap;rounded=0;" parent="1" vertex="1">
          <mxGeometry x="580" y="578.84" width="100" height="30" as="geometry" />
        </mxCell>
        <mxCell id="hA0B3OljWH3qkmqwlUpI-83" value="" style="endArrow=none;html=1;rounded=0;fillColor=#f8cecc;strokeColor=#FF3333;" parent="1" edge="1">
          <mxGeometry width="50" height="50" relative="1" as="geometry">
            <mxPoint x="730" y="230" as="sourcePoint" />
            <mxPoint x="730" y="60" as="targetPoint" />
          </mxGeometry>
        </mxCell>
        <mxCell id="hA0B3OljWH3qkmqwlUpI-84" value="+12V&lt;div&gt;B13&lt;/div&gt;" style="text;html=1;align=center;verticalAlign=middle;whiteSpace=wrap;rounded=0;" parent="1" vertex="1">
          <mxGeometry x="720" y="210" width="60" height="30" as="geometry" />
        </mxCell>
        <mxCell id="hA0B3OljWH3qkmqwlUpI-85" value="G18" style="text;html=1;align=center;verticalAlign=middle;whiteSpace=wrap;rounded=0;" parent="1" vertex="1">
          <mxGeometry x="890" y="210" width="60" height="30" as="geometry" />
        </mxCell>
        <mxCell id="hA0B3OljWH3qkmqwlUpI-86" value="" style="endArrow=none;html=1;rounded=0;fillColor=#f8cecc;strokeColor=#FF3333;exitX=0.996;exitY=0.448;exitDx=0;exitDy=0;exitPerimeter=0;" parent="1" edge="1">
          <mxGeometry width="50" height="50" relative="1" as="geometry">
            <mxPoint x="594" y="681.1600000000001" as="sourcePoint" />
            <mxPoint x="920" y="678.84" as="targetPoint" />
          </mxGeometry>
        </mxCell>
        <mxCell id="hA0B3OljWH3qkmqwlUpI-87" value="B34" style="text;html=1;align=center;verticalAlign=middle;whiteSpace=wrap;rounded=0;" parent="1" vertex="1">
          <mxGeometry x="550" y="660" width="60" height="30" as="geometry" />
        </mxCell>
        <mxCell id="hA0B3OljWH3qkmqwlUpI-88" value="+5V supply" style="text;html=1;align=center;verticalAlign=middle;whiteSpace=wrap;rounded=0;" parent="1" vertex="1">
          <mxGeometry x="580" y="648.84" width="60" height="30" as="geometry" />
        </mxCell>
        <mxCell id="hA0B3OljWH3qkmqwlUpI-90" value="" style="endArrow=none;html=1;rounded=0;fillColor=#f5f5f5;strokeColor=#666666;" parent="1" edge="1">
          <mxGeometry width="50" height="50" relative="1" as="geometry">
            <mxPoint x="594" y="800" as="sourcePoint" />
            <mxPoint x="770" y="800" as="targetPoint" />
          </mxGeometry>
        </mxCell>
        <mxCell id="hA0B3OljWH3qkmqwlUpI-91" value="" style="endArrow=none;html=1;rounded=0;fillColor=#f5f5f5;strokeColor=#666666;" parent="1" edge="1">
          <mxGeometry width="50" height="50" relative="1" as="geometry">
            <mxPoint x="594" y="840" as="sourcePoint" />
            <mxPoint x="770" y="840" as="targetPoint" />
          </mxGeometry>
        </mxCell>
        <mxCell id="hA0B3OljWH3qkmqwlUpI-92" value="" style="endArrow=none;html=1;rounded=0;fillColor=#f5f5f5;strokeColor=#666666;" parent="1" edge="1">
          <mxGeometry width="50" height="50" relative="1" as="geometry">
            <mxPoint x="594" y="880" as="sourcePoint" />
            <mxPoint x="770" y="880" as="targetPoint" />
          </mxGeometry>
        </mxCell>
        <mxCell id="hA0B3OljWH3qkmqwlUpI-93" value="" style="endArrow=none;html=1;rounded=0;fillColor=#f5f5f5;strokeColor=#666666;" parent="1" edge="1">
          <mxGeometry width="50" height="50" relative="1" as="geometry">
            <mxPoint x="594" y="920" as="sourcePoint" />
            <mxPoint x="770" y="920" as="targetPoint" />
          </mxGeometry>
        </mxCell>
        <mxCell id="hA0B3OljWH3qkmqwlUpI-94" value="" style="endArrow=none;html=1;rounded=0;fillColor=#f5f5f5;strokeColor=#666666;" parent="1" edge="1">
          <mxGeometry width="50" height="50" relative="1" as="geometry">
            <mxPoint x="594" y="960" as="sourcePoint" />
            <mxPoint x="770" y="960" as="targetPoint" />
          </mxGeometry>
        </mxCell>
        <mxCell id="hA0B3OljWH3qkmqwlUpI-95" value="" style="endArrow=none;html=1;rounded=0;fillColor=#f5f5f5;strokeColor=#666666;" parent="1" edge="1">
          <mxGeometry width="50" height="50" relative="1" as="geometry">
            <mxPoint x="594" y="1000" as="sourcePoint" />
            <mxPoint x="770" y="1000" as="targetPoint" />
          </mxGeometry>
        </mxCell>
        <mxCell id="hA0B3OljWH3qkmqwlUpI-97" value="B27" style="text;html=1;align=center;verticalAlign=middle;whiteSpace=wrap;rounded=0;" parent="1" vertex="1">
          <mxGeometry x="550" y="790" width="60" height="30" as="geometry" />
        </mxCell>
        <mxCell id="hA0B3OljWH3qkmqwlUpI-98" value="B28" style="text;html=1;align=center;verticalAlign=middle;whiteSpace=wrap;rounded=0;" parent="1" vertex="1">
          <mxGeometry x="550" y="820" width="60" height="30" as="geometry" />
        </mxCell>
        <mxCell id="hA0B3OljWH3qkmqwlUpI-99" value="B29" style="text;html=1;align=center;verticalAlign=middle;whiteSpace=wrap;rounded=0;" parent="1" vertex="1">
          <mxGeometry x="550" y="860" width="60" height="30" as="geometry" />
        </mxCell>
        <mxCell id="hA0B3OljWH3qkmqwlUpI-100" value="B38" style="text;html=1;align=center;verticalAlign=middle;whiteSpace=wrap;rounded=0;" parent="1" vertex="1">
          <mxGeometry x="550" y="910" width="60" height="30" as="geometry" />
        </mxCell>
        <mxCell id="hA0B3OljWH3qkmqwlUpI-101" value="B39" style="text;html=1;align=center;verticalAlign=middle;whiteSpace=wrap;rounded=0;" parent="1" vertex="1">
          <mxGeometry x="550" y="940" width="60" height="30" as="geometry" />
        </mxCell>
        <mxCell id="hA0B3OljWH3qkmqwlUpI-102" value="G17" style="text;html=1;align=center;verticalAlign=middle;whiteSpace=wrap;rounded=0;" parent="1" vertex="1">
          <mxGeometry x="550" y="980" width="60" height="30" as="geometry" />
        </mxCell>
        <mxCell id="hA0B3OljWH3qkmqwlUpI-104" value="" style="endArrow=none;html=1;rounded=0;fillColor=#f5f5f5;strokeColor=#666666;" parent="1" edge="1">
          <mxGeometry width="50" height="50" relative="1" as="geometry">
            <mxPoint x="540" y="1005" as="sourcePoint" />
            <mxPoint x="540" y="1095" as="targetPoint" />
          </mxGeometry>
        </mxCell>
        <mxCell id="hA0B3OljWH3qkmqwlUpI-105" value="G24" style="text;html=1;align=center;verticalAlign=middle;whiteSpace=wrap;rounded=0;" parent="1" vertex="1">
          <mxGeometry x="510" y="980" width="60" height="30" as="geometry" />
        </mxCell>
        <mxCell id="hA0B3OljWH3qkmqwlUpI-106" value="Power ground" style="text;html=1;align=center;verticalAlign=middle;whiteSpace=wrap;rounded=0;" parent="1" vertex="1">
          <mxGeometry x="594" y="780" width="86" height="30" as="geometry" />
        </mxCell>
        <mxCell id="hA0B3OljWH3qkmqwlUpI-108" value="Power ground" style="text;html=1;align=center;verticalAlign=middle;whiteSpace=wrap;rounded=0;" parent="1" vertex="1">
          <mxGeometry x="587" y="980" width="86" height="30" as="geometry" />
        </mxCell>
        <mxCell id="hA0B3OljWH3qkmqwlUpI-111" value="Power ground" style="text;html=1;align=center;verticalAlign=middle;whiteSpace=wrap;rounded=0;" parent="1" vertex="1">
          <mxGeometry x="537" y="1020" width="86" height="30" as="geometry" />
        </mxCell>
        <mxCell id="hA0B3OljWH3qkmqwlUpI-112" value="Ecu ground" style="text;html=1;align=center;verticalAlign=middle;whiteSpace=wrap;rounded=0;" parent="1" vertex="1">
          <mxGeometry x="590" y="820" width="70" height="30" as="geometry" />
        </mxCell>
        <mxCell id="hA0B3OljWH3qkmqwlUpI-113" value="Sensor ground" style="text;html=1;align=center;verticalAlign=middle;whiteSpace=wrap;rounded=0;" parent="1" vertex="1">
          <mxGeometry x="590" y="860" width="90" height="30" as="geometry" />
        </mxCell>
        <mxCell id="hA0B3OljWH3qkmqwlUpI-114" value="Sensor ground" style="text;html=1;align=center;verticalAlign=middle;whiteSpace=wrap;rounded=0;" parent="1" vertex="1">
          <mxGeometry x="587" y="900" width="90" height="30" as="geometry" />
        </mxCell>
        <mxCell id="hA0B3OljWH3qkmqwlUpI-115" value="Sensor ground" style="text;html=1;align=center;verticalAlign=middle;whiteSpace=wrap;rounded=0;" parent="1" vertex="1">
          <mxGeometry x="587" y="940" width="90" height="30" as="geometry" />
        </mxCell>
        <mxCell id="hA0B3OljWH3qkmqwlUpI-116" value="B33" style="text;html=1;align=center;verticalAlign=middle;whiteSpace=wrap;rounded=0;" parent="1" vertex="1">
          <mxGeometry x="220" y="40" width="60" height="30" as="geometry" />
        </mxCell>
        <mxCell id="hA0B3OljWH3qkmqwlUpI-117" value="B18" style="text;html=1;align=center;verticalAlign=middle;whiteSpace=wrap;rounded=0;" parent="1" vertex="1">
          <mxGeometry x="220" y="60" width="60" height="30" as="geometry" />
        </mxCell>
        <mxCell id="hA0B3OljWH3qkmqwlUpI-118" value="B4" style="text;html=1;align=center;verticalAlign=middle;whiteSpace=wrap;rounded=0;" parent="1" vertex="1">
          <mxGeometry x="220" y="85" width="60" height="30" as="geometry" />
        </mxCell>
        <mxCell id="hA0B3OljWH3qkmqwlUpI-119" value="B30" style="text;html=1;align=center;verticalAlign=middle;whiteSpace=wrap;rounded=0;" parent="1" vertex="1">
          <mxGeometry x="220" y="115" width="60" height="30" as="geometry" />
        </mxCell>
        <mxCell id="hA0B3OljWH3qkmqwlUpI-120" value="" style="endArrow=none;html=1;rounded=0;" parent="1" edge="1">
          <mxGeometry width="50" height="50" relative="1" as="geometry">
            <mxPoint x="68" y="160" as="sourcePoint" />
            <mxPoint x="234" y="160" as="targetPoint" />
          </mxGeometry>
        </mxCell>
        <mxCell id="hA0B3OljWH3qkmqwlUpI-121" value="" style="endArrow=none;html=1;rounded=0;" parent="1" edge="1">
          <mxGeometry width="50" height="50" relative="1" as="geometry">
            <mxPoint x="68" y="180" as="sourcePoint" />
            <mxPoint x="234" y="180" as="targetPoint" />
          </mxGeometry>
        </mxCell>
        <mxCell id="hA0B3OljWH3qkmqwlUpI-122" value="" style="endArrow=none;html=1;rounded=0;" parent="1" edge="1">
          <mxGeometry width="50" height="50" relative="1" as="geometry">
            <mxPoint x="68" y="209.71" as="sourcePoint" />
            <mxPoint x="234" y="209.71" as="targetPoint" />
          </mxGeometry>
        </mxCell>
        <mxCell id="hA0B3OljWH3qkmqwlUpI-123" value="" style="endArrow=none;html=1;rounded=0;" parent="1" edge="1">
          <mxGeometry width="50" height="50" relative="1" as="geometry">
            <mxPoint x="68" y="240" as="sourcePoint" />
            <mxPoint x="234" y="240" as="targetPoint" />
            <Array as="points">
              <mxPoint x="150" y="240" />
            </Array>
          </mxGeometry>
        </mxCell>
        <mxCell id="hA0B3OljWH3qkmqwlUpI-124" value="B35" style="text;html=1;align=center;verticalAlign=middle;whiteSpace=wrap;rounded=0;" parent="1" vertex="1">
          <mxGeometry x="220" y="145" width="60" height="30" as="geometry" />
        </mxCell>
        <mxCell id="hA0B3OljWH3qkmqwlUpI-125" value="B5" style="text;html=1;align=center;verticalAlign=middle;whiteSpace=wrap;rounded=0;" parent="1" vertex="1">
          <mxGeometry x="220" y="170" width="60" height="30" as="geometry" />
        </mxCell>
        <mxCell id="hA0B3OljWH3qkmqwlUpI-126" value="B32" style="text;html=1;align=center;verticalAlign=middle;whiteSpace=wrap;rounded=0;" parent="1" vertex="1">
          <mxGeometry x="220" y="200" width="60" height="30" as="geometry" />
        </mxCell>
        <mxCell id="hA0B3OljWH3qkmqwlUpI-127" value="B8" style="text;html=1;align=center;verticalAlign=middle;whiteSpace=wrap;rounded=0;" parent="1" vertex="1">
          <mxGeometry x="220" y="220" width="60" height="30" as="geometry" />
        </mxCell>
        <mxCell id="hA0B3OljWH3qkmqwlUpI-128" value="" style="endArrow=none;html=1;rounded=0;" parent="1" edge="1">
          <mxGeometry width="50" height="50" relative="1" as="geometry">
            <mxPoint x="68" y="269.43" as="sourcePoint" />
            <mxPoint x="234" y="269.43" as="targetPoint" />
          </mxGeometry>
        </mxCell>
        <mxCell id="hA0B3OljWH3qkmqwlUpI-129" value="" style="endArrow=none;html=1;rounded=0;" parent="1" edge="1">
          <mxGeometry width="50" height="50" relative="1" as="geometry">
            <mxPoint x="68" y="300" as="sourcePoint" />
            <mxPoint x="234" y="300" as="targetPoint" />
          </mxGeometry>
        </mxCell>
        <mxCell id="hA0B3OljWH3qkmqwlUpI-130" value="" style="endArrow=none;html=1;rounded=0;" parent="1" edge="1">
          <mxGeometry width="50" height="50" relative="1" as="geometry">
            <mxPoint x="68" y="330" as="sourcePoint" />
            <mxPoint x="234" y="330" as="targetPoint" />
          </mxGeometry>
        </mxCell>
        <mxCell id="hA0B3OljWH3qkmqwlUpI-131" value="" style="endArrow=none;html=1;rounded=0;" parent="1" edge="1">
          <mxGeometry width="50" height="50" relative="1" as="geometry">
            <mxPoint x="68" y="360.29" as="sourcePoint" />
            <mxPoint x="234" y="360.29" as="targetPoint" />
            <Array as="points">
              <mxPoint x="150" y="360.29" />
            </Array>
          </mxGeometry>
        </mxCell>
        <mxCell id="hA0B3OljWH3qkmqwlUpI-136" value="B7" style="text;html=1;align=center;verticalAlign=middle;whiteSpace=wrap;rounded=0;" parent="1" vertex="1">
          <mxGeometry x="220" y="260" width="60" height="30" as="geometry" />
        </mxCell>
        <mxCell id="hA0B3OljWH3qkmqwlUpI-137" value="B3" style="text;html=1;align=center;verticalAlign=middle;whiteSpace=wrap;rounded=0;" parent="1" vertex="1">
          <mxGeometry x="220" y="290" width="60" height="30" as="geometry" />
        </mxCell>
        <mxCell id="hA0B3OljWH3qkmqwlUpI-138" value="B16" style="text;html=1;align=center;verticalAlign=middle;whiteSpace=wrap;rounded=0;" parent="1" vertex="1">
          <mxGeometry x="220" y="320" width="60" height="30" as="geometry" />
        </mxCell>
        <mxCell id="hA0B3OljWH3qkmqwlUpI-139" value="B6" style="text;html=1;align=center;verticalAlign=middle;whiteSpace=wrap;rounded=0;" parent="1" vertex="1">
          <mxGeometry x="220" y="350" width="60" height="30" as="geometry" />
        </mxCell>
        <mxCell id="hA0B3OljWH3qkmqwlUpI-141" value="" style="endArrow=none;html=1;rounded=0;fillColor=#f8cecc;strokeColor=#FF3333;" parent="1" edge="1">
          <mxGeometry width="50" height="50" relative="1" as="geometry">
            <mxPoint x="100" y="170" as="sourcePoint" />
            <mxPoint x="100" y="10" as="targetPoint" />
          </mxGeometry>
        </mxCell>
        <mxCell id="hA0B3OljWH3qkmqwlUpI-142" value="B34 +5V" style="text;html=1;align=center;verticalAlign=middle;whiteSpace=wrap;rounded=0;" parent="1" vertex="1">
          <mxGeometry x="40" width="60" height="30" as="geometry" />
        </mxCell>
        <mxCell id="hA0B3OljWH3qkmqwlUpI-143" value="" style="endArrow=none;html=1;rounded=0;fillColor=#f5f5f5;strokeColor=#666666;" parent="1" edge="1">
          <mxGeometry width="50" height="50" relative="1" as="geometry">
            <mxPoint x="140" y="20" as="sourcePoint" />
            <mxPoint x="140" y="540" as="targetPoint" />
          </mxGeometry>
        </mxCell>
        <mxCell id="hA0B3OljWH3qkmqwlUpI-144" value="Sensor ground&lt;div&gt;B29, B38, B39&lt;/div&gt;" style="text;html=1;align=center;verticalAlign=middle;whiteSpace=wrap;rounded=0;" parent="1" vertex="1">
          <mxGeometry x="110" y="-40" width="60" height="60" as="geometry" />
        </mxCell>
        <mxCell id="hA0B3OljWH3qkmqwlUpI-145" value="MAP&amp;nbsp;" style="text;html=1;align=center;verticalAlign=middle;whiteSpace=wrap;rounded=0;" parent="1" vertex="1">
          <mxGeometry x="20" y="30" width="60" height="30" as="geometry" />
        </mxCell>
        <mxCell id="hA0B3OljWH3qkmqwlUpI-146" value="TPS" style="text;html=1;align=center;verticalAlign=middle;whiteSpace=wrap;rounded=0;" parent="1" vertex="1">
          <mxGeometry x="20" y="55" width="60" height="30" as="geometry" />
        </mxCell>
        <mxCell id="hA0B3OljWH3qkmqwlUpI-147" value="Oljetrykk" style="text;html=1;align=center;verticalAlign=middle;whiteSpace=wrap;rounded=0;" parent="1" vertex="1">
          <mxGeometry x="10" y="85" width="60" height="30" as="geometry" />
        </mxCell>
        <mxCell id="hA0B3OljWH3qkmqwlUpI-148" value="Oljekjøle" style="text;html=1;align=center;verticalAlign=middle;whiteSpace=wrap;rounded=0;" parent="1" vertex="1">
          <mxGeometry x="10" y="115" width="60" height="30" as="geometry" />
        </mxCell>
        <mxCell id="hA0B3OljWH3qkmqwlUpI-149" value="Drivstofftrykk" style="text;html=1;align=center;verticalAlign=middle;whiteSpace=wrap;rounded=0;" parent="1" vertex="1">
          <mxGeometry y="145" width="60" height="30" as="geometry" />
        </mxCell>
        <mxCell id="hA0B3OljWH3qkmqwlUpI-150" value="CLT" style="text;html=1;align=center;verticalAlign=middle;whiteSpace=wrap;rounded=0;" parent="1" vertex="1">
          <mxGeometry x="20" y="170" width="60" height="30" as="geometry" />
        </mxCell>
        <mxCell id="hA0B3OljWH3qkmqwlUpI-151" value="IAT" style="text;html=1;align=center;verticalAlign=middle;whiteSpace=wrap;rounded=0;" parent="1" vertex="1">
          <mxGeometry x="20" y="190" width="60" height="30" as="geometry" />
        </mxCell>
        <mxCell id="hA0B3OljWH3qkmqwlUpI-152" value="Crankshaft" style="text;html=1;align=center;verticalAlign=middle;whiteSpace=wrap;rounded=0;" parent="1" vertex="1">
          <mxGeometry x="10" y="220" width="60" height="30" as="geometry" />
        </mxCell>
        <mxCell id="hA0B3OljWH3qkmqwlUpI-153" value="Camshaft" style="text;html=1;align=center;verticalAlign=middle;whiteSpace=wrap;rounded=0;" parent="1" vertex="1">
          <mxGeometry x="10" y="250" width="60" height="30" as="geometry" />
        </mxCell>
        <mxCell id="hA0B3OljWH3qkmqwlUpI-154" value="Knock 1" style="text;html=1;align=center;verticalAlign=middle;whiteSpace=wrap;rounded=0;" parent="1" vertex="1">
          <mxGeometry x="20" y="280" width="60" height="30" as="geometry" />
        </mxCell>
        <mxCell id="hA0B3OljWH3qkmqwlUpI-155" value="Knock 2" style="text;html=1;align=center;verticalAlign=middle;whiteSpace=wrap;rounded=0;" parent="1" vertex="1">
          <mxGeometry x="10" y="310" width="60" height="30" as="geometry" />
        </mxCell>
        <mxCell id="hA0B3OljWH3qkmqwlUpI-156" value="Wideband O2" style="text;html=1;align=center;verticalAlign=middle;whiteSpace=wrap;rounded=0;" parent="1" vertex="1">
          <mxGeometry x="-10" y="345" width="80" height="30" as="geometry" />
        </mxCell>
        <mxCell id="hA0B3OljWH3qkmqwlUpI-157" value="&lt;font style=&quot;font-size: 20px;&quot;&gt;Sensorer&lt;/font&gt;" style="text;html=1;align=center;verticalAlign=middle;whiteSpace=wrap;rounded=0;" parent="1" vertex="1">
          <mxGeometry x="30" y="-100" width="120" height="60" as="geometry" />
        </mxCell>
        <mxCell id="hA0B3OljWH3qkmqwlUpI-164" value="" style="endArrow=none;html=1;rounded=0;" parent="1" edge="1">
          <mxGeometry width="50" height="50" relative="1" as="geometry">
            <mxPoint x="68" y="594.51" as="sourcePoint" />
            <mxPoint x="234" y="594.51" as="targetPoint" />
            <Array as="points">
              <mxPoint x="150" y="594.51" />
            </Array>
          </mxGeometry>
        </mxCell>
        <mxCell id="hA0B3OljWH3qkmqwlUpI-165" value="" style="endArrow=none;html=1;rounded=0;" parent="1" edge="1">
          <mxGeometry width="50" height="50" relative="1" as="geometry">
            <mxPoint x="68" y="473.94" as="sourcePoint" />
            <mxPoint x="234" y="473.94" as="targetPoint" />
          </mxGeometry>
        </mxCell>
        <mxCell id="hA0B3OljWH3qkmqwlUpI-166" value="" style="endArrow=none;html=1;rounded=0;" parent="1" edge="1">
          <mxGeometry width="50" height="50" relative="1" as="geometry">
            <mxPoint x="68" y="444.51" as="sourcePoint" />
            <mxPoint x="234" y="444.51" as="targetPoint" />
          </mxGeometry>
        </mxCell>
        <mxCell id="hA0B3OljWH3qkmqwlUpI-167" value="" style="endArrow=none;html=1;rounded=0;" parent="1" edge="1">
          <mxGeometry width="50" height="50" relative="1" as="geometry">
            <mxPoint x="70" y="629.43" as="sourcePoint" />
            <mxPoint x="236" y="629.43" as="targetPoint" />
          </mxGeometry>
        </mxCell>
        <mxCell id="hA0B3OljWH3qkmqwlUpI-168" value="" style="endArrow=none;html=1;rounded=0;" parent="1" edge="1">
          <mxGeometry width="50" height="50" relative="1" as="geometry">
            <mxPoint x="68" y="534.8" as="sourcePoint" />
            <mxPoint x="234" y="534.8" as="targetPoint" />
            <Array as="points">
              <mxPoint x="150" y="534.8" />
            </Array>
          </mxGeometry>
        </mxCell>
        <mxCell id="hA0B3OljWH3qkmqwlUpI-169" value="B17" style="text;html=1;align=center;verticalAlign=middle;whiteSpace=wrap;rounded=0;" parent="1" vertex="1">
          <mxGeometry x="220" y="580" width="60" height="30" as="geometry" />
        </mxCell>
        <mxCell id="hA0B3OljWH3qkmqwlUpI-170" value="G20" style="text;html=1;align=center;verticalAlign=middle;whiteSpace=wrap;rounded=0;" parent="1" vertex="1">
          <mxGeometry x="220" y="460" width="60" height="30" as="geometry" />
        </mxCell>
        <mxCell id="hA0B3OljWH3qkmqwlUpI-171" value="B12" style="text;html=1;align=center;verticalAlign=middle;whiteSpace=wrap;rounded=0;" parent="1" vertex="1">
          <mxGeometry x="220" y="520" width="60" height="30" as="geometry" />
        </mxCell>
        <mxCell id="hA0B3OljWH3qkmqwlUpI-172" value="B4" style="text;html=1;align=center;verticalAlign=middle;whiteSpace=wrap;rounded=0;" parent="1" vertex="1">
          <mxGeometry x="220" y="610" width="60" height="30" as="geometry" />
        </mxCell>
        <mxCell id="hA0B3OljWH3qkmqwlUpI-173" value="B37" style="text;html=1;align=center;verticalAlign=middle;whiteSpace=wrap;rounded=0;" parent="1" vertex="1">
          <mxGeometry x="220" y="380" width="60" height="30" as="geometry" />
        </mxCell>
        <mxCell id="hA0B3OljWH3qkmqwlUpI-175" value="" style="endArrow=none;html=1;rounded=0;" parent="1" edge="1">
          <mxGeometry width="50" height="50" relative="1" as="geometry">
            <mxPoint x="68" y="394.14" as="sourcePoint" />
            <mxPoint x="234" y="394.14" as="targetPoint" />
          </mxGeometry>
        </mxCell>
        <mxCell id="hA0B3OljWH3qkmqwlUpI-177" value="B36" style="text;html=1;align=center;verticalAlign=middle;whiteSpace=wrap;rounded=0;" parent="1" vertex="1">
          <mxGeometry x="220" y="430" width="60" height="30" as="geometry" />
        </mxCell>
        <mxCell id="hA0B3OljWH3qkmqwlUpI-180" value="Drivstoffpumpe" style="text;html=1;align=center;verticalAlign=middle;whiteSpace=wrap;rounded=0;" parent="1" vertex="1">
          <mxGeometry x="-10" y="580" width="60" height="30" as="geometry" />
        </mxCell>
        <mxCell id="hA0B3OljWH3qkmqwlUpI-181" value="Elektrisk vifte" style="text;html=1;align=center;verticalAlign=middle;whiteSpace=wrap;rounded=0;" parent="1" vertex="1">
          <mxGeometry x="-20" y="460" width="80" height="30" as="geometry" />
        </mxCell>
        <mxCell id="hA0B3OljWH3qkmqwlUpI-182" value="Hjulsensor" style="text;html=1;align=center;verticalAlign=middle;whiteSpace=wrap;rounded=0;" parent="1" vertex="1">
          <mxGeometry x="10" y="520" width="60" height="30" as="geometry" />
        </mxCell>
        <mxCell id="hA0B3OljWH3qkmqwlUpI-183" value="Failsafe: Nødstoppbryter" style="text;html=1;align=center;verticalAlign=middle;whiteSpace=wrap;rounded=0;" parent="1" vertex="1">
          <mxGeometry x="-20" y="620" width="100" height="30" as="geometry" />
        </mxCell>
        <mxCell id="hA0B3OljWH3qkmqwlUpI-184" value="Failsafe:&lt;div&gt;&lt;span style=&quot;background-color: initial;&quot;&gt;&amp;nbsp;Lavt oljetrykk&lt;/span&gt;&lt;br&gt;&lt;/div&gt;" style="text;html=1;align=center;verticalAlign=middle;whiteSpace=wrap;rounded=0;" parent="1" vertex="1">
          <mxGeometry x="-30" y="430" width="120" height="30" as="geometry" />
        </mxCell>
        <mxCell id="hA0B3OljWH3qkmqwlUpI-185" value="Eksostemperatur" style="text;html=1;align=center;verticalAlign=middle;whiteSpace=wrap;rounded=0;" parent="1" vertex="1">
          <mxGeometry x="-10" y="380" width="60" height="30" as="geometry" />
        </mxCell>
        <mxCell id="hA0B3OljWH3qkmqwlUpI-186" value="" style="endArrow=none;html=1;rounded=0;fillColor=#f8cecc;strokeColor=#FF3333;" parent="1" edge="1">
          <mxGeometry width="50" height="50" relative="1" as="geometry">
            <mxPoint x="100" y="480" as="sourcePoint" />
            <mxPoint x="100" y="440" as="targetPoint" />
          </mxGeometry>
        </mxCell>
        <mxCell id="hA0B3OljWH3qkmqwlUpI-187" value="B34 +5V" style="text;html=1;align=center;verticalAlign=middle;whiteSpace=wrap;rounded=0;" parent="1" vertex="1">
          <mxGeometry x="70" y="410" width="60" height="30" as="geometry" />
        </mxCell>
        <mxCell id="hA0B3OljWH3qkmqwlUpI-188" value="" style="shape=image;verticalLabelPosition=bottom;labelBackgroundColor=default;verticalAlign=top;aspect=fixed;imageAspect=0;image=data:image/png,iVBORw0KGgoAAAANSUhEUgAAAkUAAAO2CAYAAADmD+PCAAAAAXNSR0IArs4c6QAAAARnQU1BAACxjwv8YQUAAAAJcEhZcwAADsMAAA7DAcdvqGQAAP+lSURBVHhe7P0NdBvXleeL/j1+TXdswysJ68UtuNlDxJqQcS9S6X5EZx7ZSmRM2mYci4g8Jp2nwJkJJK+YnEko+TnMTAIptgQnqxXfSMz0kM61RE9iWGOTGWlAJTEd50LyqMnrDLimbfLOGOyWAnbUhtv9ikmWkXTH7KXrt/epU4XCFz8kggKo/eOqRdSpU4WqU/uc89/7nEJd4/P53oEgCIIgCMJVzj/R/wVBEARBEK5qRBQJgiAIgiAQIooEQRAEQRAIEUWCIAiCIAiEiCJBEARBEARCRJEgCIIgCAIhokgQBEEQBIEQUSQIgiAIgkCs2483/u7v/i7e+973oq6uTqcIQo5rrrlGfxIEoRZ55x35HWChMiwuLuLnP/85/uZv/kanVI51EUXNzc2q08tms/jHf/xHnSoIOX7v934PP/vZz/SacCWRe5FDymLlNDQ04MKFC3pNENaGa6+9Vv2/4YYb1OdUKqXWK0XFh884QsSCiFWeCCJBEARBEFbKxYsX1fLWW2/ht37rt5SmqCQVF0U8ZMYRIkEQBEEQhEtlYWFBaYpKUnFRxHOIJEIkCIIgCMLlUul5yfL0mSAIgiAIVQ8Po1UaEUWCIAiCIAiEiCJBEARBEARCRJGwMdj0Cez6/H1o06tXgrZPfQG77rpZrwmVoQ33fX4XPrFJrwqXThXUmUpy81278IVPbdSrEypF1YiiHV97Dt9/7jHs4JVNO/DY8e/jxBNfqOEKex9dw9N47JN61eZTj+NEfBAPbroV9z1yDM/Fv4/vf99ahvt0HmEJypRb5x34xJ13446AlWst+MIT38dzX1MW6eILGNbfq5bvHcNjn2Ur/Sju4HP4k7utbALw+eFcOdEyvIdKaf/T+D7Z/y6dRfHJx/Dc958rqCtlyjlwB+6+8xNU1jpbNfHPPoGH/+NzVL9z533i8IN64zqgynGYSi4f1ba6yvK5//iwJSorUGdWhDrP3Pl8//gwHl6NM1HmOgu5+0/YTu6gmrkKVnhsYeNShZGim3H///d+bMGrePrRb2Fap9YeN+O9NxXOkr8ZD7Y3A3NTeKLzC7iv7T342x9/C1954G7cfffd6B3S2YTyfLZMuT3Vj3vuvh9fS1jZKssF/Ii+9+6938KPMu/Blk/eT538S/jav74b9+w9pvMI4N9c+5sfqXuk7tMR4KU/P49fXHsrWndbWZgdf7QZN/ziNbz0X3WCQ4lyTnwN9999D/qf0lmqBXbkHu3FNuPnmIp9zbHNe/Y+oTNcWX49c4zOZxe+8tQ0Fv/pNnzqAZIK61pnCvj1qzhG5bPryydxvq4B2z5xn96wdhzbew/u/tdfo5opCCun6kTRe/c8gh3N/4hXR7+Ck29wSht2fe2Y432d+E+PY9cfUbJS9E9j8LD2gp5+DPd96jE8rfKdIK+UvXdqqJ77Po59zU4nL4k8Nyv6tMLjniCvgdNJ0OzYn8vvHGcPecPPHcPgsRNWfjqPHZvYy70DDbgBW3a7og1/cD/87/8FZn70HHBjHerwa/zq/Kt4VV2nTRsetL87fgLH9u/gb1bX8fS3BnWExL4+uoZDTzvnNPx5a/+S12Uf44lhnOC85LXXJOXKTd0HK9J4811fxvD39PX/x2E8bUchyt5bjurp+8dl/pXC6FAZ/upH+NZP36TO/3fw/k9a5avKtez3bGC4/J/I969v/iclHp1NnMRrVGQNzffrhB1ou/UG/OL8FH6kU4pwl3PE5cmXrHtqj3Xnow/cgy03vIkz/1svHh+byrdNbQ/D/5HPk8+9TB112TCTi1SWq/9Uxv/yMadte/pPfkelledNvPpfXsXPfg28x7sl7/vUdz05iGMn9LEOcruzDrznt9S/X7zJv1Jcqo29GZ/4d8NOZPi5g59Q+W3a6BpOcP3+lzfra6D6Tnm53OzyU9HJ7z0O2+Luf5zuw5MPY8sfPYjB49ZxORL5CB3DjWpHqNzV9uOPgb/55n/5CI7ptuX7xwfx4Eav11ch1SWKrt2MO25vwC8S38BXtNe45Yu92PH7wNQ3d5HH+DReq2vGjgfIoNXWG1D319+g9O/jwk1bcP+O6/D9h3fhG//nr9HwRzuUETM3/z9/gaMP3o3+GFW8f3Y37v/czcsf98IQdj3wDUz9ogEd1OHhU1/E/b//Czz3MHmADxzDOS8dx/Z2b7gRv3rxi3Qc8nretQV33Pcceu/+Efm5v8arR+/GfeQNMVs+9kHc/MarOPljWvnej/DqL8j7/dwwjh36Aj7xz1QWdV533JjEN9jTfGwK+H/dg14d3r6h7gKGHuTr+wUa/t87sGP7Dtxx2yKm+JzYE/8Py5UXtUHXnscgHZu99pqkTLnl+Ch29bSj4RdnqAx3YfA83003Je4tzuOlEbp/7Ln+1wt4zx9tyx/eKcc/uwMPN1ND+psLmCmKcpT6nquLduNG4HfvKOhAXsUP/upN1DVSfeXVj23B793wC5z/87KSKL+c/y+dZlNU99alKy9ii/c9wN+9hqf/u04o4j2oOz+IXXf34qVl6mg5iuo/WemXP70FdXNPo//uXXj2/1dXYOuFULsXasNmyvTm+eL4yQ03/Ao/+hK1k//lPG74gztwXyUF5g1bsIvs4tgX78atv3oVP5qg+1+yjb0Pd//xe3HhP1NZUf28b98P9AGIP/oCdn3kZrz5Y+ov/guJZuKGm35NfUCuzWVUdPK3G9Cshmfvx5bGOrz5l+fxJw/cgRunv0H35G48Qk1t2yd784ba7vtEO97710+r7Xfv/Ap+QM7TF/8/H8Qvvtevom7H5n8Hd4dW1FIINUR1iaKLi1i8CNxoNDheykdvpU8kJB5/iYz+r57D6Az9f18DeRDMm3jtyDSlP4HXyDP79flJPEcN7kv/82f49U3vxa0qD3Dhfz6Ol2j7+WcncY68pN/5p+3LH/ebL+HNN14ir/bXuOG9DdjR2oC6334/7vv6CZz4D/fjg9cu4kavll2/PofpZ6n3/atjOG8C731fu5Wexx10jJtxfvpp6haIN07iK/f3Y/ilC6jbfAd6/9SKJvB51dW3o/8/0PcMtOM9/3gD3tOsDoA3U3wdfH1/i1/f8F40TP8Uf7t4M9r3D+LLoY+qMlv6unJlUbOUKbccW9Bg2NdJZfXN1+huuim+t9h0A94f+DKe+x554J+8FXXXLte5NOAO7ugPfwHbjF9g+j9/A8/pLTlKfM8G5BPs2VO5nfgIl+M267OeR3Pyy9ShsdD88jFM/cOtTgfy6gvn8SbVpS2folrxx7fiPb84j9PsKBSxgnJeUd1bJ6j9UramIkM6muBEfi7gVbYH+rRcHS1HUf3/5PvxO3W/xrmp50jWv4kfvELtns5byA2tu+h8juGxT5H0+qvvY/gbqhXK49fz09R+Ujv5FB/tvbj5w3pDJXCGz8g2Lm7BfZ9/BP+uZBtLAuYXN6B5xyN47POfcNp0utPo2HMH3pt6Go9wH6Cx+gC9YpM4jfN0jM3kKOOTzWj4bboXsQbcuqkO72mntoRs9svt78Hiu96DD+pdmNSbv8ANTffgka9p5+uTrbQvtRX3foPsfBj3f+C3sHhDg+N8CxuDKhs++xlOPEOVtfV+PKLDw4X87aL+cDlQ41XIio77N2dwz733OMuuAy6vZTk+dQda35XC1LfdXfR5/OCb/bj/35CX+383oGO7Vb1+/T+P5X1Pf7m5Rm8cQ/+XhnHmQh22dH8Rj++/Q2/IsSblVXWULrdL5aMP7MbdN5/HsX9P5f3Uq2U7lhx6rgsv9+7CI9pLvRr5wYFdlp3+twtkj7p+FMyjeXPmJI79TyqjOi01/+IHOP9mHd7/h19A+63vwS/+6nSZeR+1U85vvkUVzbgVuzi68l+/gvvonI/NLG9JzHrUUWtOkVWW99H9qZa5mmwbX5sl23nPzXgfJxS1sY/jkQESwzOL+L3be/GNb+3SDvMifkXF+1vkbCzvbryE039FAqdhC3bx/LW/eQ3PKcfw13jtO7nvuufefrgt90cHHsY3xl7FYsM2cr4GsesmTr2AM67zu2fXI1hFLyDUANU30fq/fAvPzvwjGj72RTVOnMr8gjzQLXj4o1QV/tl9+ELbzVj86xl8X2dfCTe/35r/0/a5bfjgDYu48D9/sOrjTv313wK/uwVf3p7zVZbnt3AjVXYOW/ME61//Xz8qEVG4GVta34Mbf4uq+T/+Cqm/pcr7gTuwi89rJfzVD/CtLz+CE3O/pnaleU3KqzbIL7ccb+LXv6GtzQ/jo5tuxkcf2rJso/ne364DfvNznP+rm61JvzpdWAWLi1j8h/zefcdnd9E9oHtBTo6yw7dsUfMqfpB6E3Wbt6H1PW/itVO1PxX2ue+dwYV/cis+ceDLuC/QhrY/+ihufpc1X6aQsnXU/DUWb/gdfJDSb/7ow/igUglL8JM38XOy1s1/dB9u5acya9F2eWj096mG/uLN8m3sGy/h6cf68cifk80Y79cRtV/h1Sd/hDffdwe++LXl5z+9dOo1vPmeD+KOW2/A+b94jlqJlIpAbQ5YNlqaN/FS7GvoPzCFN+t+B+//vy/gby82YMtX3BErYaNRfaKIDPHkl7+BM2/cgC2f/jIanhzE9396I7Z98Ri+f/h+fPAfpvH0149RrpXz6zqqaPHv45G7GvCL//40vvEsewGrO+6b334aJ+fq0P452o/D4icGsfTDti/htb8Gbv2Xx/DckX8H/z99E6/GXfMm+gb1hMJjeKyvHTeSh/Tsky/hR99+Vs1B2cHnxd/znx4pH57d/gieVmH6Y7j/n/4cUz94btXXVXOUKbccz+Eb//lV/HrTNnzxyWPoa/gVqAtakpP//VW8ueluDH5/GHff+KsVRIqEIob6iyJE7/39T9A94Acd7sNmtsPDOZfg1R9TJ1VXh7o3z+MHf6ETa5n//i08MngSr/2TLbj/oUfwyP4v4u5/+o/kgKXwU53FpmwdjT2LM3/9HrRT+rG+BhKReodyvPEtHPvxBfzW79+Pwfg3cEct2a6eU6SGRm+4gDP/eRjfK9nGPohhVd+/j8E/rkPqxZO5yAyX+TIjCw4qOnkDbvjt83htnFvDH2H4P0/h5w07lI3y8Z/en9/SPvgfrfTvP96Ouv/1I5yMPYGn/2sKdX/US20FpcdPYFB+RmXDcY3P53tHf64IbW1tuHDhgl5bb/ipjV147/95ZScW3/HI0/jCeyex6wtPbBxxssb83u/9Hn72s5/ptbXiVtzx0MN48I8X8YN7+iEPy6+MytyL2kTKYuU0NDRcwbZeuFpgO5uertwAcBVGijYeP3rkftwtgmjdyD02O4gvfLgOM898TQSRIAiCsCwbPFIk1ArikVcPci9ySFmsHIkUCeuBRIoEQRAEQRDWARFFgiAIgiAIhIgiQRAEQRAEQkSRIAiCIAgCIaJIEARBEASBWJenzwRhOa655hr9SRCEWuSddyralQiCQyWfPqu4KKLjI51O6zVBKI3YSfUg9yKHlMXKkbIS1oNK25kMnwmCIAiCIBAiigRBEARBEAgRRYIgCIIgCISIIkEQBEEQBEJEkSAIgiAIAiGiSBAEQahCQhhKJJFMDNEnQVgfRBQJgiAI1cfOduCMH/4zQPtOnSYIFaZqRFFoOIFkMol41K9TNDuHkKD05FhEJzBhjLxEaS/H0K9TmMgYpXFeXl6eRHy4Hx16m7BRiGDUvse8OF5kfvrofpWYsx+1JDBUpnFl23H2IZQt5dnc6ggNj5b9rtUQGSt/ztVAXp1zlW9eelE5WhEAd3m74bYgMbxcbKDADvg7+F4XRRX4u9ahDPPsTJ+PQkc7VLr7PNznP0prpeA81ja7fVw6f42gyqr0Pcmrd8engG20vg2YOm4lrVW9unzybdi+P0vZbWSs9H3jfa3j8DFXc29L56/2NqPaqa5I0UXA2/ZpBPUqE759Czz6s8OuP0YTFrDwdhP8e3WaJn2KPAt/CNFTaRhtIfQWbBc2ANkkBv18n/2IL/jRpRqUKHp0mv9wEsZ23Vgc70PATj9lwr+7RCieGukA4ug5oNdpz9bGLLL1AWlcliWL5GFX+e6wmuhot07zDyJZH8wXQPu70Ez7lSaCrqYURnpjen0J5uP6O2jpjqpONEVHzosq7GxH80ICfbpTrSjO+fA1a9vZ3w4c1ed4mM5O2R93ZtTKqbbKj8FpA8ESAjw0HKA8PYiSfYapTGyb9/spTeepVUy6/c1bC2si1zv9URFDX4CuN9BHn6oN69ysNsOyWb4/gZXYrVDVVJUoyv6vWWTqW3Gn3ag1DCDQksXcX+Y3oL0dTaj7m+fx/N8ATW0D8Or0HHOIP5bC6/TJ+4HCiudF99dHkXjZ8roSf9Ztpd5/BHGOPrEn9mIMA1spcf8okok4YvFJK32CGrQGynvvIYza3t+LQ+AjeO89iNEXddrLpPy/3m2dlz7G6ASly9j4GhOCtz4L85xedTM/U7LjyM5NFTWwoa0GUiddufe3wpgewcicu+G2vLIhx2MvHRUp6SmyDejteV6+O7pAXuToUvbBeceGlHeq8lehLYU2Gcia83rNTRozLsE5us1Egsq2JFT2OFPYCdI+JURDMTFM5d0zvrfNMGfXW0I0wvCYyLAQO9CXE2THMzDVB96eK5NYbwLpem/B/Qyh3UhhnPNsNoodQ407guSONhTbKadr23Fs0J3msl2y18TwkBXJWlG5XwJzCaSaunJ1gVAicDqp5bI7klYm8uGqV/a5qyjJsJWeJ8QL6g9vc8quZLTZXW7l6j2XI28Pwufxo18ft2x9d5FrMxLoMjiFj9MPv8eHoD6O+1peeD4/esrnnhj+Q73GWOee3/7o+1upe7hBqa5I0dtJzFzwYMvtYbXq/1wHmt6cweRbalXTj47b6jA3PUgeFrWAt7YqoZJPE4KPtuIWLGJ+urALDKP7Ywbmnwwqryvwb8dUWnR3Kxa+G6K0IAbPkXB6UA/MeTx4azwM/2dimHuXH12f9SJ87+0wzg8jyF7bn/RhjPf/fCeM+WGEaP99L5i45WN7EN1lHYKP8asxOnZVejw1iG6Aksl+NM+NOJ2O08jtBkY4cqBxGqCWmRKeHHU+TbA6ME2khUTS2RhiZ1NkSu2Uw8aHZoxY3nqZqEhhQ68a4+1AXG13RwWowdrth6mjBf5ZPvoyNDY7UYdchOxK44F/r1W+/e4IjyP4qC4ftSMb3EgHYB7tQynpxHDZlxS5hez0wmgMWvfV1VHl3zPy4NtMlyCrMM75cBSoOJrDnb6hRPk8zKwPrfb9IyHo8xgklVxwhAsZq7040KPud3+hOKDON2zbI9meuc3ugIvtNDQcproyqPNa5xYZ4/pjp8VhtoWd43vaDMxwuqserSUGCYGpOQMBpxO3oi3jZ/UqnWEu8ptCs65rDmxfVJ+tc/cjYdjnTvZoWOm5yK/GqT9xYHvSKbvS0Wb3d5au9xYcMYojraPXPefK1XcXdN+C9Xa0ewRmPUtePs4gktm02tc699y13PnxBEzHrrnNIsei93+oNadeHc6PVPH9NXhOVoXu4UalyiZaZzFMrl5dSwADDZ34dJsXmdmxvEC792E/mq5NI/U9WvneDOZIALWRULHxkbEnkzFE7rwF5tlhRI7pDQ6zyCx40PLpIxj6SjftTexsQ+P1HjR9ZgSTL42h97brsHijT0WAkE1h6hiJr9eow/s7qsybApjNLMDTEsKR4Qi6P2jvn0Xq9AidTwYTXz2Nub+vg/f3O/kI6hgJPoawNriGz0aoabO9o1hvwGq4jpLMdXlojmiZbS0dYVkwXZ10BK31dM9ZJB0vHI5JU0OkG50DM7SmcQQAe3oGvK6OiyMVmB53OkgnKqA6vaQVCWDcxyvHfG4YKDpbLe+Ycg2fcbnb5esMW44Au23PlxvpwDJDWTrCwjgeN3nituAoOj4t3IHt1ffbfc9YbJSJGFYE13DeTEt+pIIFe7+R0J0WdYBHeYiXr42WFrKsrNsGLUxX1M2y4QQMFqC6k420+Ei89OsycttesZ0qsUh5c+fEQ1WufFRK49PUvm221rIum60UXBecjp6jswVRXMfJ2euHpyCSxvXK44jQJIKNHn3uZI/uqK8bp/6wKM1du7sulf7OMvW+BGXru15n+L6lnWgoRzfLDSW7ryWKmQVt12pI2LZrEpaJ4nrVTHUuYA4WC0NhWapMFJHH/ngCs2+T0Hm4C83vnsPkt5N6C0PG9QcsY3wIniDDPUGi5lpa+1Av7OnZ1pwiWv55B4IPxUiicGNsVRzLo4xjzwP7MDK9iPffNYCRZ/r18Fsaz3+0Ax32EtwDjiGVIv5QGPuemsai7+MYOBpD/7v1BocsfnNRfxQqSnE0h+COMZsvThTcoBV65AWwN2+Hwq2OxlNi7oObCEb3GkjozjBeLgRyNVAkIhmr0Tc+dAIBKnjLaUmiv82jPruFQxEHerTIIE/cFhyloq3qfuvP6vusITTV+az70JkFd7S+Fi1eqP1RUQm3x+4WdSdNGAs6KrQkViQjjtwcLae9U8sSglN/H4u16pmozR09R2lCGNoGl0AjSBCziHTuv052k522o1zWctkCYAXfeSWJzprKrll4FQ4JG5vcbRRHnrLwGEu1dEI5qk4UgRqPxP/KwtdOSn02gUMXdDLTEEbbB7ghsIa+eAk+Ry1gQyu6PqzzlCA3vKEbjQsTGB4Iof/HGdS9rwkdZ+eRueiD/xCJLGuXZchg4tsDCO1NIFPnRdPFOWQWqfO8PUz7e9H5aBe2eBaQOj2h8wuVQnlmhfOE2JOy53S44chBCY8c9bZQsobSnMiHbhzNtoIhMTc8jOMcs3CiqBZtrv2V6OIOkOeXeFwCgs9Nf6xZVPRLR9kcuEw9MF+5JycCaBmczqoOvbgjKyFml2N/FzlFuftqCeUwiTD3XKb1xRZkHHlonV1qAq4eRi0h3oxlOrV5k9rJbaubW8ZtYXyey5gEybwvf/iqDSsbulxDoieTMLaFXZEPi7z5aSXqRuwNE56l6uUlsNx3roSy9V2vM+q+acFs148VQU6d2dSFrib3kLCJRICH7d1RwCxSR/nRkWDBHCNhJVShKCLD+uEMFrCIuZdHdIqF/3N+MlRq6J7i+I9F5rkZzF30ovWTBY/yl2UAo3qSdexj12H21DMYu3AIw8dncd1HBhDjCMHLk4h9SWcvwcCz1v7JpwK47pU4nvn2IAaemET2A720fxwH7zSQfu4g9pzSOwhrixPJcc1jcYZaaNlLXfPhHtXIOuFwXnisvyjSYEUWVEdcslO3Og9n/kch5IEn1HwP/o5WjsznQ9tHeF6BPgc+30EVMSCvn+cn6Pk4agjF2qPGyM0pUuV+lMvXPWHVmreyUi+evWF7CCcHlVXhvAj3/S68rypi5YFnPYfOGPdwjn6asdGwImLOuep5QTm7LFM+6hr0sIv7Wmmxj83DxdZcI71ticn37npAXaVyDqPdLPjt4TeeB7Xc0GYFUPUH+Q86EGpozT63UnXjQI81X0df01pEv5b9zpVQtr7niPWOqCcyrfMOw1iww5zcFln7lo6gcmTNB2OucGjTmo9k8s8XuOYvsQBOGHQ9S9iFUMw1Pp/vHf25ItDxkU7XZnMvrB9X1E52DmF06xR6ynrz6wB3fDxxtAomRV7ZOkuCagzFIugKcSXLgn+Tp/1sz/oLlUtE2vpKwxOq+cGFKyBeq4hK21lVRooEYV0h726GPKol57esOdzAWd6kWraZRR7l1UkU42ZAwv5ErHcGhj2BXLiqsSJ9+U/bCpVBIkVCVSB2Uj3IvcghZbFypKyE9aDSdiaRIkEQBEEQBEJEkSAIgiAIAiGiSBAEQRAEgRBRJAiCIAiCQIgoEgRBEARBIEQUCYIgCIIgECKKBEEQBEEQCBFFQk3Cv/ZrvS7B+p+DXzFhvUpBrY3lPgu1BP+ydZmfLdw5hES5bVeY3MunrWX9foSSfwyUf+jR/i8IwqUgokioQawXt/ILXxsN679KVb/6mv/+sWh3AsZueffPhoLfL2UG1vkXyJfD+oXygJn/5vbyL4KtFDH0HTURqFLRKAjVjogiobZQL8fsh9/jUy9ODDbyfysaxC/I9Pt7MKOzWkQxPmfk3kYvrCnuF40qkUL3xy1W7Eid+r9/CAmd13lxJeVPDEdcrzwpiHLw/XZ38HqdX94J503jVQC/qX8hXloEqcjWkHWN6uWc+a94caJJZcrOKqOh3Et2nfJwvXg30QXyDyz4JatolWiRIFwCIoqE2uJAD/yHk0hPk0du//cv/YLE2BtA81aJFa051NmH+S3gOiqy9JvwPfBvA0ZU3kH1lnBbAHjaAsBR6xjqzeduEXRgnPLmOvhIi4GkeqP6PExX+pUm0uJDenaJd9c1NlvXGOhD45j1ZnwrmsRvqg8vO8TraTMw45RdQAvNIAxl/5R+1ITh0ZmJedNAa1VF0gShNhBRJNQQ2sPe64evrT/3X3nfS3DOhKk/CmvI8Smk4Ee/W8SUJYvk0T5YcZQYpuayMDZZdy07nXvJZexsCtl6r+t+cl67g4+gtT6FKZU3hswC/69GXBEcu2zmE/oa6Roa00g4EaUoxqcBY7NeLUN2epxyMlwebM0Fx+F7kbU+MrE3xOIF4VIQUSTUEDH0BTiakEbycO4/e9/rPXNDYKz74Z9tVQKgUnN8WCgZPFS2vxXG3FRV3ut5MyfyWOj0cPTmlLwcVRBqDRFFQo0RQrthYuq4/V8nL8VmIzffQlh7eEiTBIAtCnz2XJ+dQwg0Wh95+Cw3hBlBVxuQOmvJG09TuxMZiuzwA4XCh6Mg9a0YbTGcfdgOvPX6YxXAc5zMtv4VCMMoZuZ9CDhPpVllYZ6z1kqXXSnmYWZ9uSGyne1odg2fhTaJxQvCpSCiSKgxYujr5siQ/X95QptyHbCwhvAEYnuYaDusoRw1Byhope2mcneeBMzCNMJWejIInMrNA8suGAjr4wRRarKyNYTmgz0ExTTCWJjRQ0rVAEeH4sB2XR68UJnEu4vPMNrN84j6i8uibNmVgp8yS8Kwv2+3QSJJbyIayWGYWXKOlyAIpbjG5/O9oz9XBDo+0mkJIwtLUzk7iWA04cW4DLGtmErcC36SynuyxIR4frJq0/iyj67z7/+0zuYmc/NTb11vBJaZ3H351GT7xWJ1RwaBEoKskkhbL6wHlbYziRQJGxp+QgdnRBDVLPwIftKKIDkCSD/1Ni6RkBKEMLS7GSn1hJ4gCKtFIkVCVSB2Uj3IvcghZbFypKyE9aDSdiaRIkEQBEEQBEJEkSAIgiAIAiGiSBAEQRAEgRBRJAiCIAiCQIgoEgRBEARBINbl6TNBEARBEIS1oJJPn8kj+UJVIHZSPci9yCFlsXKkrIT1oNJ2JsNngiAIgiAIhIgiQRAEQRAEQkSRIAiCIAgCIaJIEARBEASBEFEkCIIgCIJAiCgSBEEQBEEgRBRtJBq60f+VMDr0qhvvvf2I7Cq1RRAEQRAEpjpE0f5RJJPJgiWBoZ1AZMyV9vIk4sP9qtP33jmA2IuTuW0TR9BtHS1HQz9ik5MYeeZELp+z8PFDGEokMbpf578Udg0hMTGEkF7tfHQUk89GrJWdtC05Cr22LOWudcXsCKLnkz0I3kWfC86rezul3xNEp15fMVsPIj5p3YvqIIJR931M5K5RwbZUkOYu13L3mvOMnihlh3z/yn9n3j0rPBciMrZ02S23vdrJu35dZ4vSxwprwNL1LjScQGK4sCQLKbgn/B1c34ruAX/XOpSxqusF56OwrtVKd5+H+/zLtRGcx9rGZeIcexVtSjWTbzvJFdzzS2H5Nj4yVro8uczL7reCtn01dbvcOQjrT3WIogM98Pv98B9OIos04vzZH0DfcWtz+hSvhxA9lYbRFkLv3k7s+UI3mhaTGH4oZO3buQdjVnaH4MMfR1PmeQx/+p4lj39Z3GLAU6c/E8b7DNRdq1cugeJr1RtWwrdC6PB3YuCH9LngvAb/VQf8nxjAhF5fMWf3YWR6Ef57D8Kvk6442SQG1T30I77gR5dquHTn00JlqDJpSCQFEbfuv38Q5rYSjQ81cAHK03OPtkN/HGnnO3oQ5Tyu7xyca0Y/d3p5x6Yl0IeYOuDKiXYnYOwuFlO1QxbJw/r6T5nw77BKN9qt06jMk/XB/M5lfxeaab/SRNDVlMJI7wpKct5V9t10l45PIUVHbnd3RDvb0byQWJu6vhzO+fA1B6wOcX87cFSf42E6O3Wv2VaDgKrrZE/TBoJFwpE75QDlIfsj+wxTmdj259hkzWLV1YA5qK/HWgIrueerJoa+gB89B/TqWnG8D4Gavw9CKWpo+GwO8cdSeJ0+eT/wL3Ajd/jZDCbPzqmtxYRwZ0s95n4ygqROKcdNTTEkXmZvZZIabys2w15M4sQoJiidPRgviYLRF7VX8zJ5EF/vhpejEtt9gMePfvICT5xIoL/NAzQGKV9h59uBge9ob4+jQN+kY+otxbivtQ/dj47q86MlMYpD9/KeHeh/cgKTOn30K5RkR0kKzosbZ3U92hMreS2Ubl1zDPFJa9vEn1nnGD8+g0xDK7o/rHavIuj86rMwz/Fnq/Hzd8+oLQ7nTGTrvZRTs2BiXn+0CW01kDq58uYtdjaluvTQJsNKWAnsWY4N5aIGTkQjivE5I78jr1G4PLJmYekyacw4nVIEo9tMJMpV2/2twJlCcUn7lBANxcQwRcdt3pqTmKGtzTBn17vraoThMZFhIXagLyfIjmdgqg+8PVcmsd4E0m4bVYTQbqQwznk2k4NjJRbhjiBZwpMFxyiGnHQ7WqGdBpVmt03uNFekhtqPxPCQFclaUbmvEhLF/oV4aRGUF3HLtaHF1+mKtHFdUvUrotowK18uSuOOwhQfJx/3/l2qenMZuSM+Vvmq6LEuGxURGs5FmYuPq8tZ51/uHIQrSw2JoiYEH23FLVjE/PQX8czZNBZv7UbsRRIJn+ssFhgfpryeDDJnMzqhPPXvSuNQdxD7Tmfh2/ZpMmELz7t/hdHPsgdTh+jnO2HMDyPkp3wvmLjlY3sQfb2HvOO0jiIEcM89AfL6qLtUHmO+F+GPDiDomcS+e6jj/mICaA9hgIe5SuK61nfasOcuA/NPhuC/Zx8mFm7B7Z+PInzfpxH80NtI0Pmxl9XzmN6V4cib67zyveRw6WvZZW31eN5CfLcfoafn4PlwF8INlPiTGbye9aLxY1aeK44Se9yo9KN5bmTpKAB7dGcMnT8MnCzscKnzaYLVga2QyA4/QJ1/rJcEd30pAVyGxmYnapCLcFGn+EZ+R15beODfazXw/e4Ij9O5UZkftesCdw4BmEf7ioSpTaTF0CJ3GXZ6YSjng78j12mxYEVTu67DEXS1mS5BVmGc8+EoUHEUgSM/xtwU2d88zKwPrXaHSELQ5zFIKrngCBcylq1SfWZ7sR0cBxIvYYzoSIs7CuqjfXW6jt6FhsNUV+zIjHVukTGuP3ZaHGZb2Dm+p83ADKdzBG6NibT4kC4nVFUEhs+Hzx0IsFAriJRx1Ccylou0ORFaKv/WWXtfuu7CCGzZ8tLQ9mC9HREegVnPUrRAaKvI40zBvaU6YMxYxz2chLEt/3u5nI0ztI3LcrlzEK44NSGKfNu5oYkhcuctMM8OI3IMmKSGojsSw+QvDdy++yBGdFTD4dYbyVTfxls/0etLkH6FxMaFDCZe+SmyrsYpO5fAyGv0YWcbGq/PInV6BHPUUE189TTm/r4O3t9f+QydO5u8qLs5gH2xSUxGqXF82wOjRW90UXit09c0oi6bQuIY1cwLE9j34zksXu9F62/RmSx6ETgcKy0Ky7HMtWTPTalrnvsWR6oMeLdyagyZBeCm+lXPSKoMrqGsEWpilpyLQI1QskU3WP4EjL0lGqES0aMiHCGWVENmlpero1OHTQQofdk5EfO5YZzorGuQ75ypIwi1iGv47ChJbjsC5nRuI8BuyyO2Ooflhq11hIXhe6dFhs8WHEXH5/JPodm+r8ddQ2gsNuYLO7AK4hrOm2nJjwJwdKDfSOTs5ih1nqqu08JDvtliGzRdUTdrOJLtl/LbEQoSF562fl1G/fBT2+VVoiaNhC1OD8yo4WQlFilv7pwiaG105aNSGp8GjM3WWnZ6fJ3KzRXxcSIven07XZ9BrbG6p1T/9HaG649ve4FIpPJ3hsn4uguEZvnyslBizYlSshiyhng5kmdqoV068kh1wI4087lSW2nTTLbPw4T2eS13DsKVpyZEkTXPhpZ/3oHgQ9RB6/TMC4PY0x3AntMLqOeohk6vPFn85qL+uAqyf3EEHR/tcJbQn+oNLgqv9S2d7vD3vyGpR/x8EKHdh/B8ug5tnyVR+E3ynC6JS7uWaiE/MlBMvlcaxcy8y0NfDS4hVuQ9qw56EKmmnKd9VeIWJA5W52J86AQC1ENZoj+phpn585LDB/ZcQ57jZQuOUvO2+HudKUo5zz7/3q8vqtNuyXXyKjrgthu3qDtpwljQUaEliaKH8sdJltvl5rQXallCcOrvY7F2pSdqz5tkD5vsGmtdk4psEywenblGag4oo52P2VZlO+ralW1YgrvUAw7lWHF55UHtxgLbtWtIc0VwpClrCTsXl3YOwnpRQ8NnZfhgB1rfUwdcXNQVSHP+V7R+HW5ai3kwZzkq40Hz7WE0wYvOR7uwxbOA1Gk9bfnam1DPw0w2199U9NTYbGYBntuC6L9zxTEdReIvM1j0NCOwqwlo6MTBri3wLKRwmidTvzaGaO8exGazqPeWCDsVnhez3LWUhOfuAG/9ctXTtCsOe25QQxKl4QbY7pyoeyLv2J6D5KK+YOhivdlsYBWzk6oXNeSTwlReI8/Dkx6Yr9yTEwG08DAzdw7FE2AvwXPmOSrIRVosoRwmEeaey7S+2IKMO3ke0ik/iTiEod109iXEm1HQmRaibLtgqGY5OOIUn+cythwENTyl4KFGrGzo8jJRkZe8qFWORoNs5Q2rrLhu582l0tMCcoKKxdIgkmQzqqQaWx2xx0OVhVHC5corv62w7NYmOmuieUcXDLN8W1NMFqmj/AhH0IkiX8o9E9aXGhVF3TjyA8vjTH73CMK3ZpE8PoxBvVWh58F42/X65XBhEANPTCL7gV7EknEcvNNA+rmD2HOKtr0wg/T/owmhEwkM3ccN8gwW6m/HkQJvLP74MZxe8CEUjVvn/YMSPyFQgszhAQyfzaLpgRiSJw6i891pjD22B/H7jmBChWDj6L3VxOnvkdfkpuC8HJa6lnKo+VkLyEzr9SuNaygrbx5LCXLzfjh/EMZ04RwkK7JwKSFs94TJFc1vKkNoE5A6u/KmtrrIzSlK7iVJdJQjOa4hEVUuueGD5eDOxx7CyRFFT2F0zhlao2U71S93BElFrDzwrOfQGePMKbKGWPmauZO3o2PWYg355GynTPmoa9CTr93XSot97FgvdbhqrpHetkTExG2r1EUrO4128zwieyiH5+isV9SCo0NxwF0ufA/pHkdP5oYVw4ZpObruydeUj4f8chOiufz0UB+p4ladj9uFwQKbWa688tuKMIwFl5t9YAZmowHzEuopC9GEQeVM34dV3DPhynCNz+d7R3+uCHR8pNOu+RPrSHBwAhHvn6OPKsdyT6AJ5VHl2JBE3z37KlaOV9JOuNEd3TqFniXEVeUgAZHwYvwSHuevFFf0XnB5jKFYBF0hrmRZhIZH0X62p2aGV650HU7syCBQZDfVV7+Ey6PSdlb7w2dLEH/8ecx5A/js/asbshJcbD2IcFsdkt+rnCC64hzvwwx5ckvOb6kQ6imaokfQr2aiGDcDy09avwqI9c6UfjBAWBFWNEnql7A6NnSkSKgdxE6qB7kXOaQsVo6UlbAeVNrONnSkSBAEQRAEYaWIKBIEQRAEQSBEFAmCIAiCIBAiigRBEARBEAgRRYIgCIIgCISIIkEQBEEQBEJEkSAIgiAIAiGiSBCEKoR/2brMzxbyrxeX23aFyb1+wlrW70coQxhK8A892v8FQbgURBQJglBbHO/DiBm4Ir9AXh4WI8ncG971Uv5FsJUihr6jJgJVKhoFodoRUSQIwiXjftGoEin7R/PESmTMegGq+r/f9WJPu9Om/InhiBIU1nEKohz8MlR3B6/X+U3rcN5oXgXwm/oX4qVFkIpsDVnXqF4Aagkou9ycaFKZsrPKaCj3kl2nPFwv3k10wdCpLBoTyL0xXhCElSOiSBCES4M6+zC/jVxHRZZ+E74H/m3AiMo7qN5GbgsAT1sAOGodY3DaQNAtgg6MU95cBx9pMZA8yS/9nIfpSr/SRFp8SM8u8RLbxmbrGgN9aByz3oxvRZP4TfVhS/wsgafNwIxTdgEtNIMwpvVxjpowPDozMW8aaK2qSJog1AYiigRBuDSOTyEFP/rdIqYsWSSP2i/mjGFqLgtjkxUhyU6POG+Cj51NIVvvRW4mDue1O/gIWutTmFJ5Y8gs8P9qxBXBsctmPqGvka6hMY2EE1GKYnwaMDbr1TJkp8cpJ8PlYdL/guPwvchaH5nYG5xHEITVIqJIEIRLJIa+gB/+2VYlACo1x4eFksFDZftbYcxN0bdWH/NmTuSx0Onh6M0peTmqINQaIooEQbg8DvQoAWCLAp8912fnEAKN1kcePmveaouGCLragNRZS954mtqdyFBkhx8oFD4cBalvxWiL4ezDE5u99fpjFcBznMy2/hUIwyhm5n0IOE+lWWVhnrPWSpddKeZhZn25IbKd7Wh2DZ+FNjkzjARBWAUiigRBuDR4ArE9TLQd1lCOmgMUtNJ2k/CZ13mRhWmErfRkEDgVcIbMsgsGwvo4QZSarGwNoflgD0ExjTAWZvSQUjXA0aE4sF2XBy9UJvHu4jOMdvM8ov7isihbdqXgp8ySMOzv222QSNKbiEbDxMySc7wEQSjFNT6f7x39uSLQ8ZFOSxhZWBqxk+qhEveCn6TynswJIQd+smrT+LKPrvPv/7TO5iZz81NvXW8ElpncffnUpF2yWN2RQaCEIKskUoeF9aDSdiaRIkEQqhd+BD9pRZAcAaSfehuXSEgJQhja3YyUekJPEITVIpEioSoQO6ke5F7kkLJYOVJWwnpQaTuTSJEgCIIgCAIhokgQBEEQBIEQUSQIgiAIgkCIKBIEQRAEQSBEFAmCIAiCIBDr8vSZIAiCIAjCWlDJp8/kkXyhKhA7qR7kXuSQslg5UlbCelBpO5PhM0EQBEEQBEJEkSAIgiAIAiGiSBAEQRAEgRBRJAiCIAiCQIgoEgRBEARBIEQUCYIgCBuYCEaTSSTHInpdEMojokgQBEHYuOz3wjzsx6DpJXkkCEtTVaKo6b6DGH1xEklW9bRMnjiETq3yR/frTPtHne25JYGhnXp7VeJF/zOTmBzppU/EB7tx8NkEJl/W5z8Zx6G7VMbVsXMIieToJVX0zkdHMflsLTYR2uuzl8QQQio9hKFEqfQCuMxc2yJjrn20HUXGXPZU0t4Ky5zOqdz3KfjcLu0+VTuq/Ao9cCqzxHB+aeSVqbLbaq+zq0Rdk8tGnDJx26X7mt12XM42OI+1LTSc0HmXyl9LFNTjSl7TgQyMvUn0GxlEeZ3vlUSNhDJUjSjy3j+E4Yc7YSwkMPzVfdj3+AiSC4Chtzsc6IHf74f/cBJZpBHnz/4A+o7r7dXI9gF8/NbX8fy3h5FpoEbyWwPofJ+JxBN0nV89hJFputB367zrhPE+A3XX6pVaI5vEoLrvfsQX/OiyBfNCLt0f6ENMJ7uJ7GhG6ihvszqrgDlo5VdLCTuy7c0fR9r53h6rcV0xMfQdNRHYkA1xmv6COaelFNQJBepTmNJlG9raTPcQ8O/YYOUxH9e2MohkfcASQPvbgaPavg6n0LybxTPbXhA4ZaUPThsIlrCN0HCA8pCtUfmFm1I52161/VUbLIhy16+WU0CwYsIoih7+ju7aLjVhfagSUeRH7w4/PBcmsO9T+zDywwlMPDeMPQ8MlOzYVoYX3V8nj1VHYxJ/1q3SQt+MOxGaxHcG0MFZORqQiCMW11GqCWq4Gij3vYcwant5Lw5BHeFejmbptJcTGP16t4r+sMecODGKCTp2oZccuqsV9eenMfITutLPdcPvyWDiqz3Y95/oOn84huH+MAaowyh3bGztx5B9bi9PYuLJfuu83dxF+9rnSvuO7PVr73UCse9oL3OSGp2tltfZ3+YBGoOUXsteZwje+izMc3p1WSJoRcISPvu74F+II9B76RZWEhUlGcp5wXZnd7yPvrm1hsu6HAbM2SSM7eXtiEWQecYWqSG0N5FDEEgg3bgRy4NphOExkWE7O9CXE9rHMzDVB96exswBtYJYL5VFPbVN1qqGyslIYZzzbDZAtbUk7giSJUytqOSQk25Hp9wRK/teudNc7Zbbhisg5Fns+UhA9ujrV5DzweIw8PwL+d/pRB1LnL+K+AxZ6Ykf4oW8tkxHb1UbWLCfG277nTJyRa/syG+Fy0KoPqpEFN2JJhIhmdlhTOqUyyeM7o8ZmH8yqDyRwL8dA3ZF0fuhBRz7LHkN9wwi1dCN3r06u8eDt8bD8H8mhrl3+dH1WS/C994O4/wwguxl/EkfxuiY0c93wpgfRsgfxL4XTNzysT2I7tKHePevMErHzu9o/Wj1epD52WlkaO3OzSRzMjMYPmttzVHu2H4c3BuC/2IC++7xI/Tkq6j7UAgDURI9bhYm8cyAda17/tsiWu78NDrVBg/q5g8heM8+nDZ9COwMUSMcoAaIXHXl2dag1+nxo181Xv1onhvRnQ51NI12umu41c3+VhjmvPoYafEhPVuZK/e0GZhhm3FHDIh500DrUhGVWuVcH0bKRDu4M2MRZAsA7GxH88IM2VwUM/O+jVUeyslg++MoSHG9YjFgzE2ROJyHmXVdO9mlz2OQBbvgcqIWQ7UkJBg4ItpfOORIHXYYI1akhWzN3GZ3+j7aV6efMlVELjQcprpiR0Wtc4uMcf2x0+Iw28LO8R0brkB0pdHwlKx7sTdMeH6VzRPLkRYDqbMxOtewK+Lmiro2Nlvpgbtw1m1PXNe5rMkZCajro+UUEHA7rCyYtpkYVBFiFl2tut7ScsZAWOetZFkI1UdVzSl6+yLLhrViFpkFD1o+fQRDX+lGE6WE2hpRd30Tdj0xiclYL7ZcuwgPCSNFNoWpY3PAaySW/o78300BzGYW4GkJ4chwBN0fpDw729B4fRap0yOYowZr4qunMff3dfD+viU/snMJjLymPrpowo3k5r39D0lrlYesLr6tBFIeZY+9SwnG9Cv7MHEBmDv2FKZpZ6+vXe+oecuLjodHkHhpEoc+Ug/U1emhx9cx89UJZC5MYCaThcfIa3prE9fw2Qh1C5YnqUPkaokD20vPWTHfWOPIUAmy0+O6Q4xhas6KDTDc6G9UYr0jeQLQYX8Xdbx2eVAd5KiR7hCjs2n4WjaQ9+0Mn/kx05IvzFV01khoh4mHUzm6Zgn4ZAvV76xJUikfUwt4JtrNx02ouTF2xIKFvaetXwuxfvhJWHlV+aeRsB2zAzO0Rt94NgVQ3tw5RdDa6MpHd2h8mtq9zdZazobXm1foPGzngc5RDbvyuXrg52vna93rh8eOrM3ryC8RPUllqu3JFlPqsz1vcDuVl93+ka0m9hpI2MPsLEI9PgRVWebnvXJlIVwJqkQUzcH8Jfk3TQPWcNElURhejWPPA/vIg13E++8awMgz/biJs80/j46PdjhL8KExtXcp4g+Fse+paSz6Po6BozH0F837yeI3F/XHFTL3ZhZoaMYACZ2lKXfs10k86o8u+iO96Hj7eXwpRNf1w6vnpYyqsW9qtxpIB45C6I9lmDezJHzz9xIuB+7o7TkzOdydE3dyXW0e+GwxQB0PNugQmlvwcaesIjruSIM7gnHShLGgo0JLYgn/uGsOV9o9L2epuZX6+1isXekh83J1L7TJQJaEINdpJW72twLOsKs9f1QvpeYMHp9Cqp7tKTdMzmLUmTeo5qG6sUWkxuVsqUUiQ1clVSKKxvDUmTQWPxDEyPAAuu/qROfH/KsUSNQoB2yD1qHrCxMYHgih/8cZ1L2vCYvnM9QI+3HoPo4brYQMJr49gNDeBDJ1XjRdnENm0YPm28NoorPrfLQLWzwLSJ2e0PlLMYdfUU287l3WcNfY0wmkLzYh+MQQBu6j67zrdvhZIJ0td+znkVkgwfihg+ikfE27IuhoWMTcdL6Y89RRnc5m8PqFDuqIbtGpy3D9TcVzk2oMNWlXDUm42DmEQKOe01GA3RjzPA4zz3PmBnS0ZHRpreBGf0NDHe/IXDPC2/R18n2w53AxPEzkiqbwouaRuIc0Ngj28Cx3yq2zhUPqbsiZ2+13omdujGWiuiwufNvyRehycMQpPs9iwBq+zJU9C1asYn7epVOq7vFQYH+baUWutLgZbYEedrWGG5e3E47MGmgdIzGly5OH6uzoMLcVztysBRJLPPF9rxaIPN/L43poQ7hqqZrhs+Rje3CEIxy3dWPg0YM4+PUhjMWPqMnNjONd0pJXmcoygFE9oTr2seswe+oZHH18GLHZ63D7wzHrWJMxylWegWf1dz4VwHWvxPHMtwcx8MQksh/oRSwZx8E7DaSfO4g9p/QOJUmqYSvv7+nhrp9EsefwBPk9W9D9MF3no4cw9GwcR9rLHTuOPY+NYc7TiYMn6Foe2ILs2WEMHM4fgHthahZ1bQOIv3wQzYv5/lApYmdnsFB/O45cYa/xknDmFCXR35TCCDek7gmVe5uROlw8p4OHEkyno2Gvm4fZ9D60hDGuO3BXqJ6Wldnb8jQarrk1GxQeRkvprsc9VMaUmsdVOtJXozhzipIIwppIzJ2yu+2yJ/XmJkhb83ryJh0zLAzIOVLloiYD545hH5vnBlpzjfS2JX4Wwj0hO6iFarSb5xHZw288D2q9nuItrntJNbfHrrOWuPGB555Z630B97kWP8xio6JMVMXteqaG1PT3hKn+5bWMHD3j+Um0bXQ/ndNh15CmStP5hKuKa3w+3zv6c0Wg4yOdvnqGc0qy/QgmvuLFn/dTpf+JThPyWC87iYyNAt0lBFOlYdG2I4NADYTk1+Ze8NM/XoyX+WmEWuFKtl8cuWw/27NOQuXykbZeWA8qbWdVNdF6w3LqEJ4/fwsC/zp0GXOmhLUgepI8wyV/aLES8BBJM1Inq18QrR3kede4ILrSxHpnYNjDO4IgrAsSKRKqArGT6kHuRQ4pi5UjZSWsB5W2M4kUCYIgCIIgECKKBEEQBEEQCBFFgiAIgiAIhIgiQRAEQRAEQkSRIAiCIAgCIaJIEARBEASBEFEkCIIgCIJAVIcoKvgZe2sp/Zbzy2LrQcQnK3BcQRAEwnkju17KvY5i7eEXYvMPPdr/qxhq74vKhfuAZX5UtdLvJnQodX7lWE3edYZf7SKvKlk91SGKDvRYL4hUbzG234ZcgffwnLXemu+/9yCs17MKgiCsBSxGkrk3suul/ItgK0UMfUdNBMZq7HewuQ8o+wvoltD7mF4ThEpS1cNn3vuPIP6S9rpejGFgKyUqjyKOWHxSpU8+G0E3pU3yy19fnsDQ/fwiDauBig8PYUK/FDbxnQH1Rvj48RlkGlrR/WH+BkEQhDVgfxf8C/HSIojfezc2pNokKxpitU9F0SRqx9yefWRMR7VVNGIIozp/0hE8kVxaoguGTuUXnSbQWhOvB7FeVDuKCJXRqBNxyS8ffmmucaYHP9ZbFdwP6O2q/HjdLQRVmVFJu16E6+RzrxPuPIWRFef8eKXUd273wcMvqrWjXCWOr+7jsE5X+XL3zf4+lWe/66XWrmspPj9LJA6pdLYRlx24Xjjc36ZfRszHovNa1rZqTUhXiCoWRWFEd7di4bsh8riCGDznRfeD/dYmjwdvfa8bwT9NIntrEAMfmsPB7hBicx74PxG28hDemxdwpNuP0BOz6u37vQ+TYPrJDF7PetEobocgCGtEpMWH9OwS77ZrbAaO+lU0pHHMejO+FU3it7+Hlx0W8rQZmFH5B5GsD6j8kbEgjGl9nKMmDI/OTMybBloLOviqgzrkfiNB55//guaIu3zU6EEW5jm9kWGR2TJjbaclYVD5nZtBujEnBCMtBlJnY4j1Blz5SLw4+w0i1UT7PT6EcFMKgzpPj367vsJ9fiW/swf+U2lk+R5wlKtUHnVfqV8yrPTBuWb0J1ute8lv5d9mDxlSnm3AiNqX73HQEjF0DmGM6GMOwtxmD4360KzSeUQlih61nY+ZQvOOiLruweks0qcobZmXUDu2VQMvq14PqlcU7WxD4/UeNH1mBJMvjaH3tuuweKMP3bwtm8LU0xlkvjeFn2aB9Cv7MHFhDoPnXwfe59VGZqcDc8cSSFE+760BSo0hswDcVN9pZRIEQVhTXJ677X3PJ/R0gAhaG9NIOBGlKManAWOzXi1DdnpcC4cYpuZM+l9wnONTqo2zib3BeaoYEiTJbSYGizpi13WxyNgNJKh8mrfarToQ2toMT2NQR0aSCDZ6qPy4HG0hSMeopz6Cy5tERS4frTv79cNPzrXxFpUb/OgvjJIUnF/p71SbHMrnySKpXwbN98W5l3zPqC+yoDxH7eFDvsdZGJtCSmyrSJRzzga8Smi5bciKDKk8e/3w1Of6wJWQsy2BqerhM77xz3+0Ax32EtyDMb3lkrj4tv4gCIKwdsybVidmoT33U/Jy1HJwUCtLHTzrlJJoQTQS6MO8TnKjojN2dIQWjvDEzqZgtJC42d8KnGGBQeJ0O/QcVX8ucpK3Xwx9Afo826pEhT3EVOr8Sn1nISvJs1ryz7nEXFsnosXb49RrCpdD9Yqis/PIXPTBf6gbTTpptdzSZM0j6ni4E1s8i5j/C5ZUIXjrgbd+OaHyCIIgXC6x3gRM8ujd8zZKE8XMvA8BPd+EoxpdbXCGh3zcqTMkCgJlFQMzDzPryw2R7WxHs2v4LLTJmWFUlWTnRhA4BQSLnjizyieoBRELGy4fHgqz4WiLp62LthTAkZf6Voy2ADO2GMmaWlTxcTzwOcNVBfBEbxKxtrAtPL+y3+liJXnK43FFw3LXzGK77Dlr+F5nTS0dSRD6rE9FrNy2rm6qVxRdOITh47O47iMDiHFY8OVJxL6kt62QbF0bDr2cxJF7fTDPDiNyjBI/3IpbPAvITFt5BEEQLh+ODsUBntiqhjpo4ShFiXka0W6eR2QPiQSBU9r7PzCu5pKodBIFqVIhEgd+yiwJw/6+3QaJJL2JaDTMnDCoVliInDHQz5OD/1CnaacVHj+lF5SPDe03OG0gqLbzYs+z4WEng0TBjB4OimJczeHhPNY8HmtOj96PBQ9HpOx1ul/uIam88ztX5jsPzFj3ko9V9rxWQhamEdb75a6Z5wbFF+yyoKVIRHIeS5Cr7SQI7UiRipzZE61XZVtXN9f4fL539OeKQMdHOr3eAT2enc9PLBSHL4ODE4g0JNF3zz4kdZpw5bkydiKUQu5FjposC+7od2QQWOeJs5dTVjwnpuuNAMY3Wf/XYtipluCnwbwnSwyNCUVUuk5W+ZyiNWbrQYTb6pD8nggiQRA2IuQQ7m5GSk/srXp0pKa/KYVxEkIcGbnaBJFQXWzQSJFQa4idVA9yL3JIWawcKSthPai0nV1dkSJBEARBEIQyiCgSBEEQBEEgRBQJgiAIgiAQIooEQRAEQRAIEUWCIAiCIAjEujx9JgiCIAiCsBZU8ukzeSRfqArETqoHuRc5pCxWjpSVsB5U2s5k+EwQBEEQBIEQUSQIgiAIgkCIKBIEQRAEQSBEFAmCIAiCIBAiigRBEARBEAgRRYIgCEIVEsJQIolkYog+CetBaDiBZDKBoZ064SpERJGg8N7bj8iuDr0mCIJwhdnZDpzxw38GaL+KO+n1I4R2JOD3J4CtV68MrRpRpBRqnkfgx8ET5CUkJ3DkLl6PYDTJ6/lLYrjKb972I5h4OY5DW+kKxuicxyJ6Q2k6Hx3F5LNL58H+0cvwngrL1aJ7ew+C9wTRqderlwI7cMohP310v0oktLep0st7QHxveB+2w9y+jLW/bWeWJ5X7HrUU3oudQ0gsdZ+X215DlLRpss/CehkZc5U9X/9G80bVNblswimTcvbnttdRWisF57G25dtdufw1whL3P8+ejk8B22h9GzB13EoKDY9eot3wfajWcqP7XBXRsBimECD7CgBnYzrt6qN6I0Uf7kJrwwIWFurR/DHuqqPo8ZPX4B9EMgukT/FnPwK91XzzvBj4VAfq/mIMA2d10jIY7zNQd61eqQRF5Wox+K864P/EACb0elWTTWJQ2YIf8QU/upSIse2DlsNJGNt1A7ifvM2jdnoKzbtLND7USAcQR88Bve6GvNVmkMG1danjxXoDzndk5+PW50AfNSer4HgfRsxAgfiqVdL0F1z6Wrh861O5jm1rM91Dkuc7arprL8a2B26j6gNW513S/riDDgK6DRucNhAsIZJDw9Q5nepBlMov3JRybN7vpzSdp1Yx6f43F0UjImht1B8VMfQF6HpXW7+ES8Zq3wLo03X1aqRqRZH/k63wLqQw+r8WUH9bJzW7q2BrP0Z+MJnvVW0dQOxF7Wm9FMeR+73aY5lA7DvaC5ukvFvL7I8O9A/HMfmydYzJH4ygn/PqY4w+y/kLPJGGMNo+sICZHxZWact7nHgmhoQ63iR1Kh3KG+xv8wCNQedYYUpzvjN+qKBD91oepDpv+vzN3PklvjNAZ1xMuXJlD83y7vW5jY1iko5T3R13CN76LMxzetXN/IzVcRzoy1Xw4xmY+qOb0FYDqZOluxnuwM0zASTmfWi9hLJQERLybi1bypVnrDcBtBR3hLWHAXPWJUJLYJWh3bGF0N5kIhFIIN3YWnaf2qYRhsdEhu2upP3x9jRmtAhnW0jXU/21VjVUTkYK45xnswFqFUrijiBZtmVFRIacdDsiY9VrK82+V+40V9RdRfqGrEhWpSKacwmkmixHw0aJwGlyNtSaO5JWJqrIEfOCc3fXt1zbxdfZD7/Hh6CTXqI8uC0fG3LSOZ9TvnYkR+WJWBEtta/73FznbOcvKMvcfvY58z5B+Dx+9Ktj0XnROeg74Xyfdb72fbW+c+X33o2VJ1Ky7ArP7eqkSkVRJz79B14s/K8JjPw4hYX6Zty+XW9aAd33BdHydgIhx6vy4+DeIDxT+xCktD1nSOJ8ekAPFXlQN38IwXv24bTpQ4CMsnh/EhPRAYT+AEh8NQj/Z4bxal0LQnsP0pGZelw3d5COXeDB3fV+3PL3Gcyd0usFeOrSONQdxL7TJnzbPg2QSh+cpiZBeZzWseZ+OIjwP6fzuCeG9LtvR+dea1/F/RGE6ZyST+xB9ANR9H5oAcc+y3kHkWroRq87r2Ll5Vp/7RwO3uMvHT250qgGhCtvP5rnRpxOx2kkdgMj3cUihxtdY26qwOvkThpWB1aE1YFz5xWdTcN3SSLGA78xQ/eT7gtHsLbZDd48zPoNIgrO9WGkTLTDXYYKjrwtsGCNYuYShWbVopwZtkuOAhVHc3L2R/c+67r2/a3UKRoklVyoCGXGstUDPSoianWaaqsFdWxhjFi25R+Euc0WOz7aV6efMlVELjQcproyqPNa5xYZ4/pjp8VhtoWd43vaDMxweol6tBYYBjA1ZyDgdL4RdDWRCHQi6u7IbwrNhVFFFgstul7RkjDsc8/Vt1zbxREnHmFII67TI2NhVwTPRMC23cZmnR4Htied8s1FpDlPEK2zel8uXyf612qVGS9nDHJorWtzl2W0W2+n+2WJQr7OONIq+r1chMa+r5Rv88rvfTEkDp2yy9334nO7OqlOUbS9E831Wfx0egL44WmkFurRetfKlevk+QwWG0hgfOcQeu/0UsqdaGqoow5pH8ZemsShbQYW32WgVeV+HTNfnUDmwgRmMll4jMYS+9MRmuj/hST2vZABXhvBU9P03+tDu9qaRpKPoT67uPlG1F38jfZ8inl9dh8mLmQw8crryBY2igovPLfdiUMvTmLy2RCargfqbJfx2maEH9wC84f70Pd0BqG2RtRd34RdT1DeWC+2XLsIDwmjPFZRrulX+Nz0SrXhGj4boabB9mqcoa2jQLggaseCqd9IlB5uXTCpmyqB04ETB2YuMbKRRdKOQh2fojK3PnJDnXE+1z6x3pHckJGb/V3U8Y47AkFFjWattUsXmlWKM3zmx0yLO1JRaH/USR/l6Jr2zFuovmWLbdA0cylWh5WAsZfy6w480uKjDrdfCzGOhBjwqvJPI2HbOdst/YudTQGUN3dOPFTlykd3aHyaxMpmay07nbtnlYIjZGZTu+UkkDAsdFgcJ2evH56CSBrbkccRoUkEGz363F31rSx87SSeuCwLjz+f0MKEhWuufNhWHeg+O4KLy5fbbm4rdCRKHXM73RvqS5i8slQjC5zHfb9WSu58VnPviyFx6Ihddk502V3WuW0cqlIUBT/WjHpW/MpoI+ioJ7V9W4C6vzIUhAIzh0MIP/48fnp9G8LRERxR0ZAsXh3qQMdH7SWEQ2rnYkrvn8/ri/pDJblrAHvuvQVz3wqjo8OaS+VwMYvs2yT0NvlIOmnmn3ddXweCD43pDRarLtcaQDX2dsNqw+Ijm6vUHBZWXtUqvd7IDmosXd6/j/42VGRjTeGOvnjOVqTFQMqZtBlBV5sHPlsMUMeBDTqE5hZ8Je3veB8CWkD5T5owFnRUaEms6EncNYfLnltpLUtEGvT3sVgrGua/YlCHrCIwIQxtg0ugEdSms4i0ritesnPPTttRLmtZXVTbiho5+6/FvCWXs6aWovYmgtG9BhJ6e7ykJ7ZyVnzvV8TanlstU4WiKIQ7W+rzDf7AJBaub8If79JZCjnQ4+S1IwFzz0XR91AMs9l6eFtnySv3oPmufnQ2qM3Lkr8/MHuB3PoGPw5y5OiDYUTavVg8n0S+7CjgzV9h8drfJhmySq6/yZoP9O461F18G+a5OXjvZ09EbdW8jrGnkuT99eLI/g4kzmeog/Hj0H1Nenshl1CuNYCatFs4JKa8NmtOB3ubHOpeckJ+fakoneVJ5zWcecNflwvPh9IfNwo8gXyuGeFthrVOnmcAtudN8DCRK5rCC08yzg2hbBzYk0/PRldgfyQIdvud6JkbQ0cayjFvZuFbpT1yxCk+zw6DNXyZN3zVhtLz8ypI9CTXqXAuIqsJbTKQtSNlbDfWJ4fYGyY8+uGH1WMNX16y3bmEPA+J+nj+Is8X87iG2Eqx0wvDiQgWTip3Ud/s/ASBcsysj3lcyr3P4XLuuI5SOzdzboXndhVQfaJoVwBbPFmXd0mc4qGeOjR19OqEpekenLA80RO9aFw4jbHvxnHo6GmYjSH9OHoSE98sGFpyUbw/EH/oIMbmPOiMxpH8bi+2/P0khv/dYPGQmZsf/hSvX+9Fk+vR9+WInZ3BQv3tOMLe3PEpTL95C7q/S+Lr3puQLRyHe7oP+069jlu2H0TkzecQm70Otz8cs859MoYBnU2xBuVaNThzipLob0phhDscV7QwubcZqcPWvIlGwxWZUEvh5MMYpuZQHCpWHXh+Q60iUMg1WJdHI4yCjmAjwMNoKd2Mu4fKGFsouCkZ6atV3MM5+mnGcvbnDA2peXGDxVEOZWt6SMdt27TYx+bhYmuukd62xGPdue/j/S2hGu3m+ST2EAzPg7oCTx2RkE6Qv1n4oIMaWrPPjYcXdboDOcLqqT19TctHv7ieW/lH9/McI/e1r3JiMSmHVr0ftz+DKiIURY966tU+n/zhU4W6Vvt+kaftRGOsiJk1Z4zO7YzpDO21mvbE83xWc++LodJUEUNa7Lay7LldfVzj8/ne0Z8rAh0f6XTpkc2NjxcDz8TR+dbg0pEK4craCXlLo1un0LOO94g7qa43AqsM+a8Pa3MvIhhNeDFe449TX0m75N/kaT/bs/5C5RK5Ktp6nnezI4PAKofiqweeEN6FTMByGmuRSttZlT59tlHI4NCzk1hs7cZBfnxfqE7IS5ox3JNQKww1rPy7M+px6w0Lec7y+zKXRax3Bsbeapn/IwhXBxIpEqoCsZPqQe5FDimLlSNlJawHlbYziRQJgiAIgiAQIooEQRAEQRAIEUWCIAiCIAiEiCJBEARBEARCRJEgCIIgCAIhokgQBEEQBIEQUSQIgiAIgkBUhygq+Bl7ayl8HcMasPUg4pMVOK4gCALBL391t2Oren3EZcG/VMw/9Gj/r2K4vV/VaykqSQSjY8uVFpep3SfxL7VXy7kLlaA6RJH9QtfD/J4X+yWcFXgPz9l9GJlehP/eg/DrJEEQhMvH6jgDZv6b29f/9T4x9B01EVi2o7+CcHtfS792vr9LvZ+uIn2SUHVU9fCZ9/4jiL+kva4XYxjgV2UoLyOOWHxSpU8+G0E3pU2+THlensDQ/V7KZDVQ8eEhTHA6e2zfGVBvno8fn0GmoRXdH+ZvEARBWAOo4/QvxEuLIH5f1tiQFW1QUQY78qDbJjuaRO2Y+1UzkTEd1ab0BLVlozp/0hE8kVxaoguGTlUvHkXuTe5VB79rUF2zFdUacl5Wq6/XXV7q2uzIjLvcrGhYZMwdFXNHcdxlQ+XqRM/c6QURn1Ll/zidy3YfPOrlsQkkkkH41AupZcRho1LFoiiM6O5WLHw3RAo9iMFzXnQ/2G9t8njw1ve6EfzTJLK3BjHwoTkc7A4hNueB/xNhKw/hvXkBR7r9CD0xC9zWjd6HSTD9ZAavZ71o/JjOJAiCcJlEWnxIzy7xis3GZuCoX0VIGsesN+Nb0SR+W3t42Q7W02ZgRuUfRLI+oPJHxoIwpvVxjpowPDozMW8aaF2vd/ldFj40Y8S6hlMm/Du0xLHLi9L5bfBddC2h4bCr3JZ+oWm5suF0nLKOu6Jo1f/oQ+BUGll1rAACdL/S2SQGJWq0YaleUbSzDY3Xe9D0mRFMvjSG3tuuw+KNPnTztmwKU09nkPneFH6aBdKv7MPEhTkMnn8deJ/XUf9WOjB3LIEU5fPeGqDUGDILwE31nVYmQRCENcUVjbCjOvMJ3YlG0NqYRsKJKEUxPg0Ym/VqGbLT41oExDA1Z9L/guMcn1JtnE3sDc5TC7iu4cAMrWmc8qISmrVSY2dTQNtKXtxcvmz4WL7tEuURylPVw2dcYZ7/aAc67CW4B2N6yyVx8W39QRAEYe2YN7MwNtnuWBQ9KvIhL0ddU473IUDlOtPCgvMSJ5Or+asjwO4Sw2eCQFSvKDo7j8xFH/yHutGkk1bLLU3WPKKOhzuxxbOI+b9gSRWCtx5465cTKo8gCMLlEutNwFxRFCOKmXkfAs5TaRF0tQHmOWvN16K7+p1DCDRaH0szDzPryw2R7WxHs2v4LLTJmWG04Yh2+xGfN+BV0Z5cGYSGA7TGLF02HG3rCwwiCQOFRbzy8hc2KtUrii4cwvDxWVz3kQHEOAz98iRiX9LbVki2rg2HXk7iyL0+mGeHETlGiR9uxS2eBWSmrTyCIAiXD0eH4sB2PWzGy3Yg3l088yXazfOIeOIu5+M5Lnp+yoFxJOuDVvpuIDVv5S8NP2VG3br9fbsNEgJ6E9FomJg5oFc2CCFnQnYSQVjDa9GTuTIII6WH38qXTe4nE3helz0kqVlR+ZOoXZCJ1huZa3w+3zv6c0Wg4yOdXu8wMj+l0A/jjB89BQ1DcHACkYYk+u7ZR56CUC1cGTsRSiH3IkdNlgU/vbUjg0AJQVZJqrasuDxI5IzU0s8ACGWptJ1V+ZyiNWbrQYTb6pD8nggiQRA2IuQQ7m5G6uT6CqJqI+9HNPcaSIggElbIBo0UCbWG2En1IPcih5TFypGyEtaDStvZ1RUpEgRBEARBKIOIIkEQBEEQBEJEkSAIgiAIAiGiSBAEQRAEgRBRJAiCIAiCQKzL02eCIAiCIAhrQSWfPpNH8oWqQOykepB7kUPKYuVIWQnrQaXtTIbPBEEQBEEQCBFFgiAIgiAIhIgiQRAEQRAEQkSRIAiCIAgCIaJIEARBEASBEFEkCIIgCIJAiCgSBEEQBEEgqkoUNd13EKMvTiKZTKpl8sQhdOptl0pkLInEcEivlWel+Rx2HkL8Jes8R/d34uDYJP3X29w0dGLgOwlMvmzlTSYncOQ+vU24BCIY1fahlsQQ7LsWGk446WXv5c4hJHgf/u8+zlhEZ3ATwlCC769eFYrgelNUdvtHi8o/MpbA0E69osretb4RKGtPlg1Z6e5rdtvxKK2VgvNY29y2XT5/LcDlUXzv+fpK1llVrqu8Xt6nZH1eCVTml7xvIUu1H9K2VCtVI4q89w9h+OFOGAsJDH91H/Y9PoLkAmDo7dVGaGsbvAsTCPn96DlgoL6+Tm/Jp/Pze9B92yKST+xRef3+Tux5Tm8ULo1sEoOqLP2IL/jRxQ0LNYThppSTnjDCJTvdyI5mpI72IcYr83GVVx0HwRKNcgx9Ab6/elUoQZr+gks37nRvAvUpTB23VkNbm+keAv4dtdu1l8Sxp0Ek6wOW/e1vB45aNuY/nELzbhbx3CEGgVNW+uC0gWCJjjg0HKA8PYgW2LbfT2k6T+0Rw9Qc0LzVXddCaG8ykehVtTKf430I1Oz1LtV+SNtSrVSJKPKjd4cfngsT2PepfRj54QQmnhvGngcGEFOewgRGn+UIEnsM1NnZ0aSXJxE/ZFUuFek5EUN80vKmJv4sBK/aommghujFJCap8enY2o+RH9gRKZcXcnOnE/1x9r/rIEZtT+/lBEb2+pVX09/mUVGgWPLP8X/8eT/8tOrbTnkKGjfP9SSWLr6FzE8mQW2Bg/f+I853JV+MYWArJeprjX1He4WTdG6cXup8KW0oniuHiSf70cHp5KUnE3GMTlC6K4qyMaF7VJ+FeY4+Hs/A9BhotDYQJjK6E84RQSsS6CtKB6Kz+hdSVZRjyPLi6V5GxnR5870ZG3K8fhYBjvfulLPb+7e9Ye4ARzGk8rKtuL1k3lbrERMD5mwSxnZXPSqARZB5RgtRumbVAQYSSDe2lt2ntmmE4dH2d6AvZ29so+oDb09jRneIsV4qi3qvtiEbKicjhXHOs9kANS8lcUeQLGHqtrdCO7Rt075X7jRXdLWgDqw1sbMpoKk9d70729G8MEPCp9Q56sgNt2vuc9HRyLwIWqlz5f1UGSx3/cX2q6Kb+7lN1nlcx8/7Xqf+Fx/PaT+W3Eao88zfXtjmbPz2vDqoElF0J5oagMzsMCZ1Sj71uG7uIILKY5jDC98KK48peDwN4yOd6Ne5PJ63EN9NouXpOXg+3IUwHdMm9GXaB0kMPxSF974gWt5O6MhNzgvxvHsR8Qdp/+O8fzd6ef+FSTwzEFTft+e/LaLlzk/D7A2Qd0eurvIM/xj/4o/JM6TVNHt+3fk+zdhz1OBd9KH7qQRGD/WiU51TGNHdrVj4boj2D2LwnBfdDzpXgbr5Qwjesw+nTR8CVJm7i87Xj4N7ad+LCey7h873yVdR96EQBqJ+fQgPfjVG2wN2R7TB8PjRrxqPfjTPjehOJ4qewyYCumFpnS3hXe5vhWHO6xU31GBt88F8wyotT5uBGS7rgnuJxmbt9ccBEsBhjCi7cKJVfA7qHtHCUQEnEuJDs8pLtvIjM+clq86gtEirKc71YaRMtIPLlkWQLQByHWAUM/M+tC4VYao1GoO6U+MoULH9ceTHmJuiOjkPM+u6drJLX56gJ7ickLHq74EeZWP9hUOO1JHaNsjRKXOb3cna9kbpp0wVkQsNh6muDOq81rlFxrj+2GlxmG256GrZOrAWHJ8C1Q606++KkENszkbpfMKuqBrVZbc9HZjJE9GRFgOpszESlAF9/hzt1dE5GxYV20wM+gOY2lrq+pf4PoUH/m3AiNqHo386Ikrl3u+K3PG9CSuBVvwdNkttU+e5HYjr4+VFDp02x93OCJWkquYUvX0xoz8VkkbyqxPURBANHjTddQiJlyYxtrMJddfWOV5U9twURl4D5r6VwuvkwXo5ykJctzmM3lYTcfLaYheAyfMZLDaQsPnOIfTemYsnZecS1v7Uob1OR63n/d/youPhEfV9hz5SD9TVrW5I7yx1lJ/ah9hPTBJwYRx8ktR+Xxsar6fr+MwIJl8aQ+9t12HxRhJOaofXMcPXemECM5ksPEZjifO1RGT6lX2YoOuZO/YUpqlwvL52dQRkU0gcc8elNhiu4bMR6haUh8sNy+5cA2ZuKx2BsYWPwunErM7BDmVnp8eLOjTFvC1guFNLO+F+J8pEOB7kXj88jvefy8uNu6m9ZBVBoc5gIxDrHckNGbnZ30VlmytP9zVzuflaCjuiGsY1HDvTkj9fhO2i30ggoOwghr6jHF2zBHyyhSwka5JV5WO6BHy0m4+bgLGX8usOM9LiI/HS79iwn4SVV5V/vr2xdaroDOXNnVMErY2ufHSHxqcBY7O1VrYOrAnuITTrPGYO8H8SIXx9RfWH4fMztJCkvM5wbC46G6T97fMH2WJir4GEdgxLX/9S38dkkbSH2tU5Z2FsCqlyTzuRTzqzk0kquMYS35FjqW1qONlV3nmRQ6fNseqLUHmqRBTNwfwl+TdNA/lDXiXo3LsH3d45DD7YgY5vJXlqwrK8nc3i7TpqMBqto2cOhxB+/Hn89Po2hKMjOEIqvRz9kV50vP08vhSi7/vhJRolCZzB/h4EvngaC/Wk9ts4MY3nP0rHtJfgHoypzMUsf76vk6DUH68y7FD8N7lhUV64Si0xb6EErk7M6qwuE/YgqeOzjhlXnVExUcwssJdcEEGpebijt+fM5LA9er1Gtu+xhpm5I9ruI2G6MYfQ3IKPh/ZVRMcddVFzZSzb858kh2lBR4WWxIpE8vw3u3NV0Wn7OP5A+aij/j4Wa6WGitYbu96GOEo2z5FDJu1ES9RSEOnmfQwuU9oHSpTwkFQA5mErv4re52GLRKLk9S/9fatmqTKusvIXylMlomgMT51JY/EDQYwMD6D7rk50fsxfUiAZ76oD/sFE6jVS0tQRlhtrz+PNMYyQF+R/8Ig1R4eYey6KvodimM3Ww0t1rBwe+rpsNoPXL3RQA3+LTi3NTTeqWT1laEJHqwGejr04P4/MRR/8h7opdWXkn+8sMgskIj90UA3HNe2KoKNhEXPT5WTVxkV5WSSGHnrDhMeZp8CCw5MfFdKwp1cpQpsMZG3vnht761MR0VkTzTu69DDSBoIa/pG5ZoS36VjqziGQv57rqFUHmBOiVkdmIFA0wb32UdGE2aiKELXOLiW6qWPfbQ0fFWIYeQNqRcybWfi2rW6eCUec4vMsFqzhy1zZs2CFNT9vPdBDaOFtVjlZ0Vf3+ZSA96lvxWgLtDPhmrul67zDQgIBHsLemy9Acte/gu+j3iXnWFnlwwJfCV5XufPwHwqietZ36AQXpbZZUaQu5zx5mNW3IpEsVIKqGT5LPrYHRzgSc1s3Bh49iINfH8JY/IgeUsoROzuNTEM3YskxdN+UXVGkiIn17kM8cwuC+4fwjW9PWJ7qiV40LpzG2Hd1phK8MDWLurYBxF8+iObFct8Ww9TsAupvP4Lks/k+QPc39XclYzhyfyOy0zEMHziE4eOzuO4jA3QdtO3lScS+pHcoQfdg4fnGseexMcx5OnHwRBKxB7Yge3YYA4fLDT9uMJw5RUk1tj/CHY4z74LT++FfiBc/2cFDV8t0NJcDh71NeziDh0R0ehF8Ho0GUic3lCRS8DBaSrsq7qEyxhYKbpyIgV6vaZzh2CSCsOyv0XBFxtRiDevmJurmD906KNGgh1DyJuHmjs3zaXI2T8sSE3HdE4ODWqhGu3kekT38xvOglog0rTlWNNfjTDjnp7Hc51PqZzV4H4OcDduZsIbUgip/GMZCQfvM0Rk9z/CF5wuvfyXfl6X2Iqy3u8onr62x7geL3lJlbLPUNuVMONdhtWmDlZjLJayIa3w+3zv6c0Wg4yOdlrFQYWnWy074iQ90F0x0XG/s+U9VOhF+be5FBKMJL8ZrfLL/lWy/QsOjaD/bs45C5fLYaG09P33mPVkpobgx6seVoNJ2VlUTrQWh0kRPkud4xR5t1Y/l7nX9VtKGJYoeafAvi1jvDIyC4R+h9lE/eMqRJ9dkbaF6kEiRUBWInVQPci9ySFmsHCkrYT2otJ1JpEgQBEEQBIEQUSQIgiAIgkCIKBIEQRAEQSBEFAmCIAiCIBAiigRBEARBEAgRRYIgCIIgCISIIkEQBEEQBEJEkVBD6B8/1D+Hby/5P89v5Sn1Nuo1gX+NWr+lXBAKsX6Yr5xtVhK2e/6hR/u/IAiXgogioYbg9xXZLxLNOm8Iz3/ZppWn6F1SawW/p8gMVE50CTWKJcYD5mDeC2/Lvwi2UpD9HzUREOEuCJeEiCKh9tk/Sh75EEbZO6fOgN9vZncJ7hcxjlK67bmXS1fvJNLpzgs2C47PL35Fi3Q6gov9XeolxCVFkIouDllRTmVT+RFPx/bIztxim9+9xS+PzbM/bYMWblvtgqFTWbgn0CrRIkG4BEQUCRsCT5uBGfbO3W+Xps4o3GYirr32GfiWTledVat1HF7OGAjrDiv/+PMw66XTEXJEWnxIzy7xmuHGZuAo2U+gD41j1pvxrWgSv6k9bImfJXDszz+IZH1A5Y+MBWFM6+McNWF4dGZi3jTQKtFMQVg1IoqEDUF2erzozfehrdQRudKjs9b7csqlY2c7mj0+BG3ve7sPHqNRbco/fgyZBf1REIpwRXDsqM58Qr9tPYLWxjQSTkQpivFpwNisV8uQs78YpuZM+l9wnONTSGWtj0zsDc4jCMJqEVEkCG6ySQwqj1wv7siTIJRh3szC2GQPwUbRw7ZzSl6OKgi1hogiYcPC3rKnqd2aF0TwEAdTLh3HMzA9fnQtO+wQgrdefxQEgueZmW39K5iAH8XMvA8B1xy2rjbAPGet+ey5ajuHELCClGWYh5n15YbIVJRTfyZCm5wZRoIgrAIRRcLG5UAP4gt+9OuhjFZoz71cOnv4h5MwtuuhD1pKd3KNMBZm9HCGIDAcHYoDLttJbgfiJSKN0W6eR9Sv8wWBUwFraO3AOJL1QSt9N5Cat/KXhp8yc9nqboNEkt5ENBomZir1BKYgbGCu8fl87+jPFYGOj3RawsjC0qyHnfBvyLTOFj+uXy69HPzkWtcbgco99n+FkTqboybLgp9225FBYJ2HfsVuhPWg0nYmkSJh48Kdg+2108K/IaOETLn0lcBPrjWlML5BBZFQ64QwtLsZqZMSxxSES0EiRUJVIHZSPci9yCFlsXKkrIT1oNJ2JpEiQRAEQRAEQkSRIAiCIAgCIaJIEARBEASBEFEkCIIgCIJAiCgSBEEQBEEg1uXpM0EQBEEQhLWgkk+fySP5QlUgdlI9yL3IIWWxcqSshPWg0nYmw2eCIAiCIAiEiCJBEARBEARCRJEgCIIgCAIhokgQBEEQBIEQUSQIgiAIgkCIKBIEQRAEQSBEFAmCIAiCIBBVJYqa7juI0RcnkUwm1TJ54hA69ba1IYShRBKj+/XqCggdimPyZT6fUUQQxtCLExjaqTe68N45gJjr3JMTR9CttwlrSQSjdhnzkhiiu0r3aTiRS9NLYpi3FLBzCAm9DxMZc++TKHlvqwO6btd5Vwuq/MYiek2zf7So7CNjrrLle1DVZX0JqGty2ZJTJlabU2xfbjvmtqUUnMfalm/f5fLXCFxWLptRNlQB286zuVUSGh5dG/ssURcuFy6vyzomnVMlynujUDWiyHv/EIYf7oSxkMDwV/dh3+MjSC4Aht5+ZQihvc0L84UQ/P4eROGF8e46vc1NJ/Z8oRtNi0kMP8R5/fB37sGY3iqsMdkkBrmMaYkv+NFFIjfWG7DKXS2DSGbTSPTG9A45IjuakTrah5jurALmoGu/APqO64zCCknTX3BpR4M6wUB9ClO6bENbm+keAv4dNd21FzMfz9lffcDqVPe3A0e1fR1OoXk3d0Zse0HglJU+OG0gWCgsidBwgPJQu0PlF25KOTZvtUUbAxZ7QVC5BbhOCish2u1HoETbtmIO9Eh5L0GViCI/enf44bkwgX2f2oeRH05g4rlh7HlggG4cR2d0BOblScQPWfpWqeUTMcQn2XOapEa5G5Fndb4JangaSGjde4i8a95Oy4tDTuTmpqYYEir6w/t1qLTOR0nRqzTOO4L+D3PD1Q+/h45zV4yU9Q/xQjIIHzzw7y1U6h7cyFopm8Hk2TkrSeO9/wjiL9nHjWFgKyUqpR5HLL78+Xrv5eiZTns5gdGvd5M0yx1jdILSr1rVH4K3PgvznF612d+F5rnxEh1HBK1IWMKH8vgX4iUbF3f0yLnPyuMb0t695YE6+ZwOzeX90z35JjX4bjvhDiAx/E2yK/JCHc9/tdEDIu9caCnRoa4fBszZJIzt5c+XRZB5xm6EydFoMpEIJJBubC1/jTVNIwyPiQzb2YG+nNA+noGpPvD2NGYOqBUS9FQW9d6COkzlZKQwznk2G9TClMYdQbKEKbdbpezLHbGy75U7rYytV9K26Hv6jQT83bqm5kXb9DmqqNKQc558jc41O+2eu96Uig7p61TXkl9H1f7cluq0UhGYvDI+QXndZcL78voK6qR1HLquovJdwX1wHdMdxSp9/+1jlShDvmZaH1XfwXnLtEXuezE2WpVR6kpRJaLoTjSRKMjMDmNSp+SYwwvfCisPKXg8DeMjnejXWzyetzD2qSAO/SQL3/YB+OcOIviZGObe5UfXZ4DwvbfDOD+MIHtXf9LnRG7q35XGoe4g9p2m/bZ9Wt3shaln8CVS4H7/HpxebMHH7zPRF+CIA/nC7NEF7sKd/jh5xVkkDxcq9TE8czaNxVu7EXtxFIc+12kJFxJ00d2tWPguR4+CGDznRfeD+uw9Hrw1Ttdln+9nvSXOl/b/fCeM+WGEaP99L5i45WN7EN1lHYKP8asxOvbVpvo9fvSrCttP4mekILpDFX0bSkaJsL8VhjmvPkZafEjPlva32ROzPf5UU5fuQOhr2wzMcDp7/CSMW2etPHZUIDKW8/75njxEnZ3Z1K4bEy0Gev8HffahGSNWvlOmjphwA+Xaf5logHMu7qjEleJcH0bKRDvs67YFAHa2o3lhhq4tipl5H1qXijDVGo1B3bnwfSy+fxz5MeamqK7Ow8y6rp3s0ucxSCq54HJCxqrX5NlzRLS/sMOnTjNs2xHZgbnNFjvF9hUaDlNdsaOi1rlFxrj+2GlxmG3kgOrjO/ZlC5a1hmw2sc3EoPv4x/sQUOfC5w0EbHHQ2KyjbXFge9K5ZjtKTDUWPfZ+XDcLIpB8ncYZ2kbfVVhHY9z5t8xY67QkjFwZKGi7O0rXc8841becmI+0GEietK5hyTpJ90oJQF327vJd0X0odczCc6M6FhkLuyKTJgJ2nbTLsKivKNMW7fbDtMtplnNdPVTVnKK3L2b0JxcNHjTddQiJlyYxtrMJddfWOV5T9hw1MBcyGJv6KUmVNJJfnUDmNerI/o78198NYTazAE9LCEeGI+j+oN6JSL+yDxO038QrtJ9ujN763Q588YkEJicP4fZ6oO5dqxu4m6SGqzsSw+QvDdy++yBG/iwE7842NF5P5/+ZEUy+NIbe267D4o0+K2KVTWHq2Bxgn++mQPH5qv2zSJ0eIWlI5/vV05j7+zp4f1/PtKJjJPgYVxuu4bMRaiLzvDsVAeJOtzTmGyuQj46XxJFCg+6jlZyd1tEn9vjpHJQXT03M1Jzl/0dn0yTO3R0XdfwLzWjndUcMMK6hvQMztEaoTtA+5vI45+L6/itJrHektDgriNqpqJEWo6q8WvI7sJrGGT7zY6Ylf+4ie/TcKVrOVAx9Rzm6pj3xFrKIrElSKR9TC3jGEuoJGCTG7YgBC3tPW78WYm5bLbav2NkUQHlz5xRBa6N7iDmK8WlqhzZbazn7qiAeXTdcONHX7XRthpaJ8zq6q8Rk7pzZfmyciMlePzyuqFvzbmuInAUDU1hH2R49jphNItjoccpAcXwKKZAgdQQ/1zdDC1oqQ9ewcNk62RRGskAA5vKu9D6UqOdF58bHskYyisrCKcNCVtAW2elXCVUiiuZg/pLUaNOAjrDk6Ny7B93eOQw+2IGObyV5KsKKiT8Uxr6nprHo+zgGjsbQ36A3FNGPfQ90YPHHX0J3RwfiF3TyKsm8MIg93QHsOb2A+g93UXfNpPH8R+nc7SVYfq5R0fm+W29wyOI3F/VHQaEaeycaQ83CEhEgN/NmloSoS0w5RDC610BCd27xwp5qKXis3j8CUENsh+ajsyaat4byxMDGhDt6e85MDvakU2ftBj+CrjYPdUq60aaODxt0CM0t+LijV9GNclGRkyaMBR0VWhIrIhJ3zeFSUWz7OEvNidPfx2JtyaHZ9WKBBKKKuObOhYWNM8fv8CraeicKw2XA0Xwbdp+zOXHFFNTRP6Sk7LR7XqEVcclBdh2g9NlWZbNc7tzmGHxvOfKsIn9Lo86iMBK4JhSfG/c3cde1yNyh1VMlomgMT51JY/EDQYwMD6D7rk50fsyvBJLxrjrgH0ykXiPFy6re2mGFZDDx7QGE9iaQqfNy31kGD+quzeKtC68js5XUdqEyy+M63GQskeGDHWh9D53zxUVkz84jc9EH/6FuNOnNS1NwvhfnkFn0oPn2MO3vReejXdjiWUDq9ITOL7BNwGmYLK/LGaopgS2EeB6Hmec5c6M8iqHHvTAcr52Ppz6sAm6oBsnP0o0geVlmUxe63ENIpdBenzUcUKNQxzsy14zwNh1l3TmEgD2Hi+FhIlc0hReeZOwMk2wgbHHOHT0Ps5afGKuHKkoIZsPdmZeAhb1v2+rmenDEKT7PESVr+DJX9ixYUTw/r5KwUDsFBLUD0Wh4nEjuatr60CYDWTuqxjZmfSKySB0NKBGZP1coV0d//oYJT1tuiLwsLKZOpa32g+tqfStG8wR/ebJzI3nXmc8a3Afn3N6rhmUvuz5xJNwdxcsr041P1QyfJR/bgyM/JI1/WzcGHj2Ig18fwlj8CN4+O41MQzdiyTF035RdVaRo4FntkT4VwHWvxPHMc3pDES9gcrYO/i/FkXy0GYu/1MlFvICZ80DT/XEk/sz9wH03jvxAf9d3jyB8axbJ48MYvHAIw8dncd1HBuj8advLk4h9Se9SgqLz/fYgBp6YRPYDvbR/HAfvNJB+7iD2UAW7qnHmFCXR35TCiN3h7HQLmhKwQHE6Gva6rTkKqsxpCWMcfQ/3IaHmb3BaK0fsV0xugjbPEbDD3jyE5iOPcrnhCI60uIZUqsGbvwR4GC2lu7PC6FipKF5hpK+mcQ/DUFfMEQfu6J3ImFqsoZvcBFlrPkl+dIJQIlkPfezPTQTmxT42P3FpzTXS25aYDJv7Pt7fEqrRbp6/Yg+/8VybK/D0JXXogySk+8necTJn/2HDXHFbbzs46jp4KFKn27AQTBi0ncrnPxXWUf5+ng+n0ngpqHfOUDot2+25itYQms8t+JeDhcsZw5oX9n6dprnk+1B0bg+R2HMfq/TE8eWhtpHnF9nDcCXKdCNzjc/ne0d/rgh0fKTTV1ORCpfCetlJZIwa3+6eZQTKWsITqHnyY+087r829yKC0YQX4zUevr+S7RdHLtvP9lxldlMbsAPEEcAiMbsRYVHOk9Hdw79XkErbWVVNtBaEShM9aSKwhEe9lljeOXukhU/IXQ2QtynzGS6LWO8MDNecG6EK0FE7O1q3MWFHTkeJeCl8SnCDI5EioSoQO6ke5F7kkLJYOVJWwnpQaTuTSJEgCIIgCAIhokgQBEEQBIEQUSQIgiAIgkCIKBIEQRAEQSBEFAmCIAiCIBAiigRBEARBEAgRRYIgCIIgCISIIqEmUe8pU69LsP4r3K9DsN8kPuZ+a70gVJbcq16s5dJes3Ap8A/u8Q892v8FQbgURBQJNUgI7U1A5ji/W8r6rzqFTTPOi0btN4lHuxMwCt7cLghrj/UrwM5b3vVS/kWwlYLfoWcioJ0CQRBWh4giobZQ0aB++D0+9RLHYCP/52gQdQa9uZ+i5zeIW0QxPmfk3vgsCJVgfxf8C/HSIohf3Dk2ZL06Qb1iJv81Ck40iWybhbyNE+Wk9MTwEEZ1fjsKqt4vZ6clukD+gcXxPiTQKtEiQbgERBQJtQW/bfpwEulp8sjt//7Cl61G0NVmYka/myj2BtC8VWJFQuWItPiQnl3i/VCNzcBRP/yBPjSOWW/Gt6JJ/Fbz8LJDvJ42AzMq/yCS9QGVPzIWhKHsn9KPmjA8OjMxbxpodQksQRBWhogioYbQHvZeP3xt/bn/eS94Ze85APOw603450yY+qMgVB5XBMeO6swntHCPoLUxjYQTUYpifBowNuvVMmSnx7U9xzA1x9ZccJzjU0jZwVEi9oZYvCBcCiKKhBoihr6AH4PTaSQP5/6z9626Bh6mSLaSR10YORKEysLDtcYmW5pH0cPRm1PyclRBqDVEFAk1Rgjthomp4/Z/ncze+W5gxO+KENlsNnLzLQShAsR6EzDb+vPmBJUmipl5HwLOU2k81AuY56w1X4uOLJHADzRaH0szDzPryw2R7WxHs2v4LLRJLF4QLgURRUKNEUNfN0eG7P+anV4YHj/67WEL19BFaBOQOltiAqwgrBkcHYoD2132tx2IdxfPM4p28zyifp0vCJzSkc0D40jWB610EvipeSt/afgpsyQM+/t2GySS9CaikRwGe06dIAgr5xqfz/eO/lwR6PhIpyWMLCxN5ewkgtGEF+P2EJuwLFJnc9RkWfAw8o4MAiUEWSURuxHWg0rbmUSKhA0NP6GDMyKIhKuFEIZ2NyN1cn0FkSBsFEQUCRuaaLcfPTKMIFw18MMI8qCBIFwqIooEQRAEQRAIEUWCIAiCIAiEiCJBEARBEARCRJEgCIIgCAIhokgQBEEQBIFYl98pEgRBEARBWAsq+TtF8uONQlUgdlI9yL3IIWWxcqSshPWg0nYmw2eCIAiCIAiEiCJBEARBEARCRJEgCIIgCAIhokgQBEEQBIEQUSQIgiAIgkCIKBIEQRAEQSBEFAmCIAiCIBBVI4pCwwkkE0MI8UpDCEMvJjE5FkGH2nq50PESSYzu16vVyH1DSJw4CG/DQcR1OTRtDSMyPIrEy6OIWLkEKonRZBJJe7FtpiC97L3eSeXM+/B/si+byJj7WJfJfrpnw2typKpHlZurHBUlrj8ylsDQTr3CZZ90rW8E1DXl7C9XJlbbY6W7r9ltr+XqN+extqn2cdn8tURBPV7La1qv+leB7+H6tGbHXJPzY/u9uvqfKowUedH7aC/8SGL4oSgmdepGx3vbLUBmBpm7boHxdxnEKK373+zCH998E6671sojaLJJDPr98NMSX/CjSwmgKHp0mv9wEsb20hU5sqMZqaN9qnxtuMMJIg5/ID9dWAlp+gsu7XCQYAjUpzB13FoNbW2mewj4d2ywpnaebEjZ4CCS9QFLAO1vB47adplC824W3tzRBIFTVvrgtIFgobAkQsMBytODKJVfuCnl2LzfT2k6T23Cgih3/Wo5BQQ3hNi7PKLdfgR6pRW6klSdKKrffwShlreRfIo6qAuUoDywCcS+oz2lSao4WzmnF92PkhJ+WXsapGYP3evlDfDeexCjL9oeyASO3KeSLbZShZy01Pgf3HsIo7YX9+IQummz9/4jiL9kp8UwwN9FijuZiCMWn7TSJ6hha+Bj9WPkBzrNrtCUNmTne3kSE0/2W9EufYzRCUrPi0iEMTQxibE7vfD8wR5MfrYFdQ0fx+R3BhD9VAc6v/dTvK1zCoWE4K3PwjynV93Mz5ToOCJoRQJ9unNW0H3pNxLwd+vcbG9jQznv3nWv8rx19z3ke2unF3Ru1j4bubE3YM6WF6EMiyDzjC04Q2hvMpEIJJBubN2g5dIIw2Miw3Z2oC9nb8czMNUH3p7GzAG1glgvlUW919UmMFRORgrjnGezAY+VWITbJi1hann2Q066HZ1yR6zse+VOc0UoVIRhyIrklBBrlwuLPR8JyB59/YoDPUocBugcVFRxvyvyZp+DOq9IiesoKIcWnUhbc9GoMlE6KqtRJxJSoozc7UFhnd/ug6et35XuPq5Oc5clL/pa1DUO59oN26kIUZo6zxW2Q6NjuWhQsS0wjaWvSefLt4VSduPGur41i2RVKdUliq5tRvAuH8wf7svvuKhJqJs/hOA9+3Da9CGwk27Krij23GVg/skQ/JQ+sXALbv98lCRGGNHPd+KWX04g+hn2Qjqx5zl9GJInkS98HLdk4thHavwT994O4/wwguyp/Ekfxnjf3a1Y+C4d0x/E4DkSXg/2W7t6PHhrPAz/Z2KYe5cfXZ+lbfcF0fJ2AiHHe/Pj4F7a92IC++7xI/Tkq6j7UAgDUb9zjF+N0fa8iMQI+joPIvnLDE4/1IHn5xcx+90OdPyrQ3q7UITHj35VcfvRPEflZ0cg7Aq9m0rVFjlu9rfCMOf1CkHefGKbicHCvI3NjnfvRKKocet3eeucHubGgRuY7UBcpzviiuF9WHDVvGe/DOf6MFIm2sGNLYsgWwBgZzuaF1iwRjEz70PrUhGmWqMxqDsUjoIU33MWA8bcFNX9eZhZ17WTXfo8BnVfLricYEWMWTCwvfUXdlRkX2FqP6xoyyDMbXYH56N9dfopU0XkQsNhqiuDOq91bpExrj92WhxmGzlo+vieNgMzhfa8RjQaHqRni48be8OEx+BS8MC/jeqwvq5kfS4S6WkLOHXTibBRHQy3mU4dnKHrt3BHj1No1pHJyFgQxrS+7qMmCVSVTOlhV1TPRMC2Z7s9cLfbdE/8p9LI8nFUOouKVqvMeDljWO0D4ZSlO4LI12jM6O8ip2KbS3DZlGqHyl0rp7vaJ1twliyv430I6HwcoWMhalFsNzn4+gIwD2/8SFZ1iaKLi1i8SDfyfT5YMR+b1zHz1QlkLkxgJpNVFSfU1oi6bAqJY3MApe/78RwWr/ei9WAbGq/P4tXxfYi/pnfXGFsPIvjuV51hudnMAjwtIRwh76P7g5Swk/f1oOkzI5h8aQy9t12HxRt9KoIE+q4p/q7XBpH6OzrWpgAmz2ew2BDA4HcOofdOPuM70dQApF8hkXYBmDv2FKYzgNfXzkdQx1Dn62bXECZe2ocO8hQ7Dk0ieGsdWj4ziZGH9XahGNfw2Qh1C7bnEusNWBX6KBB2eZFuzDcKKrSnGe2FHtF8LpoUnbXesRNp8SHtRDso/WSSjIDskIeCpseLOkA0hZEsJbg2KLHeEVeD72J/F3W8ufJRUSPdIXLZ+lpK3aUaxRk+o86qxe2tW4KdBbLVocTQd5SjayygaGmhNiNrklTKx3QJeB5W8fsTMPZSfjvaQDapIhXaQfCTsPKq8k8jYXdcB2Zojb7xbAqgvLlziqC10ZWP7tD4NJn0ZmstW8qm140sks4QdwxTc1lqb606np3OOUF8TVlqN79ZUAftOss4jtJePzwqGldw3cenkMryB04nocLlm5efcLUHZWER6/EhqO4FLRxFUgLPXZZ8LVasUF3jSX3GfA4L1sc8SrRDhe2Nc618DHLK+wsck1Llxdek5gIWnGcpu7EwEEj0wzgTWL4cNgBVNnz2U8SeoM6mrRdH9q9yivXf/yZ/mInEVSGLWbL+68kj0zYQfyiMfU9NY9H3cQwcjaH/3ZyaxvMf7UCHvQT3YEzlLiZzOITw48/jp9e3IRwdwZHteoPD63i7xHnkcawPnUdfRfZ8HB0Dk8j8MolDHR10XL1dWBLV2De153tZqqGzO4glWKBOij3IvaUF1OXAzme20Pvf0HBHb8+ZyRFpMZA6a3e8EXS1eeCzxQA1yNigQ2huwccdkIrouAWy21s/acJY0FGhJbEiH3HXHK60e16Of4lOS38fizX3sNOVYN7MiRw3oU0Gsu5I7uXiRGq5bOKuTr4c6VzEl5fVzjF0OWtqWVeHiOpfgL5ztlXVLbcgL+QPSSgGTB0pO5zk6X0rotQ924hU30Trp6MYmX6bGs6DGLo/P17kJvGXGSySlx/Y1QQ0dOJg1xZ4FlI4/b/PIbPoQfOd/ejkeT8u3nrlEOKZWxDcTw232pbBxLcHENqbQKbOi6aL88hc9MF/qBt01BUx91wUfQ/FMJuth7d1FhlS/L4PHVTf3bQrgo6GRcxNl5NVFv7bbsFihty0di88F2bLijChGOU5qSEJF8pr03M6Ciiq2NxZ8CRP93yBEqhOzhXijuzwkys/rz3wrqJOJjs3sqLjbiioLEfmmhHeZljrO4cQcM/h4mEiVzSFF3seyUZDRRZnoypS0Tq71JBDCEO7/U70zI3hePClYXHhtsmVwBGn+Dw7DNbwZa7sWbCSSZean7fG8BwqMy9qRbCAaTN1pILa763552ULa4/LAVJ1kOr+Qzzs5k6nsmfyRBbbnvpQMHSp2gr+YKVfsi3yfDGP/dBH5VBDjCWu1UEP69ntXKny+rnhcSLm3H6Wm6+Wg+cADiLVVHDPNijVJ4p4HL2Xh5888D94SEdviskcHsDw2SyaHogheYJEyLvTGHtsD+IXBjHwxCSyjSEcPEFe0cvuidaTiD40jCT86P1mBIef1R7rUwFc90ocz3z7EIaPz+K6jwwgxukvTyL2Jb1rCboHJ6z9T/SiceE0xr4bx57HxjDnIZFG3x17YAuyZ4cxcDij9yhN8t8H0fnQBHA4hEB4WKcKZXHmFCXVPJ8RbkipUVX3gpe9zUgdtuZN5HFgBmapjoYneVJn3r+UB+3M67C+g59WUx0dCwEeq7e/2x2+5gbqjFE8F2QDw8NoKd3MuofKGFsouCkZ6atVnDlFln3wvA6eP+NExtRi2UJuUqw1rydv0jGjhkP08I3btmmxj83DxW6bzJsIXEDu+3h/S6hGu3kekT38xvOg1mt4hCNeccBdLjzU7My9y1I9DZc8r+yCgbDex6mDBXWzVceEbPGljsNDlFZq/tDlboPEkE4PuMtjBROKuT3h/Krc6ZrUU6/6uLRURECUuVY1t1GnJbfDGQYrVV489G+fZ9gwVxgp4vLheWu0X8EQ3UbjGp/P947+XBHo+Einlw9cClc362UnkbFRUrMlBJPgsDb3IoLRhBfjNf4zB1ey/eInkdrP9qyTULl81qqs+Mks78kSAo3EYWLT+BJRt0uAxQQ/mFGjdspDsxyJLBLVG5hK18kqjBQJQuWInjQRuJqGtK4Y5DnXuCC60sR6Z2BUYL7b1Y4zyZiXvQYStWSn7ogQLTw36GoSROuBRIqEqkDspHqQe5FDymLlSFkJ60Gl7UwiRYIgCIIgCISIIkEQBEEQBEJEkSAIgiAIAiGiSBAEQRAEgRBRJAiCIAiCQIgoEgRBEARBIEQUCYIgCIIgECKKhJrD/cqCK/1yS/4xtVF+HYD93yGEoUTup/75V3qvlld9XM3k/TAgLcu+KmLNYHvjumD/FwThUhBRJNQWJD7CTSnX26iv7Cs71Atp+eWKmw3rP6PeVRWGsZB7q1C0OwGj4A3ywkbCEsHO28f1sqavpFgR/G4vE4EN/n4qQagUIoqE2oLER7m3OrsjSFaExvKah5x0O1pjdWBWmu1Vu9NcHj6/b2l4CKOcntfRRFRaf5t+4ed2n/qv9uMXwfoDGDd1VkUU43MG2iVatDHZ3wX/gn5BaSH8aoaxIcu+1Ctmytua+yWiTnTRbYN5dmjZoEpLdIFkucXxPiTQKtEiQbgERBQJtYXzluiC4SjqOMIY0R46v83ZFjs+NNvpp0z4d0RIPIXVm8mtvFakKTJmva3cSuO3ZYed43vaDMxwerc7JsVv+h5Ecj6JQef/0pGB2BtA81aJFW1EIi0+pGeXiFk2NgNHyYYCfWhcwtbK4dgg21p9QOWPjAVhTOvjHDVhuLyFedNAayXe0i4IGxwRRULNEe3mziEBY2/Oa+ZOydPWr73vfvg9Bryqo0kjYQuVAzO0RuLkbAqgvDmvPILWRlc+jupMA8Zmay07PV40RGdFpeh7Glmg2f+XmTd0zkRe8EjYoLgiOHZUZz6h3/q+tK2VI2eDMUzNsRUVHOf4FFK50VoS4GJpgnApiCgSahSO1PgRR9ARN+lTLJbsJaA7oRIc70OA8sy0cMd1aZNSY70B+A8nkWZP3f6/1HcKG5p5Mwtjkx0FtGzTf0pejioItYaIImFDwJ2Sb9vqJjJzxCk+zxGlKGbmfQg4TwpF0NUGmOf0ahlCWw2YZ2PO/2XZbOTmfQgbilhvAmZe9LEcS9uar0VL9J1DCDRaH0szDzPryw2R7WxHs2v4LLRJLE0QLgURRUJtoZ7s0kMTtAQRR88BK3JjzTXS29SE1tK4J2QHYQ1rRLt5boc9/BYETi0f9Yn19qg89v/lCG0CUisRT0INwtGhOMCT7m0b3A7E8+ahWZS1tQPjSNYHrfTdZCvzVv7S8FNmSRj29+0mYe4aPms0TMxQvRAEYXVc4/P53tGfKwIdH+m0hJGFpdn4dhLBaMKL8UAfdWfVjdTZHDVZFvy0244MAiUEWSURuxHWg0rbmUSKBGEd4CeFcKb6BZFQ64QwtLsZqZPrK4gEYaMgokgQ1gGev8TDfIJQWWLoC8iEf0G4VEQUCYIgCIIgECKKBEEQBEEQCBFFgiAIgiAIhIgiQRAEQRAEQkSRIAiCIAgCsS6/UyQIgiAIgrAWVPJ3iuTHG4WqQOykepB7kUPKYuVIWQnrQaXtTIbPBEEQBEEQCBFFgiAIgiAIhIgiQRAEQRAEQkSRIAiCIAgCIaJIEARBEASBEFEkCIIgCIJAiCgSBEEQBEEgqkYUhYYTSCaGEOKVhhCGXkxiciyCDrX1cqHjJZIY3a9Xq5H7hpA4cRDehoOI2+WwPYJRKodkkpaXE4g9vDalUdtQmXB52ItdVjb7R4vT3PsUbbOIjFn2wXaYsxNrv8RwqT1WT2QsgaGdemWDwOWWpHqaB92DwjLLu/adZOvJDVYW6pq0jfHilInV9ljp7mt22/EorZWC81jbVPu4bP5aoqAer+U1lbC/ilCB7+H6tGbHXJPzY/vdCPa2cqowUuRF76O98COJ4YeimNSpGx3vbbcAmRlk7roFxt9lEOPE2wz86oUoQv4g9v23LJq270JY5b7KySYx6PfDT0t8wY8uJWJ059MC5P+sF6cHgVNWfn+gzypbN9ShBRBHzwG9rsjtF+gt2kNwSNNfcGmHg8u3PoWp49ZqaGsz3UPAv2ODNbXzccvG/INI1gcsAbS/HTiqbe9wCs27WZTn2+TgtIFgobAkQsMBytODKJVfuCnl2LzfT2k6T23CgshVJ3k5BQQ3hNi7PKLd0t5caapOFNXvP4JQy9tIPkWd1wVKUB7YBGLf0Z7SJFWcrZzTi+5HSQm/rD0NUrOH7vXyBnjvPZiLsNC+R+5TyRZbqUJOWmr8D+49hFHbi3txCN202Xv/EcRfstNiGODvUtGHOGLxSSt9ghq2Bj5WP0Z+oNPsCk1pQ3a+lycx8WS/Fe3SxxidoPS8aEUYQxOTGLvTC88f7MHkZ1tQ1/BxTH5nAPjTPQg/HsccMpiYfR3Z62+kqxZyhOCtz8I8x59j6AtQ49o9o7Y47O+Cf6FQ8OQT2mogdTK/m4mM9cM443f2U5GOYbqH6l67o45ajOl0t2fm9u7zPTa9T4mOsPYwYM4mYWwv36GxCDLP2GI0hPYmE4lAAunG1g3aCTbC8JjIsAg80Ic+LQZxPANTfeDtacxo24r1UlnUe11tAkPlZKQwznk2G/BYiUW4bcyySbatUbJVO92OTrnt1L5XZWxXRRiGrEhOBWyUxZ6PBGRenTzQo8RhgM5B1bX9rsibfQ7qvCIlrqOgHMgxsnBHo8pE6aisRp1ISIky4v5nbMhKd7fb3J5v98HT1u9Kdx9Xp7nLkhd9LeXakxClqfN0f6/7eETetY7lokHFtsA0lr4mnS/fFkrZjRvr+vLbso1HdYmia5sRvMsH84f7cg2JwoO6+UMI3rMPp00fAjvppuyKYs9dBuafDMFP6RMLt+D2z0dJYoQR/XwnbvnlBKKfYS+kE3ue04cheRL5wsdxSyaOfaTGP3Hv7TDODyPInsqf9GGM993dioXv0jH9QQyeI+H1YL+1q8eDt8bD8H8mhrl3+dH1Wdp2XxAtbycQcrw3Pw7upX0vJrDvHj9CT76Kug+FMBD1O8f41Rhtz4tWjKCv8yCSv8zg9EMdeH5+EbPf7UDHvzqktzN03l1b4JmfwQs65arG40e/qrj9aJ6j8suzlXxCmwyk0aoreqkKzZ00rA5MY2xLIGAOFggpD/zGjOXVHiYRsM1qpFg8Nc8NWun+OMw2ErkqQjCKfpd37/b+bMHl765tf9/hXB9GykQ7rPI1HQGAne1oXpihuhLFzLwPrUtFmGqNxqC2M46CFEdzWAwYc1NU9+dhZl3Xvr8VPo9B3ZcLLidyhpTVkGDgiGh/YUdFNham9sOyvUGY2+wOzkf76vRTporIhYbDLju1zq2s7RKeNgMznF4BG200PEjPFh839oYJj8GlQHVtG7WM+rqS9blIpKct4ETenAgbR9LaTMRVfj9m6PotoujRaSpKpyOTkbEgjGl93UdNEqgqmdLDrqieiYBtz43NVrq73aZ74j+VRpaPo9JZVLRaZcbLGQNh3dY4ZemOIJZpT/Kwv5fyOBHxctfK6a72xm67SpbX8T4EdD6O0LEQtSi2mxx8fQGYhzd+JKu6RNHFRSxepBv5Pl9BROR1zHx1ApkLE5jJZFXFCbU1oi6bQuLYHEDp+348h8XrvWg92IbG67N4dXwf4q/p3TXG1oMIvvtVZ1huNrMAT0sIR8j76P4gJezkfT1o+swIJl8aQ+9t12HxRp+KIIG+a4q/67VBpP6OjrUpgMnzGSw2BDD4nUPovZPP+E40NQDpV0ikXQDmjj2F6Qzg9bXzEdQx1Pm62TWEiZf2oYM8xY5DkwjeWoeWz0xi5GG9vaEbh06QIKxPY+xbUSR18lWNa/hshLqF5TwXX72p89O9a8o1/A4LJnVT+Xia2gsaqSySdjTp+BRSC/whgtbGNBJOIxHF+DTZxmba0uJD2omO5GjenSwhuGqfWO+Iq8F3sb+LOt5xRyCoqJHuEKOzafha3A1vjeMMn1Fn1eL21lkQJdBvkNhWthJD31GOrllCXQ35Zott0DRzKTys4vcnYOyl/Ha0gWxMRSq0g+AnYeVV5e+yyQMzajg5djYFUN7cOZW3XSY7nbtn6w/VtaN23Ylhai5L7a1VG7PTOSeIrylL7eY3eTjWdb5sVzZO9GSvHx4VjSu4bq7LWf7A6SRUuHzz8hPziSUdLwWLWI8PQXUvaOEokhJ47rLka7FihaXbkwJc32tfkxp6LnWtfAxyyvsLHJNS5cXXpOYCFpxnKbuxMBBIsCMXWL4cNgBVNnz2U8SeoG6/rRdH9q9yUvHf/wZv648KEleFLGbJ+q8nj0zbQPyhMPY9NY1F38cxcDSG/ndzahrPf7QDHfYS3IMxlbuYzOEQwo8/j59e34ZwdARHtusNDq/j7RLnkcexPnQefRXZ83F0DEwi88skDnV00HFpG084f3IAt19PQu7fhHDorLWLkEM19kUCJp+s8s4Zd6NUHpMq/+Bcc1EDc/mwS2qJ+o0Hd/T2nJkckRYDqbN2xxtBV5sHPlsMUIOMDTqE5hZ83AGpiI476uL21k+aMBZ0VGhJrMhH3DWHK+2el+NfotPS38dizT3sdCWYN3Mixw1HdbMuIXjZcLSWhKhVNnFXJ1+OtBOBUUup+YdL4XLW1LKukWA9fWDWioq7BXkhf0hCkR0zdY6Hkzy9b0WUumcbkeqbaP10FCPTb1PDeRBD95efQZP4ywwWPc0I7Goi8dCJgzy8tJDC6f99DplFD5rv7Ecnz/tx8dYrhxDP3ILgfmq41bYMJr49gNDeBDJ1XjRdnEfmog/+Q92go66Iueei6HsohtlsPbyts8iQ4vd96KD67qZdEXQ0LGJuupyssvDfdgsWM+SmtXvhuTDriLDOz4fgf9ccYg/0YaQg6iVYKM/JET3F5Ium4qEyRX3B0AUR6+Wp18FlolDWEFAu/MydPomqc7pTLAqJZ5E6upLj1ijU8Y6QmAxvM6z1nTyB3eVl8zCRK5rCiz2PZKOhIoWzURWpaJ1dasiBHJ/dfid65sZYRjyzuCi2saXhiFN8niNK5W230vAcKjMvakWwgGkzdaSC2u+t+edlC2t3BDeyw6/q/kM87OZOp7Jn8kQW2576UDB0qSI8/MFKv2Rb5PliHvuhj8qhhhhLXKuDHtazBUyp8vq54YH5hlWe3H6Wm6+Wg+cAcpS94J5tUKpPFPE4ei8PP3ngf/CQjt4Ukzk8gOGzWTQ9EEPyBImQd6cx9tgexC8MYuCJSWQbQzh4gryil90TrScRfWgYSfjR+80IDj+rPdanArjulTie+fYhDB+fxXUfGUCM01+eROxLetcSdA9OWPuf6EXjwmmMfTeOPY+NYc5DIo2+O/bAFmTPDmPgcEbvUZrkvw+i86EJ4HAIgfCwTgXafPXA9U0I8XXw95Sc/HYV4swpSqp5OyNlOxxCd9T2HCTjjDWfIgdHj6CHHfKJdlsNwVKTTaPdPBfDHsLguSTaW3fmgVjn6RZB3DElDPcEzY0DD6OldDPrHipjbKHgZiWRvprBmVOUJNlrTSTm+TNOZEwtVh3OTYq15vUUDaeq4RA9fEOCIbd/7thKuLtsbCl7ck/CJUmubLSs7VYcjnjFAXe5bOMhbrtuZmEa4ZLnlV0wENb7cDkosVlQ11p1TMgWX+o4zlOpBUOXuw0SQzo94C6PFUwoPjBj5VflTtfEc4Nc11QRAVHmWvMmT2+HMwxWqryiJ3PnGTbMFUaKuHx43hrtt+YR9OriGp/P947+XBHo+Einlw9cClc3V9ROqEEZ3TqFnqXE1VXE2tyLCEYTXoyvdgiiyriSdslPIrWf7VknoXL5rFVZ8ZNZ3pMlBBqJw8Sm8bWd6MtiYjcwUqN2ykOzHIncaHMUl6LSdbIKI0WCsM4c78OMcXWEhtcP8pxrXBBdaWK9MzD2Xtn5PxsRZ5IxL3sNJGrJTt0RIVo24kMbVxqJFAlVgdhJ9SD3IoeUxcqRshLWg0rbmUSKBEEQBEEQCBFFgiAIgiAIhIgiQRAEQRAEQkSRIAiCIAgCIaJIEARBEASBEFEkCIIgCIJAiCgSBEEQBEEgRBQJNYf7lQVX+uWW6tew+XUA9n+d5vzAmn71Av9Kr7yiZeOT98OAtKzfO+5CGEpwXbD/C4JwKYgoEmoLEhzhppTrbdSF7zJbX9QLafnlipsN6z8R2QqM2C885RekUscY7U7AKHiDvLCRYDFi/cKw+4W3a/pKihXB7/YyEdjg76cShEohokioLUh8lHurszuCZL2yw/Kah5x0O1pjdWBWmu1Vu9NcHj6/b2l4CKOcntfRRFRaf5t+4ed2n/rP+0V7c68N4LdaW0QxPmegXaJFG5P9XfAv6BeUFsKRw7Ehy75U5LC8rblfNeNEF902mGeHlg2qtEQXSJZbHO9DAq0SLRKES0BEkVBbOG+JLhiOoo4jjBHtofPbnG2x40OznX7KhH9HhMRTWL2Z3MprRZoiY9bbyq00flt22Dm+p83ADKd3u2NS/KbvQSTnkxh0/hdGBqjz22YgddZKi70BNG+VWNFGJNLiQ3p2iZhlYzNwlGwo0IfGJWytHI4Nsq3VB1T+yFgQxrQ+zlEThstbmDcNtMq7/ARh1YgoEmqOaDd3DgkYe3NeM3dKnrZ+7X33w+8x4FUdTRoJW6gcmKE1EidnUwDlzXnlEbQ2uvJxVGcaMDZba9np8aIhOisqRd/TyALN/u8WahwN6IdxxvW273Mm7LiRsJFxRXDsqM58QtvB0rZWjpwNxjA1x1ZUcJzjU0hlrY9MLkIpCMJqEFEk1CgcqfEjjqAjbtKnWCzZi0uMFHK8DwHKM9PCHdelTUqN9QbgP5xEmj11+7/zndwphlVkQN5gfXUwb2ZhbLKjgJZt+k/Jy1EFodYQUSRsCLhT8m1b3URmjjjF5zmiFMXMvA8B50mhCLraAPOcXi1DaKsB82zM+a9TMZRoxUwpUbbZyM37EDYUsd4EzLzoYzmWtjVfi5boO4cQaLQ+lmYeZtaXGyLb2Y5m1/BZaJNYmiBcCiKKhNpi/6geIrOWIOIqGsORG2uukd6mH4UvhXtCdhDWsEa0m+d22MNvQeDUEpEmTay3R+Wx/1s0wvD4ELTPgxd9LqFNcOYXCRsNjg7FAZ50b9/37UA8bx6aRVlbOzCOZH3QSt9NtjJv5S8NP2WWhGF/324S5q7hs0bDxIxEKQVh1Vzj8/ne0Z8rAh0f6bSEkYWl2fh2EsFowovxQO7JtGpF6myOmiwLftptRwaBEoKskojdCOtBpe1MIkWCsA7wk0I4U/2CSKh1Qhja3YzUyfUVRIKwURBRJAjrAM9fkknXQuWJoS+w/NCvIAilEVEkCIIgCIJAiCgSBEEQBEEgRBQJgiAIgiAQIooEQRAEQRAIEUWCIAiCIAjEuvxOkSAIgiAIwlpQyd8pkh9vFKoCsZPqQe5FDimLlSNlJawHlbYzGT4TBEEQBEEgRBQJgiAIgiAQIooEQRAEQRAIEUWCIAiCIAiEiCJBEARBEARCRJEgCIIgCAJRe6KooRv9XwmjQ68KgiAIgiCsBdUhij43gslkAkP36XWEMJRIIhk/BL9O6fzmBJIvjaB3RxA9n+xB8C69wSGCUT7GTr1ahHXM0f16dY0IDSeQHIvoNTcd6B8cRWKSriNJy8sJxIf7tZjzo/fP4ph82do2GT+CUIPaICwL32ddprwkhujO2mi7UdtGKWcJdg4hkTiBE4l8Wym6jyofHZv/u78v714XnEup77SPo1ct+DyLbTUytpT9VieRscIyIfaT3Q/nX3Hetakyrb1rXZKyduK2Sfc1u22njK2qPNY2ZZ/L5q8RuKxKtpmlsMuPy47Ko6gulaDM8bkMS7X/bMOF9rokJey7NPY95vvlvg692Q0dM99ulmFVZWgRGSttN+XK5WqlOkTRt3+K1+HBLR/SEuiuNrzfQ/+9jbhTJXjR1lAP/M2rGP5WCB3+Tgz8UG2oUrxkaAcRajdg/ngY+766D4e+Nw9PWwgHqTJ50QjftXMY/rdB+D8TQ/rdHej+nC3/hGXJJjHo98NPS3zBjy5doSNj/WieG1Tpfn8PolZyHpEdzUgdvQf/Y8EDY7NOpAarvYkMrp7um07BZgOehQxi/Hk+ro85iGR9QDdq3OAFgVPWeajlFBAs7LCOTyGFZrS7G8Kd7WheSKDvuF7XRLsTMHavoNGvKtL0F1y6UaUGPFCfwpS+3tDWZrqH5BrsWF2jXvWUspP97cBRbR+HyRLU/eUOMmc7g9MGgiU78QDlITum8gs3pRybL2fbG5L9XbpOB4rqSzkiO/wwZ1deQtFuPwK9qqavKdb90/dryesge9gGxPnedl81d7ZqqZLhsxcwnyEp8XvUgBD+rT7UX+DG9ha8/3OcEsT730fN79yYpahtb2ErdUwvsfpOYvLZVtzEaYoODHxHe1YvTyL+TRYiFtdtOoK4jt4kvjOgIjedj5Ly11Gb5Isj6P8wJbIST04gZh9nkjq7rXwE6jj/bEIfewJdN3NaAQ1hdLV5sDA1iJ6vjmDihxMYezyMwakFEkZdCDeMYaB3ALFpuujXxpBeADzvbtQ7u+lA/5MTTkRp9CtWWqlrU97OiZhzbRN/xuledH89d22JP+umnJTmvt7EKA7dy0ewPJkJ8iYm+btqwnOga6zPwjxHH1XHm8TIko1bBK2wxEh0Ng1fi90RNcIAlcVCTrxEWnxIFzWslM9jIkP7c4Pno06w54DexBzoUR1cIM+LjGFqDmjemktjUaAabds75Huj9olifM7IF1BVDwn/2SSM7eWjF+p6z/RZApPuWXuTiUQggXRja9l9apucneBAX64TPJ6BqT7w9jRmtO3Eeqks3IJcQeVkpDDOeVigW4lFuCNIVp3lejyKISfdjkzYkQpe7HvlTnNFS1QkZMiKcqwyGnGp5EcxdESI2+DtPmoz+9V1JMgJ8Xn86C8XbVFQHad2QJUbr3EkU5dDl2GlFV5faJjKayeXhfu4VjnmIjy80DrXWfuc7H7IVY+dsqW0fuoDfNsp7c//D/y5cx3u67RgZ87v8ZFDZd8DO8JkLXZbrKKtdK4q7Q5O8ebOzR1BK3U+BZQsF0FRJaKIjOE8KYNNTXRjvbhzsxcL8+MklOrgbeoE7mtB4/UZzL9AIsKhE4f+HVWShQnsu8ePgelFp+HwRwcQ9EyqdP8XE0B7CAN6uM17cxbDn/Ij9MQscFs3eh+m75p6Bl8ib8Hv34PTiy34+H30nQoP6uYPIXjPPpw2fQhQxcEXDqH3w3WYfSJEqv4YMteVaK62eqmryOKnP4nrBIv4T35KqQa8SlxZeO+PoKMhi9QUCb5C7vs0gh96G4nP8rn50fPY0tfm8byF+G66tqfn4Pkwi68wuj9mYP7JoNo/8G/pO3ZFsecuTqPzp+uaWLgFt38+irB1CNRfO4eDdOy8zr7aUA0jV2iODI1YnQ51HFgwELYbg1KN+f5WGOa89fnATK4j4vS5KUxRj2WJFxZbuU4LjUHdgLB3b3npjYanhGiiDu4NEx4jX+DGzqaApnbdaEVIMJt0bGr4tmvvkO+NFnOxN/IFVE1wrg8jZaIdXJYsgpyyVFGyGSrDKGbmfWitCfG9QkrYiRsW0mxnMczDzLqunezP5zFIKrngcoKOVJLY5ohokRigzi+MEWU/HJ0yt9kdoI/21emnTBWRCw2Hi6Ko+ZHVOMy2sHN8T5uBGU6/kpGL430InEojO21FWAJ0jmkVJV4iaqTrsio3Kp8gCSQrwjYCsz7XVhdfX4Hzou10vrDc6F747XMKkNBXwi1Xj52on3KQskhzpOiP/wX+2LmOYruIdg8imU2rYwR6QULHFYE+7HY4PPAbMyq950e02tjsRCGdiHm583GzRLkIVTTRemKaBIPn/Wi7qxvNJBJ+Oh1TQqn+1gA6brsFnuzrmPmJzqxoQyNHj16hjv0CMPl4Cq/rLXc2eVF3cwD7YpOYjFJD9LYHRou1zc4/dyyBVJZECR3/rd/twBefSGBy8hBurwfq3mVLZ/rOr04gc2ECM5ms6uxCH6RjZ1NIHKMadGEM0z+jg1wiHV8Ywci/2YLFsyOIlqrkVEszi14EDsdw6HOdJBeXvrbsuSmMvEbX9i0uCxZfs8gseNDy6SMY+ko3mihPqK3Rdf4kKH88h8XrvWjVwsoun6rGNXw2Qt2C7eF6qFdJ6PR4mSEd8w07kkQdkx7WirQYSJ2NWeKFBY3qkEzKoXGGRfyYabmEKNpx1xAad4DzOVEQLJwjcc7U0YTaItY74hpadKGGDcadjsCJkhH50boNwBJ2whGdfiOhxW8MfUe5s9MCnupvOuuyN41pC3iCh3j8/gSMvTnBz9FMK/rAx+FoA9V5Vf5pJOyIKYt/+qdsm/LmzimC1kZXPrpD49Nk/npIOTudu2e1Q0gNQ9nXpKK9ToSSRU+urS51fRyxM7XzYttpcbnlw/ngOlbpqN8qUG1PLtLFwjAxb9/XLJInXWc9nxuC57rErOR8lioXoYpEEY7PYv7v6+G91w/f2/OYpZs9MZfB4s1e7NrsxeL8rL6JKyP7F0fQ8dEOZwn9qd5QyMV27HugA4s//hK6OzoQXwtBQGKOJBTe/2FS/C6CH34/PBczmD9LgojU+qGdTXjrhYMIPxQjn5BQQ3a6oeSG78IgQrsP4fl0Hdo+exAj37SOt+JrI2mw54F95MUv4v13DWDkmX7XEKPm73+Dt/XHWiQvCqPEhoXdSJTH9gwj8NbroQ4e3uAhHY462d5mAXZHPm9mYWwqbvpCmwxkXZ2ZRc4LdQ/LqY7uKFR0a2UTN6sZ7ujtOTM5bMGp19SwshpSYBvf7iNvd2MOobkFHw9VqIiOO+rCURAtoPwnTRj2/LUliaKH8rsFv4pE2MdZKoKiv4/FWrkhldqiYFiLk5wo5KVCjooaQncNXVai3FzDW7Vf7zce1SOKMIxX/wbw3daEujd+SmvEt18lL6cJLR+gyj+rUlxwCBq4peUgOhu86Hy0FbfoLbOZBXhuC6L/To6t5GPlJ1HycCe2eBYx/xcZ1F2bxVsXXkeGOsjW4l3ySLxBfryHKs6uJuCDYbRvLhF6/MkwxqazqG/vx8jD3ei8qxPdD4+gv72ePJQJHLrQj947fcj+twH0cCRK75bXUNoN6GtjiPbuQWyWjudtWfLaSnJhAsMDIfT/mK7zfU1Y/EsSmnT+AT7/hk4c7NoCz0IKp6t64np5lGfEAoY9YlcHy52xmmtUgFvIWIIq4GpIOXpjILDN3ZHnY4sa5VUWepDU2PW3mS7vO4f1XWEEyDt3hpIYvueHk1aEiiFBVrND/HQtI3PNCFP5KXiel57DpVBRslw0hZfiOVgbA9tOOELUOrvURF7q3HeXnhhsFAzDFsLC3LetINK4DCzE4yryYEUqc2XPghUl68z6kBtOVPP1rI9LQCI8YNuRHg7khyhckRRVPk4kUj9MsQzRWRPNO7pgmPlOUa7cdILGiiR1Oe2OOvflBC4PwWn7L7ILFVXOPTyi6lCjdtpWwErO51LK5WqiikQRMPUzkgfXApn0CzplDCkVuckg/T2V4CKG6FNJZLljPxHHQOMiP9CiiD9+DKcXfAhF45Yi/8ER8BRjJksiax95bkfu9cE8O4zIsRcwOVsH/5co76PNWPylzliGzIFBxM9fB/+DMSSfCOKmbKnQIxlh7z7ESBg13juAg48exMC9jTBPD6P335J57myCtw6ov/2I4zGUnANz3xFMqO1x9N5q4vT3Rpa8tmIGMKonVMc+dh1mTz2Do4cHMHyWSuEBOv8TJBDfncbYY3vI+6whnDlFSfQ3pfTkavKi1dNfVnrA1HON3JBwMt0dDUeGPJ68DokbRY89SdbGmSuSJB/dnlzNXjuVmh314GWbicEScwYUqrHzwONEs1yTKffmGvPQJpQVZLUAD6PxdTLuoTLGHSWzyYv01Tol7ITnnjmRMbVY84JyE6SteT1Fc/iUvdhz3twTZ3PHjvUG9Fwjva1wKNaFe0J20H7YoJvnEdnDbzyPZeVPeF02rrLi854/mRtODNOVl47zciSn3ERrnmCde8KRsYZ07e8Jw1hYwTARtxGN5FDpOliq3FQeLjcub3YEeN6OzsPt0eBlzcMqGFrltuFwmTalFCs4n0sql6uIa3w+3zv6c0Wg4yOdXm4oQ7jaWS874adc0L2KRmZd4aduvBjnCZw65UqwNveiOq7lcrmS7Rc/FdV+tmf9hMplcmXLKoGuNwLV/YCIsCZU2s6qKlIkCJUmetJEYAmP+koSGSNv3ZkAWetE0VPjguhKE+udgbF3I8z/qTwcNRNBJKwFEikSqgKxk+pB7kUOKYuVI2UlrAeVtjOJFAmCIAiCIBAiigRBEARBEAgRRYIgCIIgCISIIkEQBEEQBEJEkSAIgiAIAiGiSBAEQRAEgRBRJAiCIAiCQIgoEgRBWCP45a/W6xOsZf1e+MkvSOUferT/C4JwKYgoEgRBuGyst7YHzEHnZZ8lX/hZcfjdWSYCpd6lKAjCsogoEgRBuFz2d8G/EC8tgnYOITE2pEST9dJWS0AVRZP2j2LUfjs6ERnTLz6l9MTwUO4Fwo7gcb1UONEFQ6fyS0ETaJVokSBcAiKKBEEQLpNIiw/p2SVeM9zYDBz1wx/oQ+OY9WZ8K5rEb6oPl3jrez6eNgMzKv8gkvUBlZ/flWdM6+McNWF4dGZi3jTQ6hJYgiCsDBFFgiAIa4orgmNHdeYT+m33EbQ2ppFwIkpRjE8Dxma9Wobs9DjlZGKYmjPpf8Fxjk8hlbU+MrE3OI8gCKtFRJEgCMJlMm9mYWyyJ1VH0cPRm1PyclRBqDVEFAmCIFwmsd4EzLb+vDlBpYliZt6HgPNUWgRdbYB5zlrztejI0s4hBBqtj6WZh5n15YbIdraj2TV8FtrkzDASBGEViCgSBEG4bDg6FAe262EzXrYD8e7ieUbRbp5H1K/zBYFTAWto7cA4kvVBK303kJq38peGnzJLwrC/b7dBIklvIhoNEzMH9IogCCvmGp/P947+XBHo+EinJYwsLI3YSfUg9yJHTZYFP+22I4NACUFWScRuhPWg0nYmkSJBEIQNQwhDu5uROrm+gkgQNgoiigRBEDYMMfQF9HCcIAirRkSRIAiCIAgCIaJIEARBEASBEFEkCIIgCIJAiCgSBEEQBEEgRBQJgiAIgiAQ6/I7RYIgCIIgCGtBJX+nSH68UagKxE6qB7kXOaQsVo6UlbAeVNrOZPhMEARBEASBEFEkCIIgCIJAiCgSBEEQBEEgRBQJgiAI/3/2/gY2ruu890b/uT5XPvXtBL6HGw00Pnox0xglmwMy6bkc9ICsWnlOXlhxIU5lmHQhj9tmrCAh7+kZyUiZc06GDEJN3tzwGpZYFGSK0JMmHQsJWVh3KMSmkXSkVCXhYIhTl8RNhoWdIWCYRg82XxSZIKiFa+Q+z1prf8wXOZQ41Az1/IQt7r322l9rr4//86y1ZwmCQIgoEgRBEARBIEQUCYIgCEeYFBYKBRQWU2ZbEBrTkaJo8LkUkk8FzZYgCIIgNGAyCPtyBDN2kOSRIOxOG4miIIa/nMVynhQ9q/o3VpD/ziUMn9B7U4sF5OfitHYasSdjGDkzrHfU47lZ5JdnwbGb5hwdU1ioKTTedYX2wFh9zpKvfc+7vjN+z/5jJhfoPLXvvWnofAsHkT/4vjrQkuW0dt9FIY/Zc3XCa54rjlkq5wuTZrOK+Fy+iTJXlQ/4GtXvVsHX8u6rZaj6o+p+FPpZdbj/Pvz33yj/cRy9j9PEPffd5Ne2oer9tfKZprZhXSwgaW0jzdstLmvxuQX9nlWe2O25OG/s57nrx08tHkL+vo9oG1E0OHkFF54IA5uLmP7SBCa+voLyidO48GIKgyaOZhnjvx/B4B/PmO06PGIhcMysC0ePcgEzkQgitOR2IhjyN65UEfV1lc1GLamzPSjOjyHrbPeGUS5biIrwvUPKKJAVzu8ict1G5KyustPDJiwyg0JXrFIATQ6hh46rTwpD3UVkRp03tAtbOXMNWoapubu6iiKdecDfQJwbQM9OHmNXzXYrce+HnzmqG6rJAWDe3ONlurvzLNq4cYsB13X4zJqFWJ1GOj4XpTgjSFOeTlCaOHk+EqEwE6czYUHkPb9argOxlgmjNEb4GpxHDpOrY4h2/Lu6/2gTURTHM6fCOPZPOSRGp7H46jKW/2oco9c2cSwUxTMVKlhbXrqSDSL+Yg4rb2hrI/+tcRJXZPmfIXEViCCpLDMdf3lxASsUZ+G7WYq7jCtPqJMh+HnafiOL8Yf1NsPnWOFjn/V10Z2g83y/gBWqvAZPJpH53kqlhXNyHFnar8J+mMMVPlZZCsvIfstYeSsU9yRHHkTyG8vufS980YTNec+y8r0MkhzXnGPhO3y9VlUanUocQRJA9ltmk/PGeQvrN22zXU0KffA3kLTdVUBmvgh0D9DRJpQtL7L29Pv1PBoV1npdS1PnNSeO5+3wWcVk6S3sYR02un67Ez9uoWxvmS0/JaxPmVVOi1M28ptms5rJPuCmJ1o1dExTln0Wq3TenpOewI2f7IG9cdjNUghWwMY257OpMS+/Xd2Gzpm830uT7GgepS6qy/SmIY4Bq4gljvMoGXk6sAZ/ntT5hPPgAuUfJ9zxIvjzppP/GuRXqv/yc7M6z7bAo8JiL0wCcsTNE8TUiBKH0dder7ymuhe+rzr3z3Xj4qwOz7+K1yvqR8oz7DVU9WfVcX6Up9hJI385NR7HXdPCF5+W2nLqz7fV98/bSUQCYRKD+lh/uX/9tUpvqfae/kezxehrV3pUzTVa8M7uJ9pEFHElQVXn5jS2TQiz/UKRqtMArEdNQDXPpTH6iR289GmyAp6cQfHEMEbLI2R1lIw3IepWSF0PbOLSkxGMPJ3Hxi+6ED4ZUeHDv9UNvF3A9L+oTRI3KSQffwTvXp/A2F97dxP/HwlEUMDc82kEn46h9/084q7VFsGlizEEVicQo7ALN0niPDOO0+rIAI5tTSP25ARu2GFESaTh6WcQ+8T7yPN9U/yRrwCR9DjivwXkvxRD5I/m8I/HehG/eInOzHThwc1LdG6xOhRK8HLlkkTPZsZ9x6nFJKybu6QRNbiWv9Hm7c1VZK9WexgCiFjr2oK9XIB1SleQ2dGoa9nmYDwBPvj6PZszJk4Odn9CxUktxmCtmfB5W+X13al//faE7vWiruyTfg+P2xglgHnnnXClHYU9P4Z60olJ9Vo+kbsL54KwQjF1XX+3VPaWX+CmMNRv+wRZi3Hvh70gtfmQxYDKb/T0djmMPqcRpXwYDlhUC/pgDxfVhio1STCwR1QbeWqvhhrsBDImv83APuU0+mE61oQb7118LuHLm/reGuVXJtBPxgWHt8C7EqICUKojVLPv2Qj8vIxSqM88h84PxVtZulfOR3yftFy2EXUa/lCPDo8+gVtblWmqyzZ7a8xx11HpEeY8SgJdtxOcN/v0M/Ny00LCxK2fFhzf5+3icnqmjugy1N5/CGPRGRTKJeQoTAtEr9w//qk8bDcfk0DuJkNi9H+qLbccXY4g6vOo6vqv+j6F/dKRA60d4v0hHHuoG899fQUr2VF8/IHbCJAwqkfpzQksv8NrGfz9P91G8NHHEQQd8+9vYyPvdMWRpTJJDdj6HC5MrZgw4MFHExjts5Ejqy9L51h5exu3T0Qx861pjD7O3qTH0X3iGDVeE1j84QqmT1m4/SsWyOYl3sX6l5ax/c4y1rfLCFhU9ZE5u307iOjlLKY/e5rug87QTf+/U8DE6yTEfpLBN9fobzCMAXWOEgp8DrUu+LvPMtQssLXEllTUnqm0Putgv+erREyFW+thKKNwzVQsLJh29Cod4VqGsVC1WE+hL1Siiss5fxpLa5SjHq0K5/M17t0zNLp+O+LrPpsHEo6F7TZGGeC8Ywlzpe0ZKvUxHhZGWfFaZIQdwVFzflq4W+qiaZA4vRyBy2Jja72xSD5ofN15672VngPOn0mL8qjKB1mMzXMjqvNSoZdKeNmuEYq2T8Dr7si8GhvjeAK46zfQnzRpxF4HC0Elanz5bWqdtoxYpLjePTXKr3qrvLZ0eOlWwZt0H1R3qvtkT24Rq1f5Xj3xXbgYQcDxrG15nt/0NUrTXidtnLLN+c4cd4bSi+tfpiuK/EUL+ajxSrIINV6b6rh100KJ1oL25DGUH/NbTvpXs8v9V+Ar93TF9R2Tj1UXsJOPqY3K15ajHipjzdR/wt60iSjaxs9/QfZN97gSCA7Bz/eQzbOD7X8wAfXYeg2DvzfoLrHnF82OxmRu/CPKJ3ow/NkIurGJv3/J7MBtlKnBepAKg39u//cp8P1jlOFD+u62L8eReOE1/PShfiTSGVw5w6Fl/OOsdx+DvxfHtIpdh3dmED8/jddKx9D/6UvIvEgWRxXv3jYrwq5oz8A5PNsf8BoIrtBovdK1XAVZiVFfRZXk431daLV41hk3ejNreyqb+w+/IHFhwVmG9YlXKL2pjBshwOnN67VdDj6mRozIyKHkCA6nEfNTITQ9gcuioZ5H4jBIb5QQdhpoapSVR8dvwftF3TUb1o7xCu2KHhuTgzdGq+Qfl+PzjNdgrsdi7V53w2/ZlB+O15Y0p/uVy7QSNyRqva5U7VFxn7VRPuhiLxOJENNN7hhL6pjLBaql/VSJGJ+xpZYD9bg0cf9VpDdslY/rdQFXph+7no3BLdw1bSKKMnjpb0u4/RsxzE0ncPqJ0zj9J9OYO9uN22//PV6+bqJVkX97GwhFMP10twnx8cCH0WW+XKvh6utY/5dufOpsCO//OE9Xd/gZWb05vBuM4RI1qK5A++dFZMiKinzuihkTBGx+N42x57PYKHch2LeB7Z0Aep5I4nSja1bzk0WkRy8gu1FGV7AXG+/sACciuMSep99MIDUQpGcvYG+Jd3/DFQY2r+Jxf4VzvUTW3UyFa9nBqUzUcU6XlllqBm1X4BsnQgJpoLu6D4wsu62wzz3PXTdk7b9V1VWiLFKzftRQ1jNb9mZbodPKfvNJTwTQwqKSG/Ray7aRtb0Lk0OIwPO0aKGcIBHmH8t0uDiCjBvlvo3Kbo5KSGyfp7uvI96sPRo5FhfhfXatsscppzwajfKr2WwhPIbKrvBaEZMLJJS5i4jSyYibhV6Y96fL0N4fQ7AgttC3SGLKpCd31TneYS7zbtHbIbFU4WHchh3YrfxXoQwAX3xlZPm8nBU0e/9VTK3D7h7CULe/C5jSKDqDYrc//coozkeVWN7VEBSaom26z1amLuDKq+8iMDiKS1++hEufG8SDP17EpT9Lo2DiVPABjzmaI1HxIB7jwdLsIVjJYpz3vb6O0r/pRvyVPGafVrGryGH5xzvo6rqN9VerKqtbaVz4Ol2xfxRXJr3v3rKjE8htP4LY5Cz+33+5rK/3yihCOzew+O0cpudvwA7FcekVbQkvv7jLTwY8fQXLfHwhh9GP2rjxNxnknr+Exc0ATqdzKHx7FB//xQrm/tuMdJnVwx1TVDWOZS+4klENDTfUcN3rDn7rvhbuXrCMez1Bln2tpyg9zOMynO4MHm/AlntVV8l5iypIc8CRwN8t4HzZ5x+AqsetNOvWZ+u4dgxhGiPVVrvbtUbLGSrRfstbNVgBBA6z64xxxxQVqHnSA4m5UXa8Y3rR44JYLOntBumjnsF0sfiflRbn3DzGTY81Mvtqfo7Aw7seH6+9KPXzqzmgpbDHKwf400WN7Rkx70uLmzCc90dlKOq/18Y/uaG8TFTEHRGhutTMdRKWXekpYu8Zj++hfQuTdE9qXJB3T7t6Mfme/OWa8/5l5/6raXT/+jmdgda1cBdaGNZmdfcdn4/HkNG5fIOqWfDmLbrGLvlA2JsPhcPhX5r1lkDnR6nEvdoHQ/CpWWS+8Osofuk0LrxqAvfLidO49OIETgcKSJ++QFWMcK856HzSiNTiAjDcqPI6BHhw53kg04T7/F5xWO+iPvzFDmpF0D3iXqYF/97NwK2RQxIqd8+9zTdtCInZ/PGlXbyEe8Fd9jxA+7DEamfQ6nzWUQOtU98pIPeFCPCjLKbvVBBxo/TKJZzuehc35qdFEN1npK+RZXjIllTFDxn6B3cKdUhjyY5KNwCRHV2H5XTvCB2E8ZSegW8g+/7Qnr3Kr2uFw6HjPEXC0UTySfsg78JD0qJ5JK2Ew6DV+ayjP8kXBEEQBEE4KEQUCYIgCIIgECKKBEEQBEEQCBFFgiAIgiAIhIgiQRAEQRAEQkSRIAiCIAgCIaJIEARBEASBEFEkdCT8a796ugT9V+GfDsGZSXxRT6sgdBr8y9YNfraQf4C10b57TMUPddJyeD9Cyb9+zD/06PwVBOFOEFEkdCB67jKefDFk6b+qUTi+7k3uamYSTw/nYZ2XuYCOFFfHkLGje8xNddiwGCl4M7Kb5c6neLhTeE4uG9E2FY2C0O6IKBI6C+UNSiISCKuJFGMh/sveIGoMRr35sngGcU0aS5sWBsRb1BL8E40qkULvxy9WHE+d+js5i7yJ605kyfNDzaWUoNDnqfJy8Pv2N/Bmm2daR8PJe+8BPFP/Tq6+CFKerVn9jGqKGS2gnHRzvUkN0k6n0aw3ya6bHr6Jd/NDIPtAQ6Ixjz7xFgnCHSCiSOgspkYQuVxAaY0scudvpHrCxBSG+m13puzse0DPSfEVHTjU2Ce6i5gxXpHdZ8IPIHIKyKi4Myh0aU+e2tMfBeb1OWbWLMT8ImhqieJ6DXyq10LhGovfLdi+8HtNqjeM0sYuk9iGevQzRscQWtQz42tvEs+entizizfQb2HdTbuoEZoxWCr/U/i8DStgIhNbtoW+tvKkCUJnIKJI6CCMhX0xgnB/0vtbMcErW89R2Jd9M+G/ZcM2q8IBcnUVRUSQ9IuYhpRRmHcmws1idbMM67h+a+U1b9LL7K0iyl1B3/vkuE4Dn0JfVxGrKm4W2zv8tx3xeXCctNnKm2ekZwiVfBOFprG0BliPms0GlNeWTH7m9ODcXHUefheOc5TIvic5XhDuBBFFQgeRxViUvQklFC57f9n6Vk0Dd1MU+siirvYcCa1Bv4/IRp8SAK0a48NCyeKussk+WJur+l23Gdxd64g8Fjoj7L25LpOjCkKnIaJI6DDiGLBsrF51/ppgts7Pc/eMz0Pk8KjljbcQDh7u0iQB4IiCsDPWh0RqNKRXufvM68Lk7k2geEvLm0D3gOsZSp2NANXCh70gXX1Y6LXcYzgfBLvMahvAY5zs/mQTwjCN9a0wou5XaTot7Lf0Vv20q8cW7HLY6yI7N4AeX/dZ/LjkeEG4E0QUCR1GFmPD7Bly/hrOBWEFIkg63Ra+rov4ca8BFg4Q5ZkzaX0GuitHjQGK6TASqcUtExdl2FbCvJsYcN3z5pV3LCTMeWKoN1hZd6GF4XRBMSFYO+u1Aviewd6hHHDGpAcvlCa54do7TA/zOKJkbVo0TLt6UP6fL8ByrnfeIpFkdhEhMhicMXWCIDTPh8Lh8C/Nekug86NUEjeysDutyycpLOSDWHK62IQ9acW74C+pgtfqdGvyl1XHl/b8dJ1//6dvwxvMzV+9Db0X3WNw993TkfUXi9Wz24jWEWStROp64TBodT4TT5FwpOEvdHBTBFHHwp/gF7QHyRVA1OjzV29L4gmpQxyz53tQVF/oCYKwX8RTJLQFkk/aB3kXHpIWzSNpJRwGrc5n4ikSBEEQBEEgRBQJgiAIgiAQIooEQRAEQRAIEUWCIAiCIAiEiCJBEARBEATiUL4+EwRBEARBOAha+fWZfJIvtAWST9oHeRcekhbNI2klHAatzmfSfSYIgiAIgkCIKBIEQRAEQSBEFAmCIAiCIBAiigRBEARBEAgRRYIgCIIgCISIIkEQBKENiWM2X0AhP0trgnA4dKQoGnwuheRTQbPVLINIfDGJ4RNmUxAEQWhfzg0ANyOI3AQGzpkwQWgxbSSKghj+chbLbBkUaHljBfnvXHJFTGqxgPwc2wunEXsyhpEzw3pHHby4Pp6gY/5gBLGzZrse52aRLywgZTaFdiSFBc4fzuJakZXhC5MqUBGfy9cN98N5xr+PtwuLd54T4nMLmD2Aijy1mD+Q87QKlU5uunv3WhFek47aA9DoXfD7qim/NVTlA74Gl98arwJf6xDSUNUdVfejMN4OFe6/D//9N6pzOI7e58/DjeN3CCqt6r+TinJ3dRU4RdungNWrOuigypUHpbFzvcmFPbxSFLddvVZ073uXGaEZ2kYUDU5ewYUnwsDmIqa/NIGJr6+gfOI0LryYwqCJo1nG+O9HMPjHM2a7SV4dx+nIIOJ/brYrCOrC1m82hfamXMBMhCxIWnI7EQypxjWNERMWuVyAdcY0HFQBJ6x8bbgfihNFDiNTZpti9IXKKHdFW9+YdjxlFC6bdL9uI3JWp2562IRFZlDoilUKoMkh9NBx9UlhqLuIzGjWbO/CVs5cg5bhtGpEi3TmCq/CuQH07OQxZhrVluLeDz+zyTuTA8C8ucfLdHfnuVFloRQDruvwmTULsRrhyAIgSnFGkOY8TGni5PlIhMJMnE7Fptffc7K6EedyZ1YVWYxF6XmjY7R2CEyNHN61hLalTURRHM+cCuPYP+WQGJ3G4qvLWP6rcYxe28SxUBTPVDRMfiuTxMyLOay8oS2o/LfGKwXUCYr7/QJWqMIZVNaJ0yAOYvxbefe4le9lEP+/r+Oba2qnQcdRltkbK8i9GKerDSL5jWX3uIUvNopHxZssnvwrWeRWdNzlv+DwIIa/Soreud+/YG8Xe8i8sEJ+AdOma1CfYwHLtE+sgHpQmnaVYb9lNv1srauGI37SQvGaaUKujiG/FUZflYeiIg4z2QdrLYPMpr/i5nxHwtm12Ot7Req+J7ZAzf4KK1/lSRO+uLC7FcpxF2c9r0MbWqzx4xbK9pbZ8lPCuk9wLpyykae0rQulPW5WN0w+a35XsliteGf8bntgbxy2hAjBCtjYZiE2NeYJsqvbsNUK7/fSJDuaR6mL6jK9aYhjwCpiieM8aiGgA2uo9YI2yqe63tRhTh70h/nyrvI6zGpPVlPpfgds5lHsHvLKAqFE4FrByGX2kjn31sDT5ytXzr0rzyoZuBxW44lsVA4dqIwtuOXXd31V1ng7hnAggqR7P9VxCH/amXhu/eDzSOXnUnXeB7HnM9VJFz7mTBiB/qS+j4rn0HlEpYW/DmnD+qNdaBNRxJUEVZ2b09g2Icz2C0WqTgOwHjUB1TyXxugndvDSp8maeHIGxRPDGL1o9hHx/5FABAXMPZ/GigljTk9PYPjEljou9vUNvP9rXQiUtymmRyQ9jlhgBRNP0rn/LA8MxDH+5WcQ+8T7yPP1yGIb+UqDeE/ocwQCP0PufATxv95E4LeHkDiRwPAnLWx9I6aOj/6XRfUMF57gsDg9wwSWdx7BY3+aRkKfAoGHf44Ful60Gcv5fkFVTFwpJNGzmXEbHbeBOA9k2HNAhCxL/XXYYhO1Amp8uimv+TwJqV4SSbeyyN4qAt0DvsojjB5ktLXewCtSXdGriugMkFP7/V4BapAob9jGWxDZ4LPvQajH9Tp4HrJ7TQCRi7qSTvo9PPzc6h1RTp53PBvcCEdhz4+hnnRiOO3ritxqzgVhhWL6ffsazcp3lsJQv+0TZC3GvR/2AtV6c7jRtzZXSbptwS77xDkJwXDAolrQB3u4qDZUqTk1ot631xgbqDFMOPmR8p59ymlca/NpfC5BZWXGxNX3llrk8uOE5WD3J9zzB/otrHO4KUcHDRfL1U0LUZ8IYQ/h0i2zSXfoeX6L6DFlzYXzV++6ufcI8pZz75QfLR3ueX6JhuWwHpxP+/Tz83LTQmJui+4nh5LyUkepzqkXRz+Lm3Z831Q2+jY4js97qOKQADRl2b2Xpp6pTrqwh+t6CeU1epd7ebqcOkQ8Yg3pyIHWDvH+EI491I3nvr6ClewoPv7AbQRIGDEPPprAaJ+NHFlq2XdUkEt/uAs7by4gY6Vw5ZlfRf5GCcc+2u9r/IDHu4M49pEoJrJ07jRVZu+TOPu/bGL7dhDRy1lMf/a08gjVjderz1F+axWZn5BR9OdFvAsLwZMb2N4JoPeZK5j94jCoLdbPUC4i/xKZuO8sY+IHm7j9UBB9RliVyaLicwg+fN1nGWoWHIsqOxrVlcU8kKhnCTZix/Y10in0dRX1GIar1d0xJeSdRn9qnbYMrgBIIkKNW9CNT+/3JFVCa0tuA+l6BVSjV9CeAMZ/vkZsed1A6Y12mWPK133G6e5YoFfHEFXvKAOc11Y7N8LWTW5Q1IENMB4WxrWayUJ3BEfN+WlRjY953/53xmLDeAwPBV933npvpaeCBXvSyhvjJouxee7K5WejheqLUtmfBzW2z+umhXceFgtQ05ineo13oCbv1eZTJRYprndP3FXli0eptLRGYsUYoGVfnm0VXBZsR8Cyd1YJRg/XyLkYQaDKk8blKuCK0AJiIcd4pvzo9/oaGpZDs10Bl81AGDFzbuWFsSok665x3LRjzyDVVbqMsxdT+wmZ8ppnzPG7KdO9vNjkM+2WLnviq0OE+rSJKNrGz39B9k33uBIaDsHP95DNs4PtfzAB9dh6DYO/N+gusecXVfD75TLeP0aVRKjBV2q/cpoqiAi2v3kB6Z/T9gd0jN7jUv6HKxXnjk/MIH5+Gq+VjqH/05eQeZEswnrxvqaC65DDhc9MILN2G7/+xDgyLyfxYbPH5Rf/WnMfQmNqvTkEN4xl3UBs2V5FxITYJbkLbM1rFzlXTNzQBOqMffCTwsJFC3nTGOYauUDuB2pEJMONQRnWJ15BlNqMsBECyf6AWq/p4vDDFrBKV7LQHcFRz8JV79usq+vpLjQWDaVD7zrTsGgN9xrxsljQHh2/18Uv6q7ZsHaMV2hXtJcgB2+MVsnxNKplF8FprsdirX0Gaqexrjyeccyegk+gESSIWUS6798E+1GeEffZqzxDd4vP8FJLPY9ZM3H2yZ7P1ES6CHdHm4iiDF762xJu/0YMc9MJnH7iNE7/yTTmznbj9tt/j5evm2hV5N/eplYugumn2edSxT8vkvgAIp+7gtRJE2bYeGcHXf0R/PxvRnHhZh8ufSKM21tr0HJKs7G9g8DHYkg+XiWqfrKI9OgFZDfK6Ar2No7XiHeWMTceR/IH2zj2a/R8/7SN24EeRJ+jZzhxGpeGPo7AThE3XjXxhV1RFmCVhamtOO1xyL5HecBxvZ+bpYbZP77F0OV0XeiuNNfzYSoeu7+qS8wPd+O4Vn71QFEj2nzHK9HFDSBbkfTeXQHBXg2z2rEo75fxsrlwmgZgv/mkJwJomVkrqwa9tiGr9LQ1xeQQIvA8LVooJ+q/60PCEWRs1XP3SePub9ONWke8WdXeiSq4Kzh8an9jQ9jjlNviNCZBshWu7L7qR3NdlwdI+loB1qkEenYqPXoV49PqlI3sezYCu5XLKhqWQ7NdgSqbe3RPNxNnFwI+Qy51NqLqsOebeKa90sXBquhC3t0QFCppm+6zlakLuPLquwgMjuLSly/h0ucG8eCPF3Hpz9IVY31cPuAxR3MkTh7EY5/PanfiShbjZjeTHZ1AbvsRxCap4njYBPJwZ1rf+V/vo/d8DoVXLmHw9jKuTGXMfk3uhZdwYyeMeJri8Lm/dwXDT1/BsvIg5DD6URs3/iZTP545Ry3jWDADqrOffBAb11/G/OVxzN0qo/sz9Ax0L6cfLmHxKxfIGhQa4npyfONY3K4WWi5S03x5RFeyPB6DLOuacBftWVANcd1GXTce1YOzXXjwthrvwdfuo5bKhDvQ/gyPGTD3xvc7oyxKsvp5vIcZj6O6UPQRHYY3pkil7zx7cvyDQfW4lWat+PSGXWcMIaVVtRXuf988VsTvQVIeqwACh9l1xvi7PszXjOyZdLxjetHjgtwukEbpo57BdI34n5UW59zcXazHGpl9uwye9a7Hx+sulPQwC36n+43HQe3VtdkCVPlB5YcOhOpac+6tXtmgcq3G4phn2tP71bAc1oPym/pS1Tm349HUni09tqtRnOYo71hImOP4fSrR3MQzNUyXqXUdznmgqk6yyQARmudD4XD4l2a9JdD5USodXHUffGoWmS/8OopfOo0LTXtTghj+iwzGHy1i4r+VEf9v72PmDxuILeGecND5ZF+cm8XCyVWMNLTmDwFu+HiQ5QG44O+We/ouWFAtolYE3SPuZVrwz4QM3BrpmDEg9zbf3D0sHIfeizYt4O8YKuv540vy8cwd0up81lEDrVPfKSD3hQjwoyymmxZEbLXmMN4PFF6exvKbE4iLIBL8kGW1bvkHoR4G/PWKYxHScsrexXK9n0hjyY66g+fvZ7Kj67CcAeRC6zAfSrD3yP3wQbhv6ThPkXA0kXzSPsi78JC0aB5JK+EwaHU+6+hP8gVBEARBEA4KEUWCIAiCIAiEiCJBEARBEARCRJEgCIIgCAIhokgQBEEQBIEQUSQIgiAIgkCIKBIEQRAEQSBEFAkdCf/ar54uQf+tgH8d2kx5kFrU0yoInQb/snWDny3kH9trtO8ew5O/uj/IScvh/Qgl/xgo/9Cj81cQhDtBRJHQgeiJW3nC15Cl/3pQo9BrwZntJz2ch3V+f5NmCm0Oz2NlRw/5F8j3Qv9CedSunOX88KdyyGJs3ka0TUWjILQ7IoqEzkJNjplEJBBWEyfGQvzX8wbF5xKwNvKw9SaRxtKm5c1GLxwo/olGlUih9+MXK46nTv2d1NMpqPhOo83zQM2lfFOeVHk5+H37G3izzRNjoreNGn6eqX/HTOxZjfJszepnVB7MyileXG9Sg7TTaTTrTbLrpodv4t38EMg+0PCEoOgTb5Eg3AEiioTOYmoEkcsFlNbIInf+Rszs3tR4JK18zYSO2feAnpPiKzpwqLFP8Gzjxiuy+0SaAUROARkVdwaFrpgrAAL9UWBen0PNEu4XQVNLFNdr4FO9FgpqRvUt2L7we02qN4zSxi5z14V69DNGxxBa1DPja28Sz1Sf2LOLN9BvYd1Nu6gRmjFYKv9T+LwNK2AiE1u2hb628qQJQmcgokjoIIyFfTGCcH/S+8vWN1vjjSZVfcv2eY6EA+PqKoqIIOkXMQ0pozA/Bu1HyWJ1swzruBaq5bWMOxN89lYR5a6gr7uT4zoNfAp9XUWsqrhZbO/w33bE58Fx0mYrb56RniFUQt71KKWxtAZYj5rNBpTXligmw+nBubnqPPwunD5jIvue5HhBuBNEFAkdRBZjUfYmlFC47P1V1vfZCAIBaqBVYxRDmNfNYGuhVej3EdnoUwKgVWN8WChZ3FU22Qdrc5Wu2n5s2Z7IY6Ezwt6b6zI5qiB0GiKKhA4jjgHLxupV568OTQ9z14Kz5FAqFzBDYkk1oI9a3ngL4eDhLk0SAI4oCDtjfc7NIhrSq9x95nVhpjDUDxRvaXkT6B5wxWuKxC2qhQ97Qbr6sNBrucdwPgh2mdU2gMc42f3JJoRhGutbYUTdr9J0Wthv6a36aVePLdjlsNdFdm4APb7us/hxyfGCcCeIKBI6jCzGhlnsOH/3Jn7ca4CFA4S7LJ1uojPQXTlqDFBMh52ndN8ycVGGbSV0eCEGXDfjwHjPjoWEOU8M9QYr6y60MJwuKCYEa2fddCm1A+wdygFnTHrwQmmSq9Odmx7mcUTJ2rRomHb14K/MCrCc6523SCSZXUSIDIb1Xcd4CYJQjw+Fw+FfmvWWQOdHqSRuZGF3WpdPUljIB7HkeI2EPWnFu+AvqYLXPCHkwl9WHV/a89N1/v2fvg1vMDd/9Tb0XnSPwd13T0fWXyxWz24jWm98XQuRul44DFqdz8RTJBxp+Asd3BRB1LHwJ/gF7UFyBRA1+vzV25J4QuoQx+z5HhTVF3qCIOwX8RQJbYHkk/ZB3oWHpEXzSFoJh0Gr85l4igRBEARBEAgRRYIgCIIgCISIIkEQBEEQBEJEkSAIgiAIAiGiSBAEQRAEgTiUr88EQRAEQRAOglZ+fSaf5AttgeST9kHehYekRfNIWgmHQavzmXSfCYIgCIIgECKKBEEQBEEQCBFFgiAIgiAIhIgiQRAEQRAEQkSRIAiCIAgCIaJIEARBaEPimM0XUMjP0pogHA4dKooGkfhiEsMnzKYgCIJwtDg3ANyMIHITGDhnwgShxbSNKIrP5VEokFVglpXvL+DKxdMImv0VPBHDyB+MIHbWbDfDc7PILzdhcZybRu6H+h4WJum+pnNYeYO3F5BCArPfX8bsvgqotnb4XBVMLogFdEeksODLJ14aVoZ76V0VfzFlwitJLVa+I95uFLcZ4nML+8wn9Ukt5g/kPK1CpZObvt69VoTXpGODMmHguiA/t1fJqPNez1EZrylTfK1DSEO+dvX9KIy3Q4X778N//1y31IPj6H2V9WOj+B2CSqv676Si3F1dBU7R9ilg9aoOOqhyxfVv3Ty273qZ3lFT8Z18oJ/beZ/5uRcpfH/vs16d0O71RCfRVp6i8toMIpEYxv77HF7b/jAGz03gyhcjZq+PV8dxOjKI+J+b7WZ4xELgmFnfhfjJfgR3lhGPRDAyFcdAfxD263G6rxGkSaJZDzdxEqG1lAuYofcToSW3E8GQalzTGDFhkcsFWGd8Fc1WTofzMpw2gT6oko4iR+/bbNORfaEyyl1RqWj2pIzCZZO2121EzupUTw+bsMgMCl2xSgE0OYQeOq4+KQx1F5EZzZrtXah+r9SIFunMFV6FcwPo2cljzDSqLcW9H35mk3cmB4B5c4+X6e7OcwPKDWQMuK7DZ9YsxOoI8PhclOJQvUP5M0Fp4uR5XRd1Nja9/p6T1VKCy51ZVWQxFqXnjY7R2iExNdKa63Ge3+T2LUp5Uedxfp/R0f9pIgjtQht2n22j8IMM0n88geV3jiF88hmcVpbFMha+s6KtJLXNjV4S2TcKyH3VCKffnkausILMVBKZ73FcY1Wx+j8TBgIRJI1SDz51CQvf5/20vJHHwleHMUbqPdkfAE6cRrbw9/jbv08iQpvBJ7JkPbyK1wsxhBFA5CIr/LiyavKvLGCZ7iE/dwlXlulcLyf1vSCmtpdn/oPZJk6SVbGij/U8YEFtNazQfZ4cRPIby8YzRZb0F3n/IMa/ZazEN1aQe5GP1VbH8stZ5FXcFWp0BtW5hr9KFpA5Pv8Xwzrsy15YgayS6af46uYciwtY4Ws1sNrbG0qLrjLst8ymn631phuO+EkLxWu+2JN9sNYyyGz6K25OL7JSXYvds8z8XpGG1qfZX2Hlq3xswuk97GpxctzFWfXOVPx9WbOHQ/y4hbK9Zbb8lLDuE5wLp2zkKW3rQmmPm9WNEh1TRzTUksVqxTvjd9sDe+OwJUQIVsDGNguxqTFPkF3dhq1WeL+XJtnRPEpdXKr9kEFmFbHEcR4lg04H1uD3IOky3Cif6vKuw5w86A/z5V3lRZnVnqym0v0O2Myj2D3klQVCicC1gpHL7CVz7q2BF8RXrpx7Vx6TOR1eXadVpFWvCaxILzr2BXpuOhfH9Zdl3ubzVaY33yO1Cb52RZ/PuW9zX1x2qf0J9Ccp7HW8RoJYH1PA361yGxNGTJ2PDven/a3Vmnvwb7vXqnhH9cKE/dDGY4oK2PxnKh4PW+hW2114cPMSYhVWEllkb1Oz/+jjSmRE/qAbwV9s4l/+XQy97+eVt0dZVaz+r5eMh4GVegLpPz0Na2uO4sQw8bqNRz55Af1rUbLa6JrK4vsd/OffofPTZoktuugTeDySo+pdW8ZRY8kGHv45Fj7N2xN4eW0b+PcfxyjveOIx9HTtoPj6/1fFY3GT+q+fwiPbOUzQsRRT82wKid+ip/36BaSDzyD2ifeRp/OxRTjyFXqm9DhigRVMPElhf5YHBuIYf0IfGjhWwvQw3f8NG+FTz1BxSGD4kxa2vhFTx0f/yyLwXBoXnuCwOCJPktDceQSP/WmaYmq6HtjEJTq35yXpAEyFUigkyfrKuI2OW2GdBzKOR+hcEFYoZiqpepUrNT6UwVQDZkj1kki6lUX2VhHoHqAYDmH0IKPStpFXpLqi1xUikFP7/V4BqrzOR2Abb0Fkg8++B6Ee1+vgecjuNdpI4PRN+j08ruCjnDbvlFmusKOw58dQTzoxnPZ1RW41Dd5r5Tsji7zf9gmyFuPeD3uBar053Ohbm6sk3bZgl8Poc94fCcFwwCKp5IM9XFRLqNSk+ovft9fwGqgBTTj5kfKefcoRO7X5ND6XMJ4KjqvvLbXI5ccJy8HuT7jnD/RbWOfwep7VA8CyQALWQtRt5LX3ZOmW2aQ79Dy/RfSYsubC+at33dx7BHnLuXfKj5YOr6jTKH6C8oJTDtcrSpuTXtQ2GMdNZT7iOoLy0VuVHruRKb5HahPcdqVBmmIMUWp/dE/I4/hU1Dkmgt8d4DampO7LuV837U++CrvqHvI+Dypfy+IxV753VC9M2B/tP9D6/du4rVZKKHxp2RMThpk1Mg1DfUicCOLxR4Mo/ziPF97exu0TJHC+NY3Rx+uMSjrXj9BDZRRvZLBJZ1z+0g1s/uIYgv/htInQPGWyeDI/0euF6+vYfiiEXiqckZNhdL1TwMuv6n3WSRJ0D/8j5p5PY0UHAQ/0IPG5j8N+dQJjf01PRmbu9u0gopezmP6sHk/1eHcQxz4SxUR2BStpqlTfD8AyVs67G+xNo/t/812UVaW6ge2dAHqfuYLZLw4rMRnvD+FYuYj8S5RO7yxj4gebuP1QEH1GWJXe5HPo9Y7B132WoWbBsZ6yo1FdGc0DCccavkoVkomrKteLPk+Nw47ta6RT6Osq6jEMV6u7Y0pepTS1TlsGVwCw1Wch6Gu42FOBtSW3gXS9AqrRK2hPAOM/XyO2vG6g9Ea7zDHl6z7jdHc8WG66Z4Dz2grWFbZuPBpjPCyM6wkgy9oRHDXnr3qv/nfGYmMfHsO7xtedt95b6algwZ608saYymJsnrt4+dloofJcKvvzoMb2ed208M7DYgFqvACpXsf7wOfx573afKoaeYrr3RN3VfniUSotrVE99ajeKvvybKvgsuA2+uydVYLRwzVyLkYQqPKkcbkKuCK0gFiI6kV175Qf/V5fQ3U5rCw//nQwUP7K75h8pLpgKR+pvEXitKEXZvc0bRYv7dNYr74HFQ70UJmK2jMVwq9emLB/2lgUxdAfDgD/66fImZC6XC5g8wNS+k8n1DgQtvC3L8eReOE1/PShfiTSGVwhS313yvjXD8zq3fCjORS2Avj1/jiGPxbE9o+XqNnT3C6XgYdIuPjNwQ/KKL9/DNbxsBJAeGcG8fPTeK10DP2fvoTMi2RxEuV/uILB3xt0l/jXVHAdcrjwmQlk1m7j158YR+blJD5s9rj84l/xvlk9CtR6cwiuvMqV4kShws16A9iad1zbuqEJ1Bn74CeFhYsW8qYxzDVygdwP1IhIhru0yrA+8QqilPfDRghwNzWv+4VDDezhVelKlrUjOOqN96h4r14XGouG0qF3nWm40Q33GvGyWNAeHb/17hd112xYO8YrtCvae5KjutFJN+XFds5jvBV1MddjsdY+A7W50WePZxyzp1ApTEgQs4h0378J9qM9L97zH7QYSG/YKh953etmjNNGn8rDu+bdA8K7B383MHemlhGw/I1JvTDhTmhDUdSNwScSuPSdJAYf3sGNb6drvEOVzGDlx7cRfoIaM1LSr5tKYfO7aYw9n8VGuQvBPh2GBz6MLv6M/xZ7ZKixeyxBVwvi9JeH8PHADoo3lnW8XXkQH7bqeJ8U28j8aBNdH4uj7yMlFP7SkUTAz96cRm77EcQmydJ1f0rgXSx+k+L0j+KKGhNE/GQR6dELyG6U0RXsxcb2DgIfiyFZz+NVj3eWMTceR/IH2zj2a924/U/buB3oQfS5bjVW6tLQxxHYKeKG8WB1OsoCrLIwlVXljOnwMzlEdl6tRY4up+tCd6W5ng9TIdv9VV1ifrgbx7XyqweKGtHmO16JLm4AeXwJvRdXQLBXw6x2LMr7ZbxsLpymAdhvPumJAFq4m5ob9NqGrI6Y3Yuq96qFcoJEmH8s0+HiCDL2dvRteN3ttZhu1Drizdqjgduyywif2t/YMvY45bY4jUmQbIUru6/60VzX5QGSvlaAdSpR4QVhKsan1Skb2fdsBHYrl1Wo+D7jid/Pnkytw+4ewpBlV+ZpMxzDOl6d8i1IU+ceuPvOzctk/M/zpyEx3xijemHCndBWoki7grMkEJ7D4APryH4pgfHrZucuzJEQAVn0O5s3lFdpeGZZKfnCK6MI7dzA4rcp8PV1lP5NN+Kv5DE7MIPxr6+g/BujyBZyuPS4hdJ3L+HCntd6HetvU337bM4MYq5l+4UCNh/uQtfba8hUdEutIP38HApUfY++mIKRQMBfj2Hi+rt45MwlzL7wdSwrD0UOox+1ceNvMsi98BJu7IQRT+f0M33vCupfmRnHghlQnf3kg9i4/jLmL49j7lYZ3Z/JUnpcwumHS1j8ygWVTh2L68nxjWPxDbosXKSm+fKIrmT94Ty2p8bToD0LqiGu26jris4d/1GNcrM790Pqu1px0f4MjyMy98D3O6M8BmT183gPMx5HdaHoIzoMb0yRSvd5Tl//IFk9xqJZK54t49ruBkqr6jESu71X5bEKIHCYXWeMvzuHShg/c8jSHjH3Xs24ILdrqFH6qGcwXUb+Z6XFOTd3F+uxRmbfLoPvvevx8bobNj3Mgt/pfuNxUHt1bbYAVX5Q+aEDobrWnHurVzZImKjxeeaZ9vR+ueOydPy+pkobe7LCsGxjdLnd5LRQntOeLe3tcsZ77T9Nuf7Rz1Hf82TuYbO2O5MFbt6ia9F7d4qMP0yk0Z3xoXA4/Euz3hLo/CiVOrO6vxO6n5vF3Oci2P5uDPEXdvdxCR73NJ9QZbdwchUjDa35Q4AbPh442gYDJO9tmeUvzVArgu4R9zIt+Dd5Bm6NHL5QuUPut7r+cOCPE/hjhXsgWNuUVuez9h9o3UHw2IHsZz6O229mMSeCqHMga3WdrKvDGCPgwZWdsTp5OWUbD9L9ThpLdlS6AIjs6Dqseh8GCPcF2rtX+YWt0HrEUyS0BZJP2gd5Fx6SFs0jaSUcBq3OZ+IpEgRBEARBIEQUCYIgCIIgECKKBEEQBEEQCBFFgiAIgiAIhIgiQRAEQRAEQkSRIAiCIAgCIaJIEARBEASBEFEkdCT8a796ugT9V4d5Uxk40ymkFvVfodPgX7Zu8LOFPN1Cw5nK7y38A65eHiwc4o9Q8o+B8g89On8FQbgTRBQJHYieuJUnfA1Z+q/G9k3mqn8WPz2ch3Ve5gE6UvB8cnb0kH+BfC/0L5RH7cqZ2xtPBNsqshibtxFtU9EoCO2OiCKhs1CTYyYRCYTVJIqxEP/dzRuUxtKm5c1GLxwofu+cEin0fvxixfHUqb+Tvgk1nUab4ufnUr4pT6q8HPy+/Q282eYJQ9HbRg0/z9S/k6svgpRna1Y/o5qos3KKF9eb1CDtdBrNepPsuunhm3g3PwSyDzQ8ySr6xFskCHeAiCKhs5gaQeRyAaU1ssidv8YrFLLC3oztvoY0+x7Qc1J8RQcONfYJnvXfeEV2nwk/gMgpIKPizqDQFXMFQKA/Cszrc6iZz/0iaGqJ4noNfKrXQkHNqL4F2xd+r0n1hlHa2GXuulCPfsboGEKLemZ87U3iWdUTe3bxBvotrLtpFzVCMwZL5X8Kn7dhBUxkYsu20NdWnjRB6AxEFAkdhLGwL0YQ7k96f5X1zV1lumHlJYeYZ4G/ZcPWa8JBcnUVRUSQ9IuYhpRRmB+D9qNksbpZhnVcv5/ymjfhZfZWEeWuoHqfGo7rNPAp9HUVsariZrG9w3/bEZ8Hx0mbrbx5RnqGUAl516OUxtIaYD1qNhtQXluimAynB+fmqvPwuyjrVSb7nuR4QbgTRBQJHUQWY1H2JpTU2CHnL1vf1Z0W6Q2ZmLL16PcR2ehTAqBVY3xYKFncVTbZB2tzteZdtwNbtifyWOiMsDi/LnlQEDoNEUVChxHHgGVj9arz1wRXEMfsqTDs90zz+ajljbcQDh7u0iQB4IiCsDPW59wsoiG9yt1nXhdmCkP9QPGWfj+B7gHXM5Q6GwGqhQ97Qbr6sNBrucfwOw52mdU2gMc42f3JJoRhGutbYUTdr9J0Wthv6a36aVePLdjlsNdFdm4APb7us/hxyfGCcCeIKBI6jCzGhtkz5Px18A9e1WM2nDEu8eNeAywcIDyA2OkmOgPdlaPGAMV02HlK9y0TF2XYVsK8nxhwXY8DU3t2LCTMeWKoN1hZd6GF4XRBMSFYO+umS6kdYO9QDjhj0oMXSpPccO0dpod5HFGyNi0apl09+CuzAizneuctEklmFxEig2F91zFegiDU40PhcPiXZr0l0PlRKokbWdid1uWTFBbyQSzV6WIT6tOKd8FfUgWveULIhb+sOr6056fr/Ps/fRveYG7+6m3ovegeg7vvno6sv1isnt1GtI4gayVS1wuHQavzmXiKhCMNf6GDmyKIOhb+BL+gPUiuADJfvS2JJ6QOccye70FRfaEnCMJ+EU+R0BZIPmkf5F14SFo0j6SVcBi0Op+Jp0gQBEEQBIEQUSQIgiAIgkCIKBIEQRAEQSBEFAmCIAiCIBAiigRBEARBEIhD+fpMEARBEAThIGjl12fySb7QFkg+aR/kXXhIWjSPpJVwGLQ6n0n3mSAIgiAIAiGiSBAEQRAEgRBRJAiCIAiCQIgoEgRBEARBIEQUCYIgCIIgECKKBEEQhDYkjtl8AYX8LK0JwuEgokgQBEFoP84NADcjiNwEBs6ZMEFoMW0jiuJzeRQKZBU4y2IKmFy4ayshteg7Jy35uf2eTVsrC5Nm0+HEaYx/K4+VN5xzL+PK02af0EJSWPC9T3/+8Oehhu/53CzyfAz/rTkPnZvz3Z1S95z7I7W4QHdRBZ93t/vaa38LUeWr+tpUbqvTP7WYx6zTsKl08m0fBarfvZsmxtuhwv3P7M/Hdd65guPofZX1Y6P4HcIu778iP11dBU7R9ilg9aoOis8tHGy+qZNX75YDv8c7hvLPXbaf9yPt5SkqFzATIcuAl+G0CTwAtnL6nLRER7Mm8O44/acXMPyx2yh8/QLi6tynceG7ZqfQWnz5JLcTwRALVqrckt1FE56D3Z+oX+me7UFxfgwqF/jyRSRqwu6WVpxzL66OIWNHa4X7oVCif7Hdr02NYLSr6DVsJ3voHQKRsx3dtNfivvsZFLqiOv9NDgDzJj9cLqLnPDdSLJRiwHUdPrNmIVZH1MbnohRnBGlKv4Sbt3mhMBOnU7Hp/fecrG6uU+gLmVVFFmNRet7DKkeCQHRO99nJcWS/byylH+Zw5dmgtp5+mMHoCdr/XAYr7K05o6M3psrzo6wWx/IaVN4fdY03VpB7MY6gCq8l8NAx4IOfYftHK9g0YYo69+lcc/nlLPLKs7RC1x+k8EEkv7HsepsWvsgnoLC5nBu28r0MkicpWN3nMha+s0LhHW4pHhj0frrKsN+iteMWypurpvJMY2kNsB5VGz6o0kUeY6Zx3h2/ha/Tm61Y16pkL2Yz3hmK5xcMfo+J3/pvVtCo48kSrT4uO5oHeu9FrrBgbxRgnWmcJ1kE2Tedhi2OgW4b+WgepVDfEc3HIVgBG9ucz6bGvPx2dRu2WuH9JaxPqQ317kpdVJ/pTQOlk1XEEsd51EJAB9ZQm4c43y5QHnHCnfxWm58rwyrzdn5uVnuymsnjd8JmHsXuoYr3r0TgWoH1MuH3pNX3KqkyWHXv/vJRU6aq4/P2mTAC/UnPU2z2V6ZbvfRk/PHrXI/rbEo/r7ei3jl1WIUn0PXu7PXOTJi6zqwX7j5LDOFABMlG6SfUpb1EkXqB+sVWZrAILl2MIbA6gRhZShduknR4Zhz2/7GIDfTi9GeHMT3Ui/d/lMWF6+YQP6GYyUS7Z45IehyxwAomniTr5M+okRmIY/wJs7OKxe9SRfZBGMPfzGNhehSnWZg1uM/T6gh6vGMlTA/HMHHDRvjUM4g//Qxin3gf+U9rC3DkK/oe4r8F5L8UQ+SP5vCPx3oRv3iJzsx04cHNS3TuzrcU7wo3nyTRs5lRjU72PRuB7gG3MhnoDsA6bip5h8k+WPaW2SDcfFHb3ZZaTPgsfBtRqtzSw+yB4oqcKqZTQK6eN3OXc1ZAFXICGWP5z8A+1VhUVBJAxFo390Vi5JRTgW7B7rpHIuOtMWQaeDv0u7BdAcDjRHp21in/prG+FUZfdUPSybjvnr1AtWWUG31LCXd6V2Xfs1O+DAcskko+OJ2wrYXk1IjyiNY0bg3zUJiONeHXbeWRi88lqKzMmLj63lKLXH6csErvaqDfwjqHH6TH3odlAaubFqJuGUlhqJtE4C2zSXc4ou6LFvawVXsVWQj0mnJAS95y7t0rHyNOnmPqxX9rhNKnhPIapYHyRjW6Zm16anHieftUWaxnGFCe6NswcfhY5SlknHNGMfao38utvd8JSpf676y2XlKEetxw7T3nZ8mhpLzqdI2mDEGBadvus4oMjcfRfeIYNQATWPzhCqZPWbj9Kxb63pnD3N+WEPzkOB57eAOLX2vgZHXd2rtnjse7gzj2kSgmsitYSVMF9j41rL1mZzW3KNP94QSyP7Jh/W4Cl75Bmf1Eg/s0h7y7MYHld7ax/Oa7KHMluLqJ7dtBRC9nMf3Z08orxfeAdwqYeH0b+EkG31yjv8EwBtQZSih8aZmqyvscXz7JULOgxIfbcHCjlIC1U4b9Xm1+qAhr2K3KbnyqXC9qcVO4GEFAWfL0zkl0x0iMWTcbCNOG56wk1WssVHW/SUQoPwSbsubKKFwzV766iuKOXuWuhm13/fDJjma8LiM/k0NUsS+5aaW8Rht6K71RQvieeLdahO/dr/dWGnbsCUhaeZMnshib50bU5C+qY0plm6RSJbZPwKeH+bx5WJwnTUPYOA+VkHfy3tQ6bdEVbxUBiuvdE+dxXzx6Q37vannNe2etgj1ktmPIsMHieno1rvfELX8enI8CPgMkRuVV37uvfPhoHL+S+tesTU8tWgvak8dcHUN+q04ZpjzhtmV8rCt+vXPyeyy5nlR6E9cK9CJCDd5ZvXqJ2PI84FyuhDunc7rPKLP/4+wgBn/PWeKY5uAPgNsP8N9/NW7Xu6P8D1d81xhE/GtmRz3eWcZMcgTRP7uBnS5S53/EgQ3usx7vzCB+fhqvlY6h/9OXkHmRLI8q3r1tVoS6qIrDVKy64eAlinXa5m61O6eEnGng1NKCcQ0lx8o099zZ1hw39M6YGY9Ur4XiLSflUhjqDyDsiIEzYbJwj2YXml/wcfeJ8uj4vS7UiEadd3+NDKsd4xXaFe3JyPnGcDWdh8z1WKy1T/d7GuvKq6E9r55AIyYXlIjUz5XTQqQK5eFxn73akK5lz/hNXPNQqfvOWl8v3e90iCjaICs4gJ4nkqabynAiieQTYbx7naxURBC/WCsqatnEz0k9PfLRJLrpX4ItCLNng0ztwMdiSD7OPptm6cZgn4VjtHb7Fw3uczd+soj06AVkN8roCvZi4x0y909EcInv4TcTSA0EcfvtAhZNdKESNWi3ysLkyi3mG9jrp6ZLrS66e8Nz7TuksHAGVCnlgF3G0FTjekPOzSJq+ki27DLCbtfXQcDjq8zqvYIHfG/2IHHK0tv8vP4xXNxN5POm8MKDjGvTufNR1v9GWnkeuPuksdeQBMH5iOs982NZFR1qNdxJHmLDIac8Grr7sqL7qv9uDYn9w14R61TCdKl6qDGCjqeM841ec1Hd5aoruzmaib/XNStgLy21OeojD0aVbTOOzI9P9HP3aXir8jkZJaB97zF1NkIvotJLqN9Zo3pJOEg6RBTlMD1/A3YojkuvaCtz+cXzGP3yCLrfZxfmHL55s4SukwlM86DkXSngyt8UUO6OI1vIIPbhsuthyr3wEm7shBFP57Ql+70rGDb7qhl+cVnHKWRx5dkQWSFZzF2ud5+NzkA8fQXL6hw5jH7Uxo2/ySD3/CUsbgZwmu/h26P4+C9WMPffZqTLzI9v7Bn3xWdUg+Mb9MjCpZ4FNbUOe4+GRsNfvfAYC6drQo8PSi3GYKluBe5qaDSGpoqpJRS6jNv+PFA0dV12NOrr7qPlrj+dDcGqaljuBdyNVjRmhr+rjHGEgh+/p6/j8XfPUJ3FnoiQ5fOMqaV6YK0e11PjtVCNrukaIZHvHe+dez95yLseH6+Fqh4j5+RxHh9zD7yV3O1EdmCxqstLda0598bdiybcZWpEf7VnnmlP71ej+Fwn8HUo7bDXNSuo6gK92IPi5Tpd6lTe+8w11bihemO0Krr+9ftlEV37zurXS43RnjgZaL0/PhQOh39p1lsCnR+lkvRxCrtzWPmEfwcIww3GA3UwXIEOvRfdswuhGQ7mXZBIzQex1OHu/XtZf/Hv3QzcGjl8oXKHSF1fBQ/uPruNaIsGq9+vtDqfddCYIkG4e9LXbETv2ivTZlDly79j4w76bAvSGJHxDndFdnQd1sV2Gf8jCPcH4ikS2gLJJ+2DvAsPSYvmkbQSDoNW5zPxFAmCIAiCIBAiigRBEARBEAgRRYIgCIIgCISIIkEQBEEQBEJEkSAIgiAIAiGiSBAEQRAEgRBRJAiCIAiCQIgoEgRBOCB48ldnCoa9p2E4SOKYzfMPPTp/BUG4E0QUCYIg3DUsRgqI2pUzsTeeCLZV8JxcNqLNzMsnCEINIooEQRDulskhRHb0RJ418BxYi7NKNOlJW7WAqvEmTS5gwZl1nUgtmok8KTw/N+tNeOwKHt8kyPkhWCZUTbIKb3Z2QRCaR0SRIAjCXZLqDaO0scvEn6EeYD6CSHQMoUU9M772JvGs54k9ZzEP9FtYV/FnUOiKqvipxRisNXOeeRtWwEQmtmwLfT6BJQhCc4goEgRBOFB8HhzHq7OVN7Pdp9AXKiHvepTSWFoDrEfNZgPKa0sUk8liddOmv1XnubqKYlmvMtn3OI4gCPtFRJEgCMJdsmWXYR13BlWnMcLem+syOaogdBoiigRBEO6S7Ggedn+yYkxQfdJY3woj6n6VlsJQP2C/pbfCvcazdG4W0ZBerc8W7HLY6yI7N4AeX/dZ/Lg7wkgQhH0gokgQBOGuYe9QDjhjus14OQPkhmvHGaWHeRxR0sSLAdejumttagmFrpgOPw8Ut3T8+vBXZgVYzvXOWySSzC4iZNlYnzIbgiA0zYfC4fAvzXpLoPOjVBI3srA7kk/aB3kXHh2ZFvy129ltROsIslYi+UY4DFqdz8RTJAiCcGSIY/Z8D4rXDlcQCcJRQUSRIAjCkSGLsajpjhMEYd+IKBIEQRAEQSBEFAmCIAiCIBAiigRBEARBEAgRRYIgCIIgCISIIkEQBEEQBOJQfqdIEARBEAThIGjl7xTJjzcKbYHkk/ZB3oWHpEXzSFoJh0Gr85l0nwmCIAiCIBAiigRBEARBEAgRRYIgCIIgCISIIkEQBEEQBEJEkSAIgiAIAiGiSBAEQRAEgehQUTSIxBeTGD5hNgVBEARBaHtSiwUsTJqNNqRtRFF8Lo9CoeAuK99fwJWLpxE0+yt4IoaRPxhB7KzZbobnZpFfnkXcbDbk3DRyP9T3wC8uPp3Dyhu8vYCUiSLcS1JY8OWTQr7qnU4uVIRxAXTjmqVegXQKanU+zM/tmWOqoPtbrM0p1edt50phP6j0rX5eegfV6ZZazGP2nNk4R2Wx4Ns+CtR9pjhm81X1Bsfzpxfn1/uwbqkol6q8UrmpLsstpcH11Hvcz/uo844b4NQBqmyo916n7Bwx4nMLlWWCnjtqz2Bkymy3IW3lKSqvzSASiWHsv8/hte0PY/DcBK58MWL2+nh1HKcjg4j/udluhkcsBI6Z9V2In+xHcGcZ8UiEXlwcA/1B2K/H6b5GkDZxhHtMuYAZej8RWnI7EQwpgcGVE1UyvYD/Z73SwzqeXnIo0bFL1QWSKsIocm5BLV33jomOZnXgAeCdNwecOSqioET/YruLPE7friJWr+rN+MkeeodA5OzRahDsLRs953dv2FNnI7A3vJok1RtGuWwhum/x3cFQwxij8uaWy+gYDq6U3SVXxxBtSV2fwlB3UdVb0VFg9hSQ42cfvs9alamRA61TW0Ebdp9to/CDDNJ/PIHld44hfPIZnFbqfRkL31nRVpWr5pPIvlFA7qtGOP32NHKFFWSmksh8j+OyJULxWJWfCQOBCJLGmgs+dQkL3zeWyht5LHx1GGOk5JP9AeDEaWQLf4+//fskIrQZfCKrrJm/Iusm/61ZLBhP0kruCuLchcfnr/JOKGvA3Hf2W8ZLsDyLxHOzWFaepxVqSAYptm7Mc3NOOF9jHLyHuwnHnWPfWEHuxXh9z9l9C6VHVxn2W7yexViUK5l1tace8bkocLO2Ao6ftFC81rhySi36LUG/hWmEGL+ffVmXaaxv8V86ftHXiHJ+UZajtj5nHe8Sh6m8xNdxxJSOo/K2Cr8Tr9ZBYFEjX4B1pvHzswiy3XQnQ6PbRj6aRynUt480a38srCNPIj3R8D2k0NflF+V6OzNfBLoHvHxwxIkft8yaA3t/Ywg79fNfUZ6u9qbRtvI2zun8rkU4H2fKn1MmKW6e6lIVXu2FccsQ7+szgf6yxmWLzsnHmWu6qPPSFSrK24t0LLcRYcRoW9+Tv05wyiSHOc9HYTe8Y/Q56pfjRvWOPx1cL5s51jFOVJxJ//N6Z/J7rb179tU3FXWMOb5O/VbzPuo8QwV77W8T2nhMUQGb/0zm5MMWutV2Fx7cvIRYhYqfQeFtEi2PPq7EQuQPuhH8xSb+5d/F0Pt+Xnl7lIeH1Gnkesl4GKIYu5pA+k9Pw9qaozgxTLxu45FPXkD/WhQza3TNLbZifgf/+Xfo/LSpLHyyZrjtDZz4t1j+XASx1DLsjwwi/vmYupPGBHDs7QlE/mgRpYcjGH3m32Lh03TNG2Ul+IZNrOBHdnBlOIL41zeAjw1j9PNBRNLjiAVWMPEkXf/P8sBAHONPmAPuZ0zlUigk0bOZofdpwndFW2o1XiIq+AOUwbZ95wifcSoCp3KoT2oxAcxzHqPlso1odSXcCKqcoyG74pq1hNGDjDp3juzqwnkgw9e5bvs8LFSx9q7r60dysPsTu95vy3hrDJk1C7G6z69F0LqT7ucG0LOzTmWYhWEYfaYSPyqkh3d5D5N9sDZXPVHubF9dRZHe9sC9eHf3gOxoBoUuytNuQ5vGiPHiqvr5T5ZovyeYU70WCspoCSBi6fzOXvzZfB/WVd6n5ablitFAP8lTDqvwwlD88xHYjreWqllvVk6nrHHbYIKm1itEO99D8VYIC2eMh4eW6OjzZIhxG1FSYexpTi1yncQ9HhzHyQtssDnPR8c95h0THf2fdPb9lmMvHWY2e6guNOlwmYyTU46RRXFOmTojQtej9HaES8LUKxxun3LegVffOHVMfC7he5Z63jPf+3iLBJj7DBHkrapnYEG62/42ov0HWr9/G7fVSgmFLy1jW617zKxtApR5EyeCePzRIMo/zuOFt7dx+wQJnG9NY/TxOr6Vc/0IPVRG8UYGm3TG5S/dwOYvjiH4H06bCI0pb+aR+Qk1oq9PoPAOSbVgr9nTiHepQVgBfjKNdYqvj6drvvlTlF3BR0/3JnvGgM2X8iiSEAt+NIrHu4M49pEoJrIrWElHYb0fgLXX5e4HfN1nGSrizVgd7CWqaJD87NhQjhuD183lqyRrICs/RJXCRSOgLkYQ6AqaCqk+rti62IPi5b1c9CXkjZt5yy6j5HhauLJWoQxVrG7FzyKD8sejZvOQ0Q1dtLaimxyiinXJfVblNTLdR+mNEsK99YRUJ0MNfIVwdaBGmRop550yuqHl7SxWqRrrOdm+1vPBYry6bEjU9RpwelhGMLM3zel6LRtxRLC4Nt4WVabOhBGwQmpXec3Lby4cnwxt1yiqKkf+96JJY4mEfuU9aCEf8/UKVMJ1gv9cfA40USb3W469dMi+Z3vPy+J6RwUTFGfe8c5yepZhHY+r7tpAf1KnGRmVkYCFoCqzvvs2aZO9VQQoruN9qsW7Dy7XgRALXf0+YlQ3+p9hr/3tRBuLohj6wwHgf/2ULOVdIHW8+QGp3KcTlCFJ6FAls305jsQLr+GnD/Ujkc7gCqn73SnjXz8wq00TxIMP0J99H9ckH7yv/pT/4QoGf2/QXeJfU8GCQRXcPbsetDdIN0AHibb2HOtnr7ERzYmtToUauvlizZgar+FXWxjqD3jikLu0j1gXmmJqRHn3KhoT10NmUN5CT1Rzt33gPupCU6jxOzModtd6DbhcWyyYq71rfnzGkVoOeHyO/x6cbnc1RnEeSNA7a+cuoN3wj5nctS5S7yeC9V7Oo7XdZ9XoMcHeuasHU++1v11oQ1HUjcEnErj0nSQGH97BjW+na7xDlcxg5ce3EX4iijBVOq+bF7z53TTGns9io9yFoNN9/MCH0cVjgG5tYvt2AD2PJehqQZz+8hA+HthB8cayjrcLgf+tX/0UQPCpcUTo7/ZbrwP//HPcDjyCvseDCD5+CX13MPDnkW49jmjw86fpXm5j6x8WsbG9g8DHYkjW83YJCjVot1Gl6aCsRG+gbw1dFrSN2Qivm4c9TtrtvgW7HL77AbJdXrcJD8IlM2Af+LqfVCNb8rqp7gVUiWY2e5A4ZcaM8D0h71W61LiEVde0VzHOkDV+FAcZczcaziQo32lSZykH+satqXxb1Uh4Hw0IyuvR1YeFClHt4+o27MA+0kvF93VRcl40qw1x7wGV5YrFAhnjMJ4pD+1J8vIzGwEwYx53o1E5rlfvNAu1b67nUd8HpyN7ncNuF1tzsBDMbTkepfqwxyrQP9RQOO21v51oK1Gk3XpZXJl8DoMPrCP7pQTGr5uduzD3o006OICdzRvKqzQ8s6wt0VdGEdq5gcVvU+Dr6yj9m27EX8ljdmAG419fQfk3RpEt5HDpcQul717ChSauVX4/iOcWC8h9YRDHfryI6RQVjr98Ca+9beGxdI7Cw7j9LybyPigf68f0GwVceSoM+9YcUi8BuRdewo2dMOJ0XvU837vijkG6r3HHFJGF3V1Epsb1XcWjFgI72w2Ek+662K3Ap6/xQGJ9vQSJK+121+MEbNcVfSeWI53jpu16C/rsAspmT3PQnSgrjpamuuRaD3ejFY2083eVMey6L/m2meY8fZ2I7kajaonwdwEx9T2XR7M7sZbKn6dwxgWSoCBR6HwIo8ulRULAJ6oroPTlMTTu+D9vkHF9TLem091d9ZVqfZx7cDx8voHdXN6UyNVxnIHWekyZUyfEgOvNeIXrl+P69U6zlGFbiZr7yI5Glfh26k//B0LV+N9TrOF7MEyNKAPH7c6s9izttb+N+FA4HP6lWW8JdH6USvt7ne0Kf1XGv7FwsJ8U8oDBJKyb7etOPAzuaT4h62zh5CpGDvS9thrON0PYjh68EDqYd8FfywSx1E6fW98BB5EW3LgMvRc98uX7oMsw17d9G0e9XmxNOeYvw4LXjmI3fevbivYfaC0IrebqGNat3QYUCvuHLPMOF0QHBVvn97PBs2/Mp9v8W0aSbsJhI54ioS2QfNI+yLvwkLRoHkkr4TBodT4TT5EgCIIgCAIhokgQBEEQBIEQUSQIgiAIgkCIKBIEQRAEQSBEFAmCIAiCIBAiigRBEARBEAgRRYIgCIIgCISIIqHD8P3UPi+7/Ew9E59bqJ25fTfOzSK/ePSnWhAEQRBqEVEkdB6+2bF5Hp/EQU4oypOa2lH5dWtBEIT7EBFFQkfDk2gGnNmqzfQAvNROzur3MJlJJzm+3ytktrOjeeA+mJhTEARBqEREkdDRuDOvc7dX77ryHvGStxJV3WZpjJh9kctF9Jwl0TO1hEJXnztbc6rXQkHNfL0F2xcuCIIg3B+IKBI6j0AESeP1cWbRjp/sQSAUcz1FsVAA1qMmvoFnK1f7L0YQ6AoijixWNy30qa6yFPq6ilhVs0pnsb3DfwVBEIT7CRFFQufhjCm6XkL4lDfQurw243qKeKmYYXtyAUkrb/bl4EwnmL1VhMVdZZN9sDZXZVZ3QRCE+xgRRULnMjWCmc0eNdA6+56NQP9Qwy6v+HELZXtLb5AACus14Ooqil19WOi1ULzlSKI4gl1mVRAEQbhvEFEkdDTZ0QyK3UksgATSmoWY6T4rFBYqBBIPnrb7k3pfL1xPEXeVcRdaGHmMqa4zJgRrZx08ukgQBEG4f/hQOBz+pVlvCXR+lEpeEyQI9biX+SS16I1NYnjs0dB70T8lBiYAAHlySURBVMrut/sIKbMekhbNI2klHAatzmfiKRLuX8wn/DHkPAF0bhaJ7iKW7lNBJAiCcD8joki4f5ka0QOvh30dZVfHEI2OyYBrQRCE+xARRYIgCIIgCISIIkEQBEEQBEJEkSAIgiAIAiGiSBAEQRAEgRBRJAiCIAiCQBzK7xQJgiAIgiAcBK38nSL58UahLZB80j7Iu/CQtGgeSSvhMGh1PpPuM0EQBEEQBEJEkSAIgiAIAiGiSBAEQRAEgRBRJAiCIAiCQIgoEgRBEARBIEQUCYIgCIIgEPelKAo+lUTquUGzdTAMPpdC8qmg2RIEQRAEodNoG1EUn8ujUCi4S34uDpybRb6wgJSJU0scs/kCFibNpksCs99fxuw5s1nF8JkRxJ6M4bTZrmByAYX8LJ15P5xW5xs5M6y24tM5rLzBz8H3fhqXFlfq3OMunEgiu7KCzGeDNelSWGycGvUIPktpuEL38dsm4IjQMF34/dVLK1+4ylt14HNW7FPH7Jb/9k9qsfH1FZzn9/mO7yX8PDV5ktKt+hlTi3mvPKpy7ds+CtR9Jq6fqvJP9fttQR7rBFS+ccqpqm9TWNh3vbsf6rwLYs/yyPe17/JY2S45dVV+7sW69yC0F+3lKSoXMBOJIEJLdDRrAu+EIKyHj5n1Wmb+eBCR3x/Hstm+e5Yx/vsRDP7xDK3HMdAfhP16nJ5jBGlY6OpqfC/1iH3+U+jefg1zf7mtA3zpEhlO67Am2f7rNJa3wvjU+YQJ6Xy4IktaeZ0eFelCldHxdTcsh5ipmKhiO2WbNMzB7ifRXNMgpzDUXUTGl+9SvWGUyxaiu1aa+4AaxL6ustmoT+psBPbG/t7xvaVE/5x0bgA9d7SriNWrejN+sofyNBA5e7SaB3vLRs/53Rv26vd74HmsEyAhGKPS6Zbd6Bjupra/G9LDu7Q1Stw/ajb2QxZj0QhGpnhd1ytc90RH/6faK7Q3HdR9NojxbxnvwBsryL0YJ+nj4yQ1fCusxv8KrxRiCCOAyEVtBShr4JUFLL/h2+ZK6GQSme+tGIulWsEbLw17WU6aIJzGleUCVjKjZnsUmR8WkEv/d2MZsIWQRCRARz+RJQvoFbxitsNn6BrK4tjjOahKfby3C5s/yqBgQqo5/WUqrMoTRcv3M0iyF0hZqsvIOud273sb03+3AfzG79DdHgFUA0sisa44pMpo1Avfso0AmewDbjoVbxpLa0DPyapGqCIOkyIBU0Bmvgh0D7gNXWrRn0+MdavS3gnnPFDPC0Lh5y2s37TNdj30NZdUZdopWNTIF2CdqS4/HiyCbDdtyWjotpGP5lEK9TU8phOht4v8TgSJhgKn+v3Wz2NHnfhxy6w5UDniOjsQQZK9bX+1UOvlpW3lbZzTHl/X2FF1Ny2Ol0kJmVkd3tDDo4/jNiBO53PLqvLamfPxQoZUZvQts1Pj91Dr+t5f1nlblwNdT/C281wF/N0qtwVhxNSxTnzneo3Lj3C4tJcoMplHZzgTZoikxxELrGDiSbIs/iwPDMQx/oTZSUIj9V8/hUe2c5gY/RM8GcmR9VpG4bJnBQQe/jkWPl1pFQw/HUPv+3nElcXCXh0fz6aQ+C2g8PULSN8yYVjG8o93cCzUqwvgZyPofmgb69ffUXu1hTCDArXFpetsAT2JJ/3b1JDv/hzEb/fhkcA2tm8ZLxFTlS47qy/jC2ThRCIXcON2Lz71tNMRGMCxrWnEnpzADTuM6DlTzf7lT/HuQyH0Pq03OxnlZdhc9YmXRpCF1m9jnRqg6ko4+16tMEn1UuPur/9IJFl8naurKKIHAzUix8fVMWTWjLU/OYSezQzGjFfEIbWYhHWzKo9V41zTbHYMb+nnj9VthLQI4vegODeAnp11Soc01rfC6NvNw9SBpIcbeSKJ6ve7nzx2hMiOksHXFfMJgTRGuM5WHvEoxv5kifZ7gpnLZuEalxwydC3tCR6ZYkHRh3XH23TTcsVooJ/kKYfVNZz4uChsX9ugYMPmDJAz58ttUdjOdmVZJNGUQEZfLzID+9QQHtr0GVhu3nbg9sB5rgh+d4DbgpK6BnuRUosJYN7c/2Ub0YYiTjhM2rb7TLsePR7vDuLYR6KYyK5gJR2F9X4AVq/eZ528hNjD/4i559NY0UE1lDfzyPzEbBhW3t7G7RNRzHxrGqOP+/w1D/Qg8bmPw351AmN/7RMnxPIPitgJ6Aos/okQiZAC5n5kdjbBbs+h+OivUtF/Hz/zn7MqXX727wfxZ1/PY2VlGo91Acd+xWn038X6l5ax/c4y1rfLCFghE74FuxzAh4/cOHCfpVUxHoEtQa749hAhFdjY9gkZroiLt7hKzGLVX/E1gCv6YnfSWJeVsoaty6g9U5OnK6FnOQXkG7ny2xzd0EVrxYASiUvue1BeI9N9lN4oIdx71BoCauCv23W6Bmvf737z2NFBdy8pIUBlt3ZMD6eHZQQze9OcrlcydJU4IliAGK+LKv9nwm59V17z8lslZLjk2Tgh4VVltChjyxzHPQl9GyRmqjyZ3NUZ6Kcyrq7JXh8Lv7iVh228fP68vTf0XCHdm6HOdzGCQFfQV4cJ94oO6j6jzP4PVzD4e4PuEv+aDr9dLgMPWQg5GqBJti/HkXjhNfz0oX4k0hlcIUtB8UEZ5fePwToeruraIl5dRnEngF+nwjHQHUBpI4NK2bQ3jZ6jOZKY+Mwgbv/gCxgeHETOcVLdJ7CXxxN7TuVa4CEqGtWVxRakV/FVe4Zq3fdVcBedr8JK9gcQuOPuDfZY0fFOZcqVN63XNAQ1VmanQe9ivlgzpsZr+NWWSgvVlWzSAkesC00xNeIbz2aofr8Hmsc6lKtjiEZmyJio9axlbxXJWKScsZv31D/Wkpcmx1taxxunshZEtUa5g/L4u9fkOiaN9R02kuMYsIr77PrWXiP3fPdwbJXg0TGiaGN7B4GPxZD0e3QMP3tzGrntRxCbpAr5hAnEg/iwtbdrZPO7aYw9n8VGuQvBPhOId7H4zQLQP4ork9Wf7i/j5X/YRtcnYuh5aBNr32xOEn34V/V5dnsOxds/pwae7r3h12IBHHugjJ+98y62T5K1sfcjEiFYATrmn81mJzPFrvVYHeuSSWHhPJCp7gp9y4Z1ymmsuWGGr6F2sBA0FbO2Gmd8lV8EuZ0IhlQj53X5xOeitOWsJ9CzOYOZzZ6qMSXcNeCr+K6XyJKdqRncmTrbg6JjBXcq3I3Iz3/KiE5u+JH3rHJq4MJbvgG2tMw43Y5HDO5GwxnKE2a7+v3unscEcJdiVx8WKkS1j6vbsAP7TS8ey8YiLFkzPINFGMhYcQSRKttblUYKj1EMu/WIR3rDRs/ZIVj2frq+2Xsfvr8G2HcIbTumqPqz+NwLL+HGThjxdE7v/94V6A/gmRWkn59DARGMvpjCIF7H+ttA97M55P/Ci1XN8MyyPtcrowjt3MDit80O5q/HMHH9XTxy5hJmn61UHoX/zya2A2TZvb2O7J6emixWN3bQ9dgVFL6T2uM5iB+t491yEMEBs13D61jZOIbIF+j4L/fg9r+Y4N347K/jkQ+2sVnlMu5M9Lgt1VXl5JWL1ODMk5V1Lkjiz5eHeOF+etNY6/AYcL3Wfc4Vm6U+NOExMLWiyenqSV/jQcX63AkUydYjqPFP9FOFS0InO5pvPKakIf4ugs5GdSOScGequxO4+6FU1b2gGqMj6SHR3WhUTRDV73f3PHbU8Q9W5m4oPQaPPS5cdp2By7oLLewX1RVQ+l72yiIv1UKnPrr+sE/RMf4xPI9aKtc6XswkfzFW5XnKjkaVcK1po6bWYYcs2PXEWwX6mfRAa74PHn/m1WP1DT3hsPlQOBz+pVlvCXR+lEqq6RCaJEZiLRX8e4xRoWz0BVrzBDH+cg6xX8xh8DMZE9Z+3Pt8ksLCIjDSpAv+IOFGYui96B5jjg6Pg3kXlJ75IJY6vEvgINKi3d5vqzjoMrxXV9bdw2MSh7AdXUffEcir9wutbis6akzR/ULuhdewGYzi01Ueqjsh+GwKp0MlvDbfvoKoPUhjyY7eE2uNLdCj12CSJS+NjOJovt8WYj6N598yalW6aW8Ve6l4cLXkVcFDPEVCWyD5pH2Qd+EhadE8klbCYdDqfCaeIkEQBEEQBEJEkSAIgiAIAiGiSBAEQRAEgRBRJAiCIAiCQIgoEgRBEARBIEQUCYIgCIIgECKKBEEQBEEQCBFFQgfhmxXftzT7g4upRWcKgWbgay3g6E+6IAiCIDiIKBI6CDMrvppItOzOWF09uerBwLO+24j650cSBEEQjjQiioSOp2KCSZ+I8Ye73qSTegoBXrwJJCs9UG7cq2PIo0+8RYIgCPcJIoqEjofnlmKPES85RHUX2eSCnunahGtvUgARa13H5Rm2T+lZrlOLPAfSjDkHz1ztzXK/ZVvoa2r2bUEQBKHTEVEkHAFSWDBenlgoAOtRCukNo3SzepLHMgrXzCz4V1dR3OGVFPpCJeTdLrg0ltagzsFk37P1iiAIgnDkEVEkdDjc9RWFfVl7hHiskSAIgiDcCSKKhA4nBCtgY/sqr8cx0B1QoemNEsKme2x30ljfCiPqfsGWwlA/YL+lt+LHLb0iCIIgHHlEFAkdDnd3WYip7rMErB3jKZoaQW4ngmT14Ok6pId5HFHSDLSOAdejGFMiiySXZWN9Sq8LgiAIR5sPhcPhX5r1lkDnR6lUMluCUJ+2zCfnZpE/u43osBmHdJ8gZdZD0qJ5JK2Ew6DV+Uw8RYJQlzhmz/eg6AzMFgRBEI48IooEoS78Q5FeN5ogCIJw9BFRJAiCIAiCQIgoEgRBEARBIEQUCYIgCIIgECKKBEEQBEEQCBFFgiAIgiAIxKH8TpEgCIIgCMJB0MrfKZIfbxTaAskn7YO8Cw9Ji+aRtBIOg1bnM+k+EwRBEARBIEQUCYIgCIIgECKKBEEQBEEQCBFFgiAIgiAIhIgiQRAEQRAEQkSRIAiC0IbEMZsvoJCfpTVBOBw6RhQNPpdC8qmg2RIEQRCONOcGgJsRRG4CA+dMmCC0mLYRRfG5fI1FkFokK2ExRWunEXsyhpEzw3pHPc7NIl9YAMcWjjIpLBQoXzhLtRU5uVAVZqxNFT+P2QaVK+e1hUm1VnH+/NzeNiofq+PxtXbPg6nFxvfQiXhl1Ae9g+p0q3huVVaPVjroZ/LyjZcmjfKfP581yjMcR+9T9eOe8TuEXd5/RX66ugqcou1TwOpVHRSfW7izfMPXrM6nTBPthnvNRudoGnqfbt2k84Wucxqw3+vVKXfC/ukQT9Eyxn8/gsE/njHbwn1NuYCZCFmQtOR2IhhSFYtpfHqBip/1miRrc17HjVwuoud8HVc8VT5R5DAyxZVyDLhu4tMSHc2aSI1JDzcX72hSon+xPSv3aFfRa9hO9tA7BCJn76aBaUO2cibfzKDQFdUNad38x3nVy2czaxZidRq/+FyU4owgTemX6C66eT4SoTATp1Ox6f33nKwuiSn0hcyqIouxKD1vdIzWWsTVMUTvSXrqZ+M6R2gvOkQU+VR1lSfAs9I9gk9NkyI3VtX3Z8H+peCzV5D7oROWxfhJCmQlXlhG9lvGClshi4HDTyaR+d5KpVVGYbM5E/bGCpa/kcQgh6v7yWFhmcKrvRZCi4kj2FWG/Ravmwp0eF3tcZkaw5hpjHF1G7ZZ9RM/aaF4jatFPp8O8+P3ciiL3WnAjCWnLUnOo0lEAmHEKI9okWCEmspHPsv4JOUZFbaHpdgRWLA3CrDONLa2WQTZN52GLY6Bbhv5aB6lUN+uFnrnEoIVsLHN+a5u/uP9JaybBjE7SmnRFayqOyidrCKWOM6jFgI6sAa/B8nLc5Qf3XAn3/nzovOu/GG+elR5HGa1J+uuPCO7sJlHsXuo4v0rEbhWYL1M+D1p9b1Kqu6tundVVqk8clht2Qp6z+vW1XQd84ypRX8e9nt1/NQ5h2pHTJjP61T5bvh5YggHIkia5/FfT3nIVNw83Q8t7r3Xu2ei+tl5+0wYgf6ktEN3SXuJIpVhnMxRQKzCamiexFOPwXp7DjG2qv73MSwigfT5Pux8O05WVgwzbwUx/LmkiR3Asa1pxJ6cwA07jCg1bsNPx9D7fh5x1yqL4NJFOvaDPCaejCD+jX/EsU/EMZ6OmFME8PNF2t9Ki0bwcPNJEj2bGa/R2QOudK3N1ap3xI00dAPGwmqeG3g6t68x2KKWTFu1HJeaJ9OAqcZ+w7ExWZTNoFAuIUf5Rnud+P5mjHUfNfcZQMRa12GX6VqnjkAF9tYYMg28HTrNbFcA8DiRnp11KlNprG+F0dfxotBHKGbqLvYC1XofvPy3Bbvse/bJPmosLZJKPjidsK3z6tSI8og6jakLNYQJZEz+moF9ymlkw3SsCb9uK49cfC7hy4v63irzZw52f8I9f6DfwjqHD7fGh2JZwOqmhahr0KYw1E0i8JbZpDscUfdFC3vYqr2KLER6TTmiJW859+6VrxovTKjH9dp5HuZ9Uu8cyttk7vU69DNVefdGpvh5cigpL7dTFxjoPca6HO93BnaXTwLXu169Z39rhK5dQnmN3qe0Q3dFe4mi8gayX5rAhFluvGPC98nG9g4CvXFcmUth+Dcp4Fw/Qg8F0P1HGaz8cBGjH3sQt381rDxIwLtY/9Iytt9Zxvp2GQErhJW3t3H7RBQz35rG6OM8uPtxdJ8ASm9OYJnuafOlb2JtmzR8eECdAeUi8i9t6nWh9fi6zzLULDTTj85WW9LK1+/m2rGpmTKYCm7GjlLjphuh7K0i1eLcZJGFv5OjyqlHDfwMUcWuvVT14K6AEvI11yujoLxSxNVVFHf0aqeTHc14XUZ+Joeo4V1yBYJfSKY3Sgj31hNSHYrbfRbBem+lp6Iy//nEN4so7vIt+/Kgwba9EO6ijUTysC56gj3VazwDxkCIkLAKqvT35bupddWdrPIwxfXuqTp/prG0Rtn8Ub1VXvPeWatgD5ndPaCNAhKG1QaL62m5GEGgypPG+SjgilA2oAPm3n3lq5qtvCtGOO/dEQ3O4Xp62FvDdQWXbTKmk0142vg9llxPapbEovaVKepcr/GzCwdBm3Wf/St2Xl3Gsll+9oEJ3ie55xOY+OYaboc/hfH5LJIPc2gJr/3eIAadJXYBiyp2LduX40i88Bp++lA/EukMrpwxO1zexft3eG/CwaIqe6dibQBXWMqi3ofVmx2NemNAuILr6kOKKm5Qg57esKkSokbFN05G4Ia+dsxWqtdC8ZbT1KUw1B9A2BED1IDgiHah+QVf3fzn9y5co/y0Y7xCu6K9JznfGK6Sb/yb542sg7kei7X2GaidxrryfsQxewqVBsTkghKR+rlySthVo7wi7rPfu/E5LN6itrmXy073n+nO3+hTeb22K+/uaJdnP4p0yJgiH//8c9wOPIK+x4MIPn4JfXW/0t/G8l+OI34xj+1jQXR/sIXtD8KITA+j28TYi83vpjH2fBYb5S4E+zawTRZ9+BOXcPoEtcHPpTB44jY21xrJKuGwYKsJNV1iHlxh9W3sMRC6q6rrooYsvX8L0VOW9gy9RY3Yqeiu11UV/lbY1z1wH0ANb2azBwlKJ8U5HsDuWbqqm8jnTeGFBxkfxTRS1j8J6L3zHwmC8xFfN6yHpbyTjdmyywjvs/uVPU65LfYoVedPFqy7eT5bQ/oadyEnTJeqR/y4hbLjKeN8o9dcsu/ZCPRXjkm6e7wuTe7qrL5mI0JWAPZ7+v0qL45aM0zpbi3reOO3pN6j6zE1XfS70JpnFxw6SxSxd+YvX8Jrb1t4LJ1D7gth3P4XvcvP+HeMJfrNKB58M4eX/3Iac1c38ODvjiPL4W+sIPsFE7kOwzPL+vhXRhHauYHFb+dw4SuL2AycxqVXCsh+5uMo35rD+OVtc4RwqPjGniW7i8jsIni4wnI9E2qpHrTJ7mqYbofKgaeFiz0ozmu3NnuHAjCeIeUap4rLVIQefC7LHWidHuZxGk73RvV1jybcjabShuAGwt/YO0LBTzOevo7B36VhvmZslP/criE1Lm6m1tJXecx0GfkG1fLinJu9mXqskdm3ywBb73p8vBaqlfmTx0Ht4mlqFSSk82Rw6g8dPFTXmnNv1V+UMiQ21Fd75pkOwvulBJp5VwlK/WY72CqOs2ztKfIPvj7jeMG0Z6x6bJjuenbyTgLWjq/7rB6Nnn1qXaeZDLS+Kz4UDod/adZbAp0fpVKz2as+wadmkfnCr6P4pdO48KoJFI4UB5FP7hiqwBZOrmJkN2/SfcTBvAv+eieIpQ4f9Hkv8yV/1Thwa+Twhcodck/L8J1CgjN/fKmNflKDDbMEMH8PBGqH0Op81vaeotR3Csh9IQL8KItpEURCKyBrdd3yD0IV7p40RuQrmLsiO7oO62K7jP85aphP/l0vzj2kwhOYhHVTBNG9pCM8RcLRR/JJ+yDvwkPSonkkrYTDoNX5rPMGWguCIAiCILQAEUWCIAiCIAiEiCJBEARBEARCRJEgCIIgCAIhokgQBEEQBIEQUSQIgiAIgkCIKBIEQRAEQSBEFAkdBv9S8kH/jD3/iqz5kTz+ef4mZrYWhHq4s6WbJX9o87o5ediXlwVB2DciigTBD09qakfl162FfaLnzXNnSzfL4U8fkcXYvI2oCHtBuCNEFAmdi/LqzKrGSFnmjgeJ5zOaS3nhzoSJPMeZz3LnSTIXJrkxSyISCLsTufJklHBnrRaEJpgcQmQnV18E+fOpyqNaQNV4kyjf+sV4atFMHKryM+VdE7/gCh4zVQUv+SFYJlRNsoo+8RYJwh0gokjobEI9wLy2ynnG8CHTqAT6o264mlG6oeVMlnV0BoVyCTmKq2cr34LdJY2K0Dyp3jBKG5UzvVfg5NPoGEKLemZ87U3imeoTFbOm1yPQb2Fdxae82hVV8VOLMVhr5jzzNqyAiUxs2Rb6xNspCPtGRJHQ2Wzl3ckT0xvefDjltYwbnr1VRLkrqL1ITZHF9o5ZFYR94/PgOGLczacp9IVKvklI01haA6xHzWYDymtLFJPJYnXTpr9V57m6imJZrzLZ9ziOIAj7RUSRIAjCXbJll2Edd2R3GiPsvbkuk6MKQqchokg4kgS6B1zPUOpsBNhcJRubLHI3PIWhfl9/QwVxBLvMqiA0AY9Ds/uTTQzQT2N9K4yoO7aN8yFgv6W3ws5YtnOziIb0an22YJfDXhfZuQH0+LJz/Lg7wkgQhH0gokg4kpR3LCRMF0YMZgAsD0DdiSCpwvtgrzn9DdwlYbkDrYEQrJ11010hCM3A3qEccMZ0m/FyBsgN1+ai9DCPI0qaeDHgelR3rU0todAV0+HngeKWjl8f/sqsAMu53nmLRJLZRYQsG+tqfJwgCPvhQ+Fw+JdmvSXQ+VEqiRtZ2J0DzSf8tc7xpTv+HJq/Sht6L2oGXd9/SJn16Mi04K/dzm4jWkeQtRLJN8Jh0Op8Jp4iQfBDDUqiu4glsbKFjiSO2fM9KF4TP6cg3AniKRLaAskn7YO8Cw9Ji+aRtBIOg1bnM/EUCYIgCIIgECKKBEEQBEEQCBFFgiAIgiAIhIgiQRAEQRAEQkSRIAiCIAgCcShfnwmCIAiCIBwErfz6TD7JF9oCySftg7wLD0mL5pG0Eg6DVucz6T4TBEEQBEEgRBQJgiAIgiAQIooEQRAEQRAIEUWCIAiCIAiEiCJBEARBEARCRJEgCIIgCAIhokgQBEEQBIFoK1HU/fQlLHx/BYVCQS0rr0zjtNmH5zJY4fCXkyaASWGB430nhYgJAeKYzRewMGk2XXRc59yFH+Yw+18HzT6hc6h6j/lZeuM+JheqwnR+0PHzmD1ngqtILfrzzC7XODeLfPV56oWp6y7QmSqJz+Vr8qZz7dRi4/trV/jeC4tVT0nvID9X8VYqn61uenU4zeYBjudPL86vhdp8cnSpKltmWZj01duURgsq/9QvQ41oWH4qzlevbdgv9Ay+OoHLgM7vFF5dFmqoPHZv9pcGFbjPzfd4P+Wxu6NtRFHw2VnMff40rJ085r40gYkXMijsAJbZn/hP3cDODm5/NAK/LGKOffRTSF4Mmq3dKCEXiSDyR2nc+JcgImeewbDZI3QQ5QJm+D3SktuJYEhVcrrCK/TyW/YxOQDM67iRy0X0nK9TIVHlEUUOI1N6PV+Iwr5sjuElOoasjon4yR66PhA5W1nF2Ft2/XPvg/RwHtZdnuPwKdG/2O4NDadvVxGrV/VmozTsdJrJA6mzEdgbabNF271hlMsWolUi8uiSxohTdrfKKJhyNjKVxViU/5poLaE110gPRxAddWoIodNpE1EUwShVFoF3ljHxhxPIvLqM5e/O4cJnxk1jNIrf+Y1jKL3+GlXA3Yh83i+ASij86H10/0EaoydM0J4cw7F/A9z+X5tYYeXut/BcT0MQw18li/cNbcnk/0LkU/tBb6mrDPstXtcVXmR4Xe1xmRrDmGmMcXUbtln1Ez9poXhNN1Sq0boe9Y6pII6Bbhv5aB6lUF+F5WVhHXkSaIm7atzSWNq0MNBRHhSLGvkCrDONLVEWQfZNR1g2TsNOZ+88kEJfVwFLbqOstzPzRaB7YFcxdT+wuzdDe5i0R8YYQMbLVOGVfJSNGrOvjtfGvYbyZs56XitfXOX9VOF5LCxWe3b5PmIIB8g4N+1GfG5hd6+nMrSc6/SZQD4ub67D4c71/c/mpUfQjdvIw6rTR8XZwxPlv65+Nu2NmlXhjc5//9AmouhxdJOg2d6YI5FSh4uD6H1wk6yKGRTepvrjt1iyeGx/LYPC7V4M/4/K8FrCiHFm+PY4Bn+1hNeuLWLb7KklgeFPWtj6RkxZMtH/smjChXuOqpC4UCfRs5lpIGBqic9FYW2uul4fDTfSlIfUOaiRCpWw3siSPDeAnp11ki5prG+F0VflHUkP52D3J/asVMJnTOVllljI7CCy7wE9JzuseXxrDJk1C7G6XQdaBLlpukcadjq75oHJvsr852xfXUURPR0mhg8TbrS195Y9MqlFLvczxpPrT+8AIqeAjAqntqJrdw9moJ9krBs3qs9BYilGQlV7ojOwuwI6sgt7unIoKW91I+PJD937eTa0+Hy0bHArpMmORnUYLTno68fnEr5nG6GrMWHKHRkddt2u42Hl9Okzz0LLTauxMKfnSzjnoue2TznCy7lGM890tGmrMUXvf1BPogQx3k+t1jtFsCxZ/IdN4Df6kfB7hd7JIv3tAkCFI/WsCauL1322uEWV+MVpJBt6lzawvRNA7zNXMPvFYdAdCO2Cr/ssQ0W8evxKPdg6Slr5+m7uHRtbZnU3lMfDdH2kN0oI91ZXTlRh1q20Kik5FaRZcv6Lv2XX9Wa1O9lRMkychsXP5BBV8kumcm8mDTudRnmAGi5qsPO+/JfqtVC8xdtZrFK11nFi+FCwEM0nYd10GmttuHjpmMbSGsV6lNfLKMw7HklO0zKs443TtLzm5EuOq0sdd2eWXK+mPsddwUYAfN7BqXVqhRw8704sFFDPkL1VpHYsWSXmfM9bcbyBrxEwBj8vZ8IIWD5Lywc/X4DOrw2yJCIBC0FVZv1pen/TJqJoE/a/kFbtHq/19JyIo++j9DcUQ45eZO5plidhRD7rDa1mtv86TdYqSPAMAHSuXflJDtOvF1E+FkT3SRNWQw4XPjNB57yNX39iHJmXk3t4oYR7gapE9uh6YHe4so6Gnaa5EVuwy04lUU0KQ/0Bz8tDFQ/qdf9MjVDO2WOMzZEki7H52jFbXsOvtppLw06nXh5wPWQGHmdFDWHkok6LJKVLQLrQGrKbuOlMPO8XG0Yza0Z8XR1DlLbXezlf7NadWIXPUFTLLnVdpVEmnqFq2kQULeKbN0u4/RsxZObGMfzEaZz+ZESJkOCn+9H9QAm5J52XGMPiP1H4x4Z8X5wx28j+H4vYOEZx9hpbdCKC0cd6EPhgG1u3dvDzXwTwyCdOI3jiNC71PmIiEe8sY248juQPtnHs17oh36q1H2rQbk2XmAd7iPo29hgI2WVB21XUsN8kK/+ivzKiymuRGvrJPoS3cr7KhCuy+gNkuQsFZxJkId4Bj1ruxwUdB1Xomc0eJE6ZJ1AD2PNepbuPNOx0qvNA6myPO26NUfl2zekm0Yv30YDgwePPZlDsdrwnutvVyzMstCmWGlcY8HnbdLgnyJtjyy77vJfc9VvdfbZPeBxjwNc1ymVArYRgBWzTbV97HR68ndtqZKBVoa7RXN5Rz3dq9zFH9ztt031W+MoFXHm1BHxsGONfvoRLX53FYu6b+OonKAttrSPzjonI4oe70E70Yfi3TZDDO3NIXd3AbbNZi3ExvjKLxG+UUbg6h2k65qW/LcH63UvILY4jfNtxl45jwQyyzn7yQWxcf1l13wltgDumiCzs7iIyuwiekOXzTKileiCh7rpwKx+y8iPX4bmiCwng2hhC7Fb3fTXENPZS6S6UwB3Up/HjpiJXA0E7r+ribrQiNU6Mv6uMUV0TTadhp+PPAzyg2vv6TjeCtQ320exOPAj4Iwoe/0LlcTFlxm05XUAxwP0wogzbStQJbx7dDRwz50jA2qnXfUbCjASsM9B6d0x3qvEIel/HcrefZeoZ7zr+QdAxv0GxK3SNy/yxg7kGLY081TyOicW3U3/uNSj7fuRD4XD4l2a9JdD5USrV9IIKQgX3NJ+cm8XCyVWM3PM+9RQW8kEsRccAqhyH3ou2+BPl+hzMu/Ce5V6n6t1wEGnBDd29epeHydGr67mLi4yieeliaidanc/aaqC1INwTro5h3aoe3Hj4pBbJujWDPEOW74utjoSs1w4XRAcFW+dHXRAdGfgnWRwvSsE/wFu4XxBPkdAWSD5pH+RdeEhaNI+klXAYtDqfiadIEARBEASBEFEkCIIgCIJAiCgSBEEQBEEgRBQJgiAIgiAQIooEQRAEQRAIEUWCIAiCIAiEiCJBEARBEARCRJHQYXgzS1f/TD1P/OqEez/EWBV/sf40Cnxsw2P8P4V/bhb56p/3rxemfg23dkJH/nXjih+J5GMb3JMgHEn4F+SP4Hx3wtFARJHQefhmhHYn0aSKNrjhTK7Jk3H6BIl/EtJ6s0fTsVHk9K8OK4HjzV6tFt8vM6uJPMtA5GylkLG37JoZ4puCJ1G1o/f817QFQRAEEUVCRxNHsKusZ8gmcTHmTqWwBbvePI4NiJ+03BnMU2cjsBtOJMkTefKs3XmUQn0VXiAL68iTQEvcgQWcHc0DMhGocF9S6ZV1jQNlnJjwxQUsuN5aX/w8h3vGj38yVX0e7a2dVeHNTN4qCCKKhE7EnSU/iZ7NTK2AmRxCZGcdSuacC8IKObNe16sY9Yzl2+ocKfSFSo3nHDs3gB513jTWt8Loq/Lu6Nm7E3dQ+ZKI66oUWYJw9GHRwrPZG4+smumdRQ6Fn2fjxIRvAGFzBM8PaK3N6PB5G1bA7JhcQAIZ493lGfUdsRRGjwqXOcyE5hBRJHQevu6zDFWFeb93hid0PGVjxukmuzqGqIkbuVxEz8XacT7YsUmW7A13ndkb+rzpjRLCNd6dNEau2zVda3uTxfaOWRWE+wU2MlDAkmOEUFnNb1kIvlAVPrUOPdOVNlryo6Yz++oqisYjnOoNI9CfNMZPEpEAnUcZJ774gtAEIoqEjiZ7qwh0DyjXunKf965XjAGqwFeJ1oe73ZzKtJoUhvoDCJ/R7vnCGbJdq7rQFFMjyCEmY4QE4ZApOZ4ltYhnSLgzRBQJHY0a+Ly5iqzjPq83kNqBu9VQxyvUZSGkVrIYu2kjUuFNimN2cRbxyT6E/QO2aZlZsxCtM4aIu9FwJkHWbrPw2CizKgj3C2ykUIlUH0ow/MFDyMb257dhB3ow4BgnXPbUChstvm5r9jSZ7rMtu4zwqTv40EEQqhBRJHQe7piiApLdRWRGs4gft3zuc70obw13pzlhZ4BcjRcpi9VNeN6hqRFErgMx9zwJ4NoYQr1hlEzXmYPfS1WJ7kYLOOMdqnC9TbTorr8QLGcMlCDcN5ARMs/jiEx5uNiD4uURNWZPdUNfNOG93AlWJ/55y/2gIjsaVV+iOvVCxc9oCMI++FA4HP6lWW8JdH6USjpLC0Ij7mk+IQt14eQqRu7R2APu9ht6L6p/EqANkDLrIWnRPC1LKzZsuFu82gvMX6idBzKNusuFI0mry6R4igTh6hjWreS9GQdEFXuiu+gNKhWE+x7+Ks14fHjxfTjh/4HWwkULeRFEwgEjniKhLZB80j7Iu/CQtGgeSSvhMGh1PhNPkSAIgiAIAiGiSBAEQRAEgRBRJAiCIAiCQIgoEgRBEARBIEQUCYIgCIIgEIfy9ZkgCIIgCMJB0Mqvz+STfKEtkHzSPsi78JC0aB5JK+EwaHU+k+4zQRAEQRAEQkSRIAiCIAgCIaJIEARBEASBEFEkCIIgCIJAiCgSBEEQBEEgRBQJgiAIgiAQIooEQRAEQRCIthFF8bk8CoWCu+QXpzF8gvd0IzGTQ/4Nb9/CFyj4TAoL3zdhb+SR/fwgR8bpr+aw4sRdnsXob6tgxCYXvHN8P4vxkzpc6DTovZt8oJb8LOJmj4Lec00YofLXYsps1ZJapHw1WZsPOcyB49Rcl6/nhLnnr7xH7xxxzOad8Dxmz5lgQ/W11ULX+Su6bn7O90TnZpEvLNBVqtKCFjce53f/MS1CpUl1uta5dmrR97zq/mufv6Op+0z8vvk9+eB4/vRS+acqzlFHpZUv31bknz3Kt4HLiluufGU+tWjScl/5v857MsTnFvQ7dcvc3eLUAUcs/x8h2spTVF6bQSQSQfzrBSD0GJ67eBr4rxN4bsDC9vU0xp6MqP0jX6PIH7Pw89fTiEdimPi7MrrPPIcEBe/czODCMMX7ozlsHIsg9jSdg+ju+jmWvxJH5MkJ3PhFN2J/xLGFjqRcwAzlA84LuZ0IhlTlaCqbXqDyZ710JZuwbJRNSA1U4UWRw8iU3ixd1+eOXC7AOuNVsjGKo8J5iY4hy9c8vu6G5SiGrqjTGHHiVZxjAJh3wovoOV9Z4WdHo+4x5S1zLbrOnwznYPcnTCVK1zzfg+LlEboK4UuLSGQGxe6kbmSmRpC3nGNaSYn+Oc/dAE7friJWr+rN+Mkeum8gcvbum5h2wt6ya95pNamzEdgb6s0pUr1hlMsWoocgYNsKJ3/TwuVGCRglPKKwLzv5mRZVzvaA8npT8e6Gq2OIRkyZuxsmh9Czye1cFGOmPAjtRVt2n22+tIoiVZrHfsUCAsdwjGrQn21Sg/eOicB87QISL+SwiW0sb7yL8kO/iiAFF17PqXjB/9uDtHWbKqplFX06mcD09U3gnWWsb5dxLMCxhc4mjmBXGfZbvJ7FWJQq0eF1tcdDC5ToNdts1xI/aaF4rU51d5XzoYUgCYv4ccqLNdA1R73jtuwGsmtrXVemU2NeRXh1G43vqBp6huu2FhFUqUZ28g0qVE6DHEqhqBJD6WtFWCdb3dha1Mj7hF8dWATZN51GK46Bbhv5aJ7us+8ALO/2wcI68iTSEw0FTgp9XQUsGfHtbGfmi2S1Dewqpo4y6Q1txijBeH1vscBeomR/AOEz1CawAUBiamEXUak9sJ5x43qhqj0/vn21XiYyroxHS3k957y4nkHg83LlF7BQz0t4JoxAPxku5toV3mHHK8bxFme1kdfAUya0jjYURUFEPhtFT+A2tv8pD3x7CYWdLkQ+v4jcN1IY/k0TzWUQqaGPI0ANz+tqW2fM3FwCoa0s5v5cBXqcTGGoL4DSj3VsoQMJRJBUFUmSrK7MXVpc3EgD2/XOcW4APdAejuxoBoWumFuZ1UL5qt/Gumnw3MruPJAZrhVc8bkorM3V5q3bKSoHfP0zQK7O+TzSWN8yqyS8DqWxfWsMmTULsYpuEActgpx0UWm6wyKR7zOMvt08TB1IusKrV8VkX+U7d7ZZfFNOG2i5V68diWP2VBj2eyH0hUpePtkF9qjOrJW1R3fXskCQ0ElaeUTYy6NECZUf44WaqcizYcR6Ha/vLu9QEUDEMnHZE3zK6bqLwTK9HZF5G1ZAx3Zhb9P1kukRofvhe+suVni9XUEd6tFe5VZ7wIQa2koUaQWdw+yngyj+1SWMX6ZK/R2yfk/HMf16CQ9+LIbxeWqUnPFAJ4Yx/co0Yl0lLP55GgUVqD0DMWrEiicSmHgxpkKZ4FPTyP2/KONuLWJmSscWOhBfl1EGibsfO7Njw9ERjLJAHUHjVkrGE3XZRpT2VV6ThTi7/T33utsVNg8kqoSUsnSpoo6Otrq624K9Y1ZbjBaN2kNVgeouWHLTRXmNTPcRewjCvfUlZufi8+pVwI0/kPe981SvheIt3s5idRPoablXr40IsYHhGDYzbtf1gdKdQOGUjRkjnFS37ZqXF7OjeZS6gsZoKPmMDRbsAViPms0ayig4nmUWtKqMpZSoc98vhzfsr9dw12nJ9aDSVa9Rm2SF9MZWI2+w0Grab0zRH03jxjYp8SeoUTHhwCYWvxTH6T/MYvP/F0b06WESRFTJfGMcjz30j5j7f5JoumWiGrbX5rD6VhldJ3rVdvDZWWQ+/xgeXJ/D6DPTWFGhQqeTvXXwXQ96TNEMiWxnvJIPNbaAx+4YS1KNg+jDeqMxAqpy1F1wDA9MTpCU29PCrSI+l0BkJ4fIdTTwyDhw5WzX93y1FBKN87XjpLyGX21hyOn24AbxTJgax6PVhaaYGvGNLzO4HjID5ZtoiOq5izotuDsocD91ofnGFGnjgAS8r5xUoMqYyTO75v1K2FFTDlgwMkMQmqL9us9+sojxr72G0sOPIfkX/ioiiMj/w0LgQeD27TJO/2kckV/ZRPYzY8j8xETBaSS/MIoIf7X2mwkMPBrAzvaGCr/whxEENrNIkEVLRplwRFDW3366oerRVa/i1ONzsMtYGW7kF9ibtNsATG4MA1qksIeob8NpBPaD7ppTlqzpRqs/sJk9VuzCd6zhEKwutXI4kGDMbPYgccqMv+KGHz6Ld7IPYV9jyAt3YRzFQcbcjYYzCVDuVKTO9lSMW9NeC9PVYhbvo4H7ESpvN20Sif7yRobvIolsZYiYdNqHMVHezCDKRoQZl6MMqP4h9/zchR3e2TZ1h68rVwnW5rryPFjU+c/B5d6sN0B5Sk3XG8NjqmD7fdbCvaAtB1rjR2nM/GAbgd+O48pc1nxin8Psf4sisLWMly4voz9Mtf1D3Yi/YiwI84mj1U8FicO+PUqWGcV9gSon9CP0a8Cxj8WRcywOGcDWubhjisjC7i4ic1fdULrroq6FStJixFSqL/oHRDpjmUioW757UQtbsv7BnBe9L8VCls9LopZmPsul/JyPAdcd4cUeGd/A5orrczyf6DoXNIKRz7GbuDs4uButqGx03fBXf2lV8m0zrfD0tQe6Gy2gkoIHVHtf3/E75XFsngdNczS7E/cBf0XG5c3NzwngWv0xNZxvLGeg9W7wOW9aVEaorFGJVWPfzPnVeB5XZJWAXnNdX5ltHqdcmnOct0gkmV2NYI8iCWGn/PLXra3vUhf24kPhcPiXZr0l0PlRKlV+JC0I1dzTfEKW4cLJVYwcsQqJv5IJXuNuvRQW8kEsNTlo82Dexf6u2a4cRFqwh3DovWhrxs20EVLX++Auv4oxicJB0ep81p6eIkE4TK6OYd1K7v5bO53GJP+ukum6cj1Gh0kaI9IgKHjQ/VEXRAIbIcZLpLxNFvKS/zsS8RQJbYHkk/ZB3oWHpEXzSFoJh0Gr85l4igRBEARBEAgRRYIgCIIgCISIIkEQBEEQBEJEkSAIgiAIAiGiSBAEQRAEgRBRJAiCIAiCQIgoEgRBEARBIEQUCR0Gz+/l+5E033Qt/h9Pq/0hRp7qol64ho/lffzrw+65q85T8eNsznX9U3q4Uw5U3qN3Dn0POrz+FB8V13Dj8Pkq46v75Ov5J8s0i3M9/kXrvacREYTDhn/t/A6nWVL5/W6nrKk/7Q2XKVV2DuQad4o/bXx1FtUz+eo5Avk+9zFBrtAcIoqEzqNcwEz1JJpUQQQ3nMk160zkOjmEHjSYjIiOjSLn/uqwniWflsu+OcbUL0T7JjNVv1ZLldbxdTfMmxk9jREnXsU5BoB5J7x2RnlNGYXLJs51GxEVR8+jpdcJut+Ef96miklW+dkLqgJND+dh1b2GIHQoanLY/c5LVgXVBZGd9cbnOIhrHAg8KXVEfg39kBFRJHQwcQS7yrDfolWqyMbcyoNnrDarCrK+TtnIb5rNKuInrYoZzF2urqJYttRksfHjZub3CqjSGvWO22o0A+SWqYCn6B6dSUGvbsM2qw2ZWkcpYGbwN5NHsgDk2bTtm42mECABRUJMzwaextKmhQHxFgltA3s9YwiriYzZk0mGBc+Eb/Z63g/tzZl1Pbc+r6nxjihP6JznqfU8snwN4zmlcyxUeYVSvRYKprx7ntk8htwi7l2jwnPs88r4wxcWjRdH3fus5w32e8P8HmWfF6riPJPVacP3V2XcEfqYqnB1fvEMHwQiioTOw50Z3sxW784+bqiwBLlyjcKeHyOpVA89Y/l29TmYcwPogZ7dnGd/L3TFaisjlxSG+m2sG2HmVnY8KaQ7E7dHfC4Ka6/5yCb7EHYEFZG+pmfhZo/VrtajEnN6Nfse0HNSfEVCu8Be1BxKytvLkxWb4LqEqfxlPK/p2eqSF0DEMp5a9sie0iIktRiDtTajw+dtWAEdW5NCX5cu08r72+V4nTOwuyoiKnjeOscLm0NUiw721FJZz5nwdbpPl1CP6w32e7HzZ+DGn+GZ+llgOR5fEz4y1UTa0D0nrTzF93my+Pxk9O2dnkIziCgSOg9f91kGicq+draYuIIwQiS1mIR1c4/KYseuEExhEh6uoHEnddSu7MhlG1HaV9m/zxYeCa/LXkXlVqbzQKJKSLFg4ootWndWfqroL5rr91KFX0dQ7Yu37L09UoLQlpSQd8oIe031mo+y6/FRhsAOr5DoCfmO8xkIDBsjMF7WVG8YJdfjmsXqZj1Pr+d1ioUCsB6lc5wk4bO25BkrG7472zKTMBNOeHX87Ggepa4g4nxvIAPP54Hale5ERd2m6IoiL5PPHigiioSOJnurSJXFgLIQlXeGhYRTQZAFFQ15IifZH1Drnpu9PnpM0QwKVGEpS8+PGm8wgyJVUI7VmC/0Yb2RlaYqZd0Fx7C7PsHWb0Ox44wpIosxZCxTRRyz5yOw6d68sUsNUB6uSqEnCAJ7hT1v7t4YL7MZ4zez1qB7/I4xhtZGn6qf9qqX2I9VdrrTK/DqF+HuEVEkdDTKCuNuqMmFWrGhBIyu0JxKjQVPTddTV72KhiusOgO2KyArkr1Juw3KZIESsFX3HIu2vo1IAw9RNTw2yDcYW3UJ6m4z3Y3W4L5YpF30jTl61KIqUxDamK4ed9wbj5er7cTaDzyeMIw+R2Co8mfW+WOLTc9jw2MAw71OKWLBVH3lECxTdv37s+/ZCBhDjGGP024ow02N8dOwtyq8s+15dqZGELlegnXc732upbyZQfQ6EPOPVdrJI8r1xMXd6ilhP4goEjoPd0xRAcnuIjIkMnggdKA/qbudzLKX5aVhtzkaWFr81ZeuhF50xgipxYxlQpAqTe9e1MKucDXo0Wxf7EHRdKuFLO2pcvftNTCSRF1mswfJ11/TYxIcwcfhzrgEJsRjnfzX84Rf/DhQvCWOdaGdSGN9xxlMTMbHTdvtMu6zC42+EW0SOt+8HnunysN5y/3oggdY+8uCN06Q4yZg7VRfOY0lLmfV+81HD06576vTsVeBU15NfK6zVBeY8jLrsAKVb93l508bfXgFLKBuWnr/fzRhbPyZbv3m6jxhNz4UDod/adZbAp0fpdIemUa477mn+YQqp4WTqxhpyoPTSaSwkA9iaZ/jDaTMekhaNE9bphULD/bm8ti+s9uINuy2vnO4S5w9wPLp/OHQ6nwmniJBIEtr3UoeOSuLv8JxBpUKwv1CxQ+gOoOQ2ZtyUILI7+GhJWrPiCA6QoinSGgLJJ+0D/IuPCQtmkfSSjgMWp3PxFMkCIIgCIJAiCgSBEEQBEEgRBQJgiAIgiAQIooEQRAEQRAIEUWCIAiCIAjEoXx9JgiCIAiCcBC08usz+SRfaAskn7QP8i48JC2aR9JKOAxanc+k+0wQBEEQBIEQUSQIgiAIgkCIKBIEQRAEQSBEFAmCIAiCIBAiigRBEARBEAgRRYIgCEIbEsdsvoBCfpbWBOFwEFEkCIIgtB/nBoCbEURuAgPnTJggtJi2EUXxuTwKBbIKzJKfI9vg3CzyhQWkTJyDIYHZ7y9jtm0LWbvf370mhQVfPvGsyMrwhUkViNSiL27VPj8czx+ujlu885wXn1s4kHeYWsy3dV6oTF/vXivCa9JRewDqvQeG6wJV/nelKh/wNbi+qPEq8LUOIQ1VXVV1Pwrj7VDh/vvw33+jOo7j6H2V9eNB14mHjEqr+u+kotxdXQVO0fYpYPWqDjqocuVw8OWL3lm7erYmF5ooV0J7eYrKBcxEyDKgJTqaNYEHTRDWw8fMejvS7vfXBvjySW4ngiHVuKYxYsIilwuwzuiGIz1swtSSQ4mOXZri+D6oko4ihxE3PIW+UBnlrmjrG9OOp4zCZZO+121EzuoGzUv3GRS6YpUCaHIIPXRcfVIY6i4i00z538qZa9AynFaNaJHOXOFVODeAnp08xkyj2lLc++FnNnlncgCYN/d4me7uPDeYLJRiwHUdPrNmIVZHgMfnohRnBGnKnwlKEyfPRyIUZuJ0Kja9/p6T1Q00lzuzqshiLErPGx2jNUE4HDqm+2yQVO4KWxfP/haGv0qK9w1tNeX/Ypj2BjH8ZS+skF/A9FNBPgrJbyxjxYQvfJEtrxjCCCBy0XijTo4j+31z3A9zuPIsHacsmWVkv2Wss2WqlJ6bxbI6zwpV8IPqntiqyX9rFgs/1Mev5K4gfoL3DGLcOfaNFeRejNMdaotxeZGfQ1vJCbL+nHtbyU1TjOr7e7HSolb3pRt7de1XFtQ95efG6qZJ/MWce/78t8bprghKx0I+h2xuRd8fPRvfc/CpabJwdNzC92ehzvDUJSw4afNGHgtfHaazVl/7XloelK5dZdhvmU0/W+s1DYdqZG7WVrDxkxaK13yxJ/tgrWWQ2fRX3Pz+yEp1LXbPwvR7ReqmB6e52V9h5av3acIpX+xqYXLcxVnP69CG1mj8uIWyvWW2/JSw7hOcC6ds5Clt60JpX/uO6Jg6oqGWLFYr3hm/2x7YG4ctIUKwAja2WYhNjXmC7Oo2bLXC+700yY7mUeriGsJPHANWUQv4Ry2qEerj9yDpeqJRPvV7rJw86A/z5V3lUaB6jcObSvc7YDOPYveQVxYIVT7XCkYuc13o3FsDb46vXDn3rjw/czq8xhNZJ76HSQv1vL5rO+WsQRmuTH9TfwciSLr3XP9cbvqaeG4d4qS3ipOq886IJp67pk7iY85Qy9Kf1PdB9cmCLw34OVR6+euZNqxjDoP2EkUqM+kXWZGhT6aQfPwRvHt9AmN//fsY/qSFrW/ElNUU/S+LwHNpXHiCw+KIPDmB5Z1H8NifppF4+hnEPvE+8p/WFtbIV9ibkKMqWlu30dFNXLoYQ2B1AjHaf+EmyZlnxnFaXTSAY29PIPJHiyg9HMHoM/8WC5+OYeJGGeGTzyjRoGKd+LdY/lwEsdQy7I8MIv55uq/0OGKBFUw8Sdf9szwwEMf4Ezp+1wN0TQpnr8TmqzNI/CeK82SWrvEYTl+svr//qQ9qQODhn9M9cbx/VzdNRj+xg5f42Z+cQfHEMEYvOgcG8LOlBD1bFpu/EsHQp4NIPPUYrLfnVDpE/vcxLCKB9J+ehrU1h3iEnvt1G4988gLSz5lTuNe+Bzacm0+S6NnMuI2OW0GdBzLsOahAeyBqvERU7Ae6oRswQ6qXRNKtLLK3ikD3gK9iCKMHGW2tN/CKVFf0qpI5A+TUfr9XgCrh8xHYxlsQ2eCz70Gox/U6eB6ye40W8JzuSb+HxxV8Cbpnx7PBDU8U9vwY6kknhtO+rsit5lwQViim37ev0ax8Z/TO+22fIGsx7v2wF6jWm8ONvrW5StJtC3Y5jD7n/ZEQDAcskko+2MOFbS0Op0bU+/YaWgM1dAknP1Les085DWdtPo3PJaiszJi4+t5Si1x+nLAc7P6Ee/5Av4V1Dq8pRweDZYEErIWo2zCb8nnLbNIdep7fInpMWXPh/NW7bu49grzl3DvlR0uHe55fomF8DaeFxeOX6HlTi54XT3mpGpVhCvd78EamTP2tPNlRqpc4v/fpdOTlpkWGsH5eN3352aj89G1wHJ+HUcUhkWjKu/+azTx3TZ1EeShynVqWNXrfe3nenHrmPvXQtW33mZehqeBMxmCtz+HC1Aptb2B7J4DeZ65g9ovDoPYM8f4QjpWLyL9EZuI7y5j4wSZuPxRE3/91E9u3g4hezmL6s6eVl6OSx9F94hisUxNY/OEKpk9ZuP0rFshWJd6lypSu95NprL9Dt0aWTeYn21h+86coP2yp6zI6nBrV1ydQoHhdwV483h3EsY9EMZFdwUqaKsL3A7B6dfzSmyTaKB57cgIfexzT36c434mj+yHgWCNzsAHOtRumyUPdeO7rdP7sKD7+wG0ScEbKUVqtclr9hArM/6IUPh7FxvYOAr1xXCHrZPg3Kc65foQeKqN4IwNKRSx/6QY2f3EMwf+gJaN37XuAL59kqFlwrKXsaFRXBPNAwm9ZEV6DVIcd29dIp9DXRenDIulqdXdMCXmn0Z9apy0DV1SqMUwiQo1b0FfZsqcCa0tuA+l6BVSj5+vK85+vEVteN1B6o13mmPJ1n3G6O9bl1TFE1TvKAOcd65UbHm4s1IENMB4WxrWIyfp2BEfN+WlRDYt53/53xmKjjsewZfi689Z7Kw07FuxJK2+MiCzG5rmLl5+NFqobSmV/HtTYPq+bbuTysFiAGm9CqtdY/jV5rzafKrFIcb174q4qXzxKpaU1qgse1VtlX55tFVwWbEfAsne2qny6Rs7FCAJVnjQuVwFXhBYQC1Edq+6d8qPf62toHB/oofwZtWfcNofLVviMJ0AblmGV10isOt6dariMB8KImWsqT42lpa+bvuw9dLv02dOpfYlMec0z+Pj9lemaLzb73LvUSXviq2fuRzqg++w2ymXgQcpM2pLO4cJnJpBZu41ff2IcmZeT+LAK9/GLf8X7/Pf/nEH8/DReKx1D/6cvIfMiWQA1lPGPs4MY/D1niWPa7NkfQTz4AP35QG+V/+GK75yDiH9Nh7vQvV946hFs/nkCg4NkITQaYtEUDdJk67WKe4g9v6hi1yP3fAIT31zD7fCnMD6fRfJhs8OljH81z9ZO1HpzCK6syv6KQHuD2PuzFyyetPvbqVACdcY++Elh4aKFvGkMc41cIPcDNSKS4Yq+DOsTryBK7UHYCIFkf0CtV3iEq2HrVqUrWd+O4Khnvar3bdbV9XQXGouG0qF3nWlUw9prxMtiQXt0/F4Xv6i7ZsPaMV6hXdHekxy8MVolx6Ohll0Ep7kei7X2GaidxrryeMYxewo+gUaQIGYR6b5/E+xHeT3cZ6/yDNWhfny2RMuuWFGofKfFPIvw/2iCazFjnjb6VJ6um5d9BpxaDsDztvdzS510N3SAKPoZWaI5vBuM4dIcj80h3lnG3HgcyR9s49ivdeP2P23jdqAH0eeo5TtxGpeGPo7AThE3XqW4P1lEevQCshtl5cXRPIgPW3wm7WHpeSKJ02os0P4J/G/9GFZjcsYRob/bb72uvS4fiyH5eK1vyuXhYzj2wfuw39pE8Fm2KEy4wrm/TfycKvtHPppEN/1LsJWgI9RSnSZvbwOhCKafdnxae7GN5b8cR/xiHtvHguj+gL1slDaPJejKQZz+8hA+HthB8cayid8eKCuu2gOkLDSfx0F5ZYz3px5dTteFFk+u50Mt3K1Q1SXmh7txXCu/eqCoEW2+45Xo4gaQLUTKs66AYK+GWe1Y6qYzp2kA9ptPeiKAlpm1smrQayv0fVq1zOQQ2euep0UL5QSJMP9YpsPFEWTs7eCukcbdzKYbtY54s/wNdR227DLCp/Y37oM9TrktTmMSJFvhyu6rfjTXdXmApK8VYJ1KoGen0qNXMT6tTtnIvmcjsFu5rKJx/DKK8/yZRcz1OGtY8JCxSvnx/2xUhs22ElHXS7COV70JVcbvvJs74DP2Umcjqp57vpnn3qNOcrAqupn32U1xhGnbMUUVg7xupXHh6wXKmKO4MnkZC2bwcPaTD2Lj+suYvzyOuVtldH8mi8Irl3D64RIWv3IBuaevYFmdL4fRj9q48Tek/vE61t+mOvPZHPJ/cQzT8zdgh+K49Io+5/KLzmih5ii/H8RzZAnmvjCIYz9exHSK1l94CTd2woinc/pZvnfFHYPkQtbt2j8/guFvF7D41IeVN0zjv78QrvxNAeXuOLKFDGIfLlMRrsd4bZq8MEdC8EE89nlKE76HlSzFasz4d/TxhW9G8eCbObz8lzMY//oKyr8xStfO4dLjFkrfvYQL180B9xJfPnHHsfgGHxYuUtN8ecSrZHmgakNLXHsWVENct1HXjYc7/qMassDzarwHX7uPWioT7kD7MzwewHe/M8paJKufx3uY8TiqC0Uf0WF4Y4pUus+zJ8c3uFSN+/K6JvYivWG73RoelFbVFrb/ffN4D78HSXmsAggcZtcZ4+/WMF8zhiztEXPv1YwLcruGGqWPegbTZeR/Vlqcc3N3sR5rZPbtMjDWux4fr7tH0sMs+J3uNx5Hs1fXZgtQ5QeVHzoQqmvNubd6ZYOEiBpnY55pT+/XHvFZLOYtPQj5r9xByvxulpBuVIbdLipaKA9qT5f2funxX5Rv1Zewzvn28IxWUd6xkDDH8TtXwrqZ525UJ02t6zTlfFIVxyYjRdB8KBwO/9KstwQ6P0qlzqzu94Ld4twXfU8GGx8x7mk+ocpt4eQqRu7le+SGjwdQHoB7/W65t2WWBNUiakXQPeJepgX/Js/ArZGOGd9xlOv6Q4fqg/zxJWlb6tDqfNYB3WeC0GLIalonK3E/Vtzdw1+mONYeLads40G630ljyY5WdWXcn2RH12E5A8gFQTgUxFMktAWST9oHeRcekhbNI2klHAatzmfiKRIEQRAEQSBEFAmCIAiCIBAiigRBEARBEAgRRYIgCIIgCISIIkEQBEEQBEJEkSAIgiAIAiGiSBAEQRAEgWgrURR7cRmF3DQG+VdtnR+1U4v3A2bdT1/CwvdXvH1vrCC7WPkz+HrJ46UXZ5FfoWN/2xwsHBn41371dAn6r4N/OgP+McbUojfbtdBJ8C9bN/jZQp5eodG+ewz/yr2/Hjq8H6HkHwPletL5KwjCndA+oujEOIYHjqHw3XGsmCBvBmg9j1Xw2VnMff40rJ085v77GGK87z8NIj5sZtO+XEAZJeTUMVE893way1thfOp8Qp9QOCLoiVt5wteQpf8qJhf0vETq/evJRtPDeVjn9zdpptDm8FxUdvSQf4F8L/QvlPO0P86kt7wc/jQNWYzN24i2qWgUhHanbURR8NP96P6XdbzecJ6f0xh/JoLAO8uY+MMJZH5QwLbZ05htTP/dBvAbv4NREyJ0OGpyzCQigbCaFDEW4r/sDaJG6ZSFgpqQ1E8aS5uWNxu9cKBUe+b4/fjFiuOpU38nfRNoOo02z/E0l/JNeVLl5eD37W/gzTZPGIreNmr4eab+HTNpZzXKszWrn1FN2lo5xYvrTWqQdjqNZj3vuZsePo96fghkH2h4sk/0ibdIEO6AthFFsdAjuL29iZzZZtzZpVVF0o9gF8mcjTnXk9QUf/lTvPtQCL1Pm22hs5kaUR7B0hpZ5M7fCM/uHaJGwYZ13uQZX+OafQ/oOSm+ogOHGvtElWeuMQFETgEZFXcGha6YKwAC/VFgXp9DzQDuF0FTSxTXa+BTvSR81YzqW7B94feaVG8YpY1d5q4L9ehnjI4htKhnxtfeJJ6pPrFnF2+g38K6m3ZRIzRjsFT+p/B5yvsBE5nYsi30tZUnTRA6g7YRRV2BY3j//bLZ0rjdZ1SROPbX+x9o/5DfQt29354qz3IAHw6aTaGDMRb2xQjC/UnvrxLNRCAM3DR55joJbadxfcsmuSQcOFdXUUQESb+IaUjZ58XLYnWzDOu4LrfltYw7E3z2VhHlrqB+nwqO6zTwKfR1FbGq4maxvcN/2xGfB8dJm628eUZ6hlAJedejlMbSGmA9ajYbUF5bUkMIdHpwbq46D78LX/WZfU9yvCDcCW010Hp3tvHzXwCPfDQJ1jfZ0ai2mip1lHCkyWIsyt6EEgqXvb+eaC5h3fFWTK3TltBa9PuIbPQpAdCqMT4slCzuKpvsg7W5at51e7FleyKPhc6IEuaSAwWh02gbUbRTvo0HH/T5f2vI4KW/pUrmYyOYm07g9MlBDD4RxIcfMLsbEoIVKONn/2w2hQ4njgHLxupV568JpoZofSvsdRlwA2pv6fVHLW+8hXDwcJcmCQBHFISdsT7nZhEN6VXuPvO6MFMY6geKt7S8CXQPuJ6h1NkIUC182AvS1YeFXss9hvMBd6e3CzzGye5PNiEMdT6Nut5tnRb2W3qrftrVgz3gvvx+bgA9vuozflxyvCDcCW0jinJb7+JYsBunzTbjjikyVujK1AVcuvqPQP8oLr14BVe+PIzw7RLW39w0R9Ths7+ORz7YxmbDAdxCZ5HF2DB7hpy/HunhHODkmVM2MqZrIX7ca4CFA4QHEJvyWTgD3ZWjxgDFdNh5SnejS7n7zLYSpjzHgOs8Dszs2bGQMOeJod5gZd2FFobTBcWQsbOzbrqU2gH2DvnyHy+UJrnh2jvkfMoCqiYtGqZdPfgrswIs53rnLRJJZhcRIoPB9ZoKgtA0HwqHw7806y2Bzo9SqQk38olxZBdP42d/7lWWd08Q4y/nEPvFHAY/kzFhQjvSdD7ZNyks5INY8o1LE3anFe+Cv6QKXqtTtvnLquNLe366zr//07fhDebmMYVD70X3GNx997QuX7YQFqtntxGtI8haSUemldBxtDqftc+Yonemsbh6Gx9/6hIGTdDdEnw2hdOhEl6bF0F0v8Jf6OCmCKKOhT/BL2gPkiuAzFdvS+IJqUMcs+d7UFRf6AmCsF/ax1Mk3NdIPmkf5F14SFo0j6SVcBi0Op910NdngiAIgiAIrUNEkSAIgiAIAiGiSBAEQRAEgRBRJAiCIAiCQIgoEgRBEARBIA7l6zNBEARBEISDoJVfn8kn+UJbIPmkfZB34SFp0TySVsJh0Op8Jt1ngiAIgiAIhIgiQRAEQRAEQkSRIAiCIAgCIaJIEARBEASBEFEkCIIgCIJAiCgSBEEQBEEgOlAUDSLxxSSGT5hNQRAEQRCEA6BtRFF8Lo9CoeAtiymzp4onYhj5gxHEztL65AIK+VnE9Z7m+O0kMt/X18jP7efIFBbomJXvpBAxIXTXmM0XsDBpNpvh3CzyhQU6W31Of3lBXePAuZO0qiCB2e8vY/ac2bxn6Pfg5hP3mSrDK9+Jb1+DNEgtOsdUnqeZPMLH6nicHxq/Wya1mG+DNDw4+Nlryirltep0q3huVQaOVjrUf6Y6+YHj+dOLy+Uu9cGRRKWVV8Z4ccvrHvWjwleXcbuxV/2bWqw9n1dm2xndvhSOWllpc9rLU1QuYCYSQYSX4bQJrOLVcZyODCL+52Z7vzw+iN4HNjD3ZATR0awJbJ5jH/0UkheDZmt3BkngZL/Ya7aaw/o1C8ceMBttRRDWw8fM+j3Gl09yOxEMqUoxjREn71wuwDrjVIRcscSA62ZfdAw1b50q4ihyGJniytIXl5Zm8kh6+M7y0tGgRP9iuzdMnL5dRaxe1Zvxkz30DoHI2aMlBewtGz3ndzc8UmcjsDe8ui3VG0a5bCHa9g30AbOVc8tYJJIDzhiRcnUM0cgIleZdmBqpX473QUeU2ckh9GzOUPpEMWbKjtB62rr7jL0m+TeMNfH9DJK/TYF1LYkghr/qxc3/xTCFsWdjRR/7xgpy01Tg2MI4EwYCvRh9ha2TIOIv5rDiHPetcQxSBX9lmc9Rr5IqofCj99H9B2mM1nTf6XN597uMiX4by1/ZQPDZWSyb8OWhR0x8OuKpaSwoS4Djz2KarJ5kfwAIxSiMn5Gey58GZHVOP8WCTFsQuTnvvPrejQX0rVks/FCHr+SuIO7e64fR/y3jkVvJ4cqz3rmWyZpaofCF72Zp/zKuPKGPCH6ett/4Af62EEMYAUQu0vm58jo5jqzxuBV+2OBce1hwd08cwa4y7LfMpp+tdV2xUsUS2dGCpxHxkxaK1zg2n0+H+fF7OZRH07H0OS/SenxugfbzsycRCYQRc59dp4dKI7+1d5K9Azq89WnUaixq5P0itBYWQfZNpxGLY6DbRj6aRynU1/CYTsTCOvIk0hMNBU4KfV0FLLl5UW9n5otA9wClzP0KGTRkyKB/iFIkhQXXk+b38C5QXWnyGJW7BUpjLotcX4ZJUKkyqdoGE38Pb5Mus7SiyvCsV04dT3KjcMLfq7FAdZ3jcVJeUxPuhVG5p2u58d3y3uDZHPj61FYF+pMUR++r6E2pd58NvODC/mgvURSIIGleOmeendWX8QVS9JHIBdy43YtPPX3aRKwmgeFPWtj6RkxZHtH/skhhm3j9zxNqO3a1BOt3TyPJFsb1kutpGHmXxM0ndvDSp+kaT86geGIYoxf1GRux/bUMCnQvw/+DGlATpviv0xgdAFa+RPfw/DK2A13oen+H7iKJ6c9FcGxjDvFIDC/984MkLTSJpx6D9fYcYmwt/e9jGB+NYmaNTGhlRZG19FwaF57g54rT/U1geecRPPanaXpaTfAjO7hC6RP/+gbwMbr3z+s7Cpz4t1ima8ZSy7A/Moj452MqHIEgPvx3o/pc/xzE4DPjJAE1XQ9s4tKTlCZP57Hxiy6ET+pOwuHf6gbevo7/TNZcicz7wmW2sCjuxRgCqxPq3i/chDqX83bcc+0iRO4KN58kyZLKuFaUW2mcBzLG0xg/btF997mVSa3LnBtpeq/qHFmMzXMDT3F9XRxbNtBzko/juPT2ukgA8xY39q7VT8dGZ1Aol5DjvKW8Tnx/bOlxHnasPRKW1roOY4/WqSNQkb01hsyahZgvzTy0CFp38sK5AfTssGBNY30rjL6OF4WVpIdzsPvJIKvX3THZB2tz1fNwONtXV1FEDwbu5y4STgOq+vyw19ZaM+Vn3oblVJyGrKkvS+zZ5fKuvExc1mi5jua9b6EeYF4f53meG4STCEmQsctlnMPXyVR0YO+TunaE2pJuFnhM/fK+17OpZ6G2qqziUFtABn2yu1jhIXfFt3Ofd+k9EzRt233GjcrP/v0g/uzreaysTOMxsuCP/YplIlazge2dAHqfuYLZLw6D2jjgRADdT0wj/8MVLJ7rxrEHjrlixCHeH8Kxh7rx3NdXsJIdxccfuE2C4hgunGZh1SB7vZNF+tts1SSQetaEEfHfDOLY23lM/DhK9xDBu68XUD7Rjcfp2sFjZRRvZEggbWPxRz/lngPFxvYOAr1xXJlLYfg3TaAPdX/lIvIvbdJ1lzHxg03cfiiIPuPFKb1J4uYdkn8v5VWFEvxoVIWXN/PI/IQa+tcnUKD9XUHThec/15skDqlxdzr3nHORnMDf/9NtBB99nEQfpcm/v42N/IyK4/E4uimdrFMTWKT0nT5l4Ta9mz6z1ztXi/DlkwxJREfocCWpKxkSnD5LMdxlm/hcWdVpsHZsbJlVp2KdsaMkorR3J3uLLHkrRDtDsHZyVCHpBixE2bGul0qRQl+ohHyNi56EpfJKEdwQ7OjVTic7SsZCF+X96rRVXQBLbneIX0imN0oI99YTUp1MGiPX7Tpdg3HMnkJFfkj1Wije4u0sVqlYauEtaKrKTx3RVA/XW8NeFlVmm2Ar7xpWnCdd6oSrrt81Lz9XxGevjTHWIgELQVUW6pX3/T8bd7OWXG8rXfcatUHO8/nuU7h72rj7LImJzwzi9g++gOHBQeR2bWRzuPCZCbJWb+PXnxhH5uUk/vDiBQwHNzHzuUEM/jkJFBOzhq3XMPh7FMcssefZy7Q723+dpmsBkT8aAP7FBCrCmP1GAh/+wSWMUSW3F7nnE5j45hpuhz+F8fns/7+98wGNI7vv+LdcIpOQvVzYIcV7cdEGE21TpEuDhhQpbnzbgB2DtHGIdMXZK+2eQyNRWDukutLsucTetiCO6PYoVkIVhSZ75iLBHSvRi03CnoMjkbKiTSR6WRUfKzC3pjBqyu2R1iZH+/u992Z39p/+2N7Vyvp9xKCdtzNv3rx5f76/33uzD/Ht3qj79f/ijvnYkHdrvw3gEM9PelfveQk8csh8qmf29V+QoAth5M9tEpjr+Ol3zBdVlPCLy5V8G/xMFJPmm3aiBEvt0INqZNxGiVJats6583HUp+1QAmuK7HeeI8Lx+fuQIMse1KEn18iyO8pDH5V5MgJ72Ux+mRCm0vGrPQy7wx2m48JDNoSmuDhKLVLNPKuyh8xAHWi4Ww9Hc17wMJDvIA+hcf7AY5zcA+wpDjvG+zK1RZvfEhKYO28hq4wvG5n7uRFhT+lgUeRD1yMlvH3rLRSPUQdUNVbVgFtXMT0RRfzHRXR9uAeffF8X8D8O8r8MKHVf6yVism8WqVG2MfmU8i0ZtppT5FJE+u/msdZFFcAImex/FHH3Y4N4fGUS0ecdxJ6ka95ax7UbRarqPrICYyQwehCrSksRV789gej5LIpdAe7bNe9/VM0PUnH6Qgg/Q+k7chKXhp+AbzOP11/Thz3eo+cRDX7tJJ7w3cXGv2lB5/udfvWTBYEvTqj0FW9eU+GguAZUXCOY6KcM5fTpb6q5cg2r/92Dz53uxp03spg1wcAhPGrxg9CeudCpOE5uJ+RajLLcvEMSDDewPkcNiVWLJu9QmQe/ha1tyjTdr4XwcUt7hm6SKDoerr9uFXp46EBNoL0yjtn1EGKUTwru+OGxYklUBqsm2NpIrTyck4x5GA1DMeroNYnTITNvTaM9Du7QqulIvUM3Bwn2sJy3PfPOmA04Jc/wqqrT5nMTui0fnNs6hmZt/v2Svk2tuUe8sgdHcSYAq+SKOvYEqQ9N2P29Ka+qZ6idJ+zDEeXVCjpYFF3D0loX7GczyH0jhLtVHplaJjBnJhynP3sIa4svYeLGCorU+adz8xh5tNTQaig+P4302iE8yZOJ2XJdSlNMO+TWNBJX1nDX7AY/7MOdzU1Yn71EcaXxzIfzSE/x8FUSqcUCDv3+GNI/m0XEk5aJl43F/N0wDv08g5d+wJ34Kjb9T+KF3BxiUxOYvlFCz5cpfa9cwsnHCpj/23NkhWpKXf2YpPt+4YtBODcoPcajU7oTwDPzOWSeHUTXG/OYTOTMFyVYIxwXiamudcxz+vQ3NWRw9Y1N+P13sfqa20yRUHqT9MXTGRKMXZiceR1OdxSXXtH3cPWbPLm9TXjmnvE4+yy7odWrzSY/z1MHNDWqrXLTUbtzkKzrJryMHrrQXiXvxGgTz4xuqNk75IPxDLHniJtc0wBX4Lis8kRrPb+EJ0pyfAfjtVoeRlN5Q3DHVPumVcGzzzT09D0U6GE0n8qKWq+iFucVD5rm4RxObIJ6mcRTz6Zq5yB65vfxMWfJIGnQiHP5cecA8pCSe3zMclrjKWIvIIlXt/3pgxk+o3aGJ9nr8D7WPVuws3uroua6EWqjD+4br63lt4LB4P+Zzy2B4keh4Bl3fSiJ4fJ8P5ZH2jXRTb/pZF2vn8zMY+rsQr6vCsNeqW8+h5O+HJInKyKslexpOSFLde7YMkalkVE8mGeRwFw2gIV9PvnzQeQFD+sM3w637sWDDqGldZi9SfwCRYeVJ25v+9bu86WSDr23TqXVfUUHe4r2E7MYb5sgajFcQdkr5X8Lr89MtkUQ7Tlk5a1a8Yfg9fhOIolRaeQVPD/tYRdErcD7inuO5+t0Qnni9tFNE21sgN7Ls+3IexMU4ikSOgIpJ52DPIsKkhc7R/JKaAetLmfiKRIEQRAEQSBEFAmCIAiCIBAiigRBEARBEAgRRYIgCIIgCISIIkEQBEEQBEJEkSAIgiAIAiGiSBAEQRAEgRBRJOwz+JeSqxcdvX/4F8LNqvr842zzB2SpBUHYh/AvhDf7odWtvrsfEvP3vkxPq9IktAYRRYLghddKc8LSiAnCnuMxVgShTcgvWgsdwc7LiWdNLfbqnAbyfhs2L7xZyiHF4RfmkD28inxPRIejgIw9iiQd713jTK9JNQvneNwcR0cu8jpGdI15YHSkevHSg4LU2QqSFztnx3ml6qcDp9+GWmN+IwNb1TW9pqNbFxldH/WyGBG18nwJBV5sdY2XTvEeX8C/r1j4vX5zshsnLxQ9ZFay97QD2dNFZBEpx5mbCmP8Csc3jOJ1IGLOKa3odSTZUxRYyyM0ZOvljk38KtxxYPcH8V9OCe/dmC2vO8nty1d6unDId0jtN0qTjh/quli3KB6YtKivhQa0uk6Kp0jY33SHgBkSRbatVpEeNh4eX3+4HJ6ixjLSdEgsjfFwCrkSN5juwo4bcPx9YqEKQovw9VtYpfpm21T3/GE1NJWYjyO0nlJ11p7KkVQpwblJB5OIiPjJ4FHHkxHj18InOh2rHE9i50/HwlTXSTSRkFLig8XPEFS9rmsHuiNqIVd17iKJmrPukHwQkd5VE2eGhFvMDJv5YB8HZlU4pzlivMkUbunjT3wuC6dnwMQTxUCPg6vhT9enqRy/jazlxh9ECLMUJoJorxFRJOxvNrLlRiS5VrEeSiuz5fD0jTxK/oBprHZCGsVN81EQhAdOaWUB7Bviura87tD/BPq6C8iyl4WFw1kguwKEjkWR6A2icN1dMJWPL+lPVK/R33wh5+gxMpjK16Hjx7IouO3ARqaykOvFVRR8FpTTiL1JLF4USaxu+GAd5c8l5Gaq02Ad5pgo/FXP8ZshDLDIOTOA0OZq+dounCYfCTJ3MdhItxu/uXdhzxFRJAiCIHQGRhDNhsfBo2RbcmUcYdvGai8LjM6Ye5Rcc5SQY/HjrNVKIg0PmbmeIt7uZZV9oXWIKBIeSnxlNzbZoKdtYH1ZWXlWOTyBYXf+QR1RBPzmoyAIbYC9MkFEjCBKq/oJ5G+kseGUEOx1JQ8PS1XX2+SIjcyGhUDN22HakzRcFkvR6TCCm0Xt7emuDI+r8A3XqxNEn+t5IoEW7i5gVYkWnxI7mkra6ri4CqdnGMM9jjmvmvRtBz5PmoTOQ0SR8FBS2rQQc13UyOjJj2RZZjdtxFV4H5wV7YbX7nALEQrXrvhuWA1c34IgtApjiPjc+hkBFvX8mvTYrJrDo4ecYlQ3db3liczlYSjoYXQWQtYQhfHcIX6TlOcRmWPiPXmk3KGxDaCvUTgKgPI80XY+hPzUqGkHSnCsmLleJW318BBaENa6Z9jOm6aLo3puk7l2p3i4hAry9pnQETzQcqLeblkovwWyW/Rbafx2iwk4YEidrSB5sXPuJ6/aWud4iO50EeGyEHIxb5+FXSF0L3AcMWBGJky3ilbXSfEUCYIXajBjZDkuyDi/ILSN9Nj+N0K054rfoKu85CHsP8RTJHQEUk46B3kWFSQvdo7kldAOWl3OxFMkCIIgCIJAiCgSBEEQBEEgRBQJgiAIgiAQIooEQRAEQRAIEUWCIAiCIAhEW94+EwRBEARBeBC08u0zeSVf6AiknHQO8iwqSF7sHMkroR20upzJ8JkgCIIgCAIhokgQBEEQBIEQUSQIgiAIgkCIKBIEQRAEQSBEFAmCIAiCIBAiigRBEISHmATmcjnk5hNmXxCasw9F0SBiX49j5IjZPSgcGUH86zG6e0EQBGHHXAjAmbKRcgIkjwRhazpGFEWns8ixmne3Zqr+VASjnx9F5DR9vjCHXPYyovqbnfGpOGZ/pK+Rnd7NmdramLtgdnfNSVyaX9rd+WcuI5ub0xX5tLnvU+qbBtxD/ERivkE+eK/bcRirz90aPP+G9+TC9+Y9h8vQ/dwrxTe3q3LUBE7XPrRkOa/LzyKXxeUzDcLr7iuKy9nmdYnbgu3rZk054GvUPlsFX6uSrpah6kxNehT6XnW4Nx3e9Dcrf3yM/q66fezUurkbap5fK+/pYhHW+RziVhFJ3m9xXYtOz+nnrMrEVvfFZWM39934+MT89uXbLT+76/MOJp3lKSrlkLJt2LyNqOJbz2sTOGkPIvqi2d8tJwbR+8gapr9gIzyWNoHtwILf32U+3wMvRjFon8TEa2a/jvuMfz/hKSeZTRvD3s6VGqI+f8ns1JM4HUJ+Zhzuk0/0BlEqWQhLY3GPlJAjK1zV2UUH9mndZCdHTJidQs4fqRZAF4YRovMak8BwTx6zO6mbGxlzDdq4vbiyjDzFPODtIM4MILSZxfgVs99Kyunhew7rjurCADBj0jhFqTvLoo07twiwqMNTKxYiDTrp6HSYjhlFksp0jPKk3DbaFGaO2Z+wIKrcv9oWgUjLhFESo3yNZn1Kq7gyjnBHPCtdp7j8tLfP25909PDZyW/MIfszY0n8aBbxT1FgQ/UdwMjfV47N/sMIhcVw+UdL+tyfLSEzSZ0eewWGgoCvF2OvsKUaQPSbGSy55/3TBAYRwQtXOY6ddZIxUuDu+UuZSWru4kjTfubvbX3ApyaRyf0Mr/80DtsHBIfo2LoGcBDx6Uo6lv6Z7vWY+crF6xU7NoG08XblfpLBC0+PUyNbE786PoM5updc9geY5/8vxVVU1Pyoe7yaoobJ5Qg11BTnEp3rHaIbpHiW2MJ9OmBCOokoAiSAnJtmlzubsxZWrztmv5YE+uDtIGnfn8PsTB7oGdB5y6FseZG1p/KXNrdDr7LWG1qa3NmZ72mrWGUeq5gsvbltrMNm1+90ooctlJwNs+elgNWL5iPnxXEH2XWzW8uFPuB6RbRq6JyG+V1LGssUb+hYpe5Gj4XgrLW7W+qG5XNQ5HJ2cbxS3q4UoUsmf1/Jk/RYFgU/tUV61xDFgJXHAh9z1AJV7YZ4y6QuJ9qbcLkc7noRvGXTLX9NyivV+ez0ZV1md5Tvu4PFXpAE5Gi5TBAXR5U4DP/wWvU1VVo4XQ3Srzw+l3V49jVcq+oXqMxwe6n6i5rzvHA7Wc4jbz01be2WeeE5nrb6euott7Xp531us4MkBvW53np/7YfV3lLtPf2k2WP0tas9P+YaVenksAiCPhtxN43qnr1pIarystbberDoLFFkHpxbwDaXX8KzyuI8h9fv9uJzT500B9YSw8hnLWz8Y0RZHeG/mKewdVx7Mab2I1cKsP7wJOJU8ezFQtnTMPpWEmOf2MR3/oyu8YUU8kdGMHZex7hT1l9LIfYHfH4ahceexMnzZCW+STLt6AmSaoD9+R4Efv0Gvv9pCifjuMDWUY3FYicnEP19IPs3lP4/mcYvunoRPX8JRlbVYOPS+Qh8y88hQvdw7joJly99DAvhBvH7fHhnPgo7/BQmV4rAR57AGIefehIh/yby1zLqMCb615RXyGH6q0ksmTAcSyB+4nG8tfgcxr9P53cK5XISR2h9ttzpJObjsK5vYZlRh2t5O23eX19Gus7D4INtrWoLdioH67huJNJjYR1GWwbGE+CBrx9aT5ljMnD6SZjTMYn5CKwVEz7jUIdoTmhK4+t3JpTW87rOxr0ennJnFANm3GfCDXQYzsw4GkknJtFreUTuFpwJwOqOqOt6h6XSN7wClyzkfscjyFpMOT3sBakvhywGVHmju3dKQfS5nSiVw6DPIqnkgT1cKGpxSO0We0TjVcNvBHVuMcya8paCc9zt9IN0rgk33rvodMxTNnXampVXxtdPxgWHt8C70k0VoNBAqKZvO/C9U0Khu8/chy4P+RtpSiuXI04nbVMOwm7H3x3S4eFTuLFRnae6brO3xpy3iGqPMJdREugpO0xtCJfNPn3PvF23yODVxzbOCy02yt4urqdDDUSXoT793RhXbXYBGQrTArFS7098LgunXI5JIPeQITH2r2qvXI+mqj0/uv2rTWearpNBwe3zbtI9D0Fdk69T5aUs52WtUXKw6NjhMy4kb39kEH/5rSyWlibxpB/oep9lDqxlDcVNH3q/9AIuf30EPRx0xIeeU5PI/mQJ82d60PVIV521Fe3vRtf7e/DMt5awlB7DE4/che9IF86dZGG1k2IRgO/jJzD5Izr/5Sh63k9ppIukVshcpYodOxLAiaMBlN7IUhPVnBM9JJ9u5fDcNRIev5zFd1nABIIYMN9XcwI9lEbr+HOYp3ubPG7hLuUL2df1lPLIfkeb5LnFVRTf341eavTsY0H46XovmaG4Q0djGOtzkCGrNn1Lh/FwXPgCdear0zh3sSyTOgNPOZmlboGtJbakwk6q2vpsgHPb04iYBpcbjmoPQwm5V03DwoJpU3+kM8qWYaTbB+uoCVYk0NddoIbLjT+JhRXKxaM14Rxf89E9Q7PrdyKe4bMZMk9cK7PcGVHJP+tawtxocwekTmyC8bAwZYuWLF1XcNTFTxsPS503HRLnlytwWWxsrDYXyQ8az3Deam+154DLZ9yiMqrKAXVUM9yJ6rKU6yVjpuTUCUXHI+D1cGRWzY1xPQE89Ovrj5s8Yq+DhYASNZ7ydnGV9oxYpGMraWpWXvVeaWWhfflWxc8pHdSeqXSyJzeP5Suc1or4zp234XM9axsVz2/yVcrTXjdv3LrN5c6cN0T5ZRnp6Q8je95C1hUALEKN16b22IZ5oURrTnvyGCqP2Q03/2vZIv1VeOo9XXF105RjNQTslmNql7P19ShEdWwn7R97TuG5nyovpScvDzIdPHwWx3NfHsTdHz+LkcFBZMqddSMyOPfl5zC7chcfPTWB2Zfi+OPz5zASWEfqK4MYfDHXdAYDNn6Iwc/QMWaLfJW9TDuErnXui49j/cUYBge1p0ZBVsP6u2StPRWjylAqV86d8tZd86EpJfziciXNg5+JYtJ805R/mUZuw4eP9kcx8vEAim8sUJXW3CmVcKeLKnS3d4jsLigYh6hhCJqQTkR7Bs7g6X5fpYPgBo0+V7uWayArMexpqOJ8vmcIrZ6KdcadXmplW2Vz8PAKkjIsOEuwPvEK5bcZ3jX5zZ+9wqEO9uwqkUGWris4GlmxVUKzInBZNDTySLSD5FoBQbeDpk5ZeXS8FrxX1L3qwNo0XqEt0XNjMqjM0VKeYTce5fHQ4XWY67FYaziM1EY2HCoPh+trmjv8ynVaiRsStZWhVO1RKd9rs3LgZy8TiRAzTO4aS+ocapera22NiPEYW2p7oF6yHaS/huSao8pxoyHg6vxjc79UEXzCfdHBosiHrkdKePvWWygeo0K+3ZSWW1cxPRFF/MdFdH24B598XxfwPw7yvyQVTIWq0YhF9s0i0G1j8inlWzLsYk7RY13oevcOnJvrCDzNloYJRwpLb9xF8FQYQVL41zwN1aMfqH+pfu3WJnDExqUTdJO/G0NiIIC7b+bQWJ5pr1joVBwnG/wsQaP4NUXM/ss6/B+Pou+3C8h925VExH/Ok6AE7K+8gER5LtPbyE1l8FYggkskLrbL/r1CWT7rV3DC2+AsFsi6SzWcVOg2JtpicocO9FY3absKzzwREkgDPbUliiy7jaDHPc9DN2Tt36wZKlEWqfn8sKGsZ7bszb5C55Xz8y9URABtLCq5Q6+3bJtZ21twYRg2Kp4WLZRjJMK8c5naiyvIuFPuW9tqgiuJ7bOU+gbizdqmk2NxEdzl0Cp7nDLKo9GsvJrdFsLeCafKa0VcmCOhzENElE9G3Mz1wjw/XYe2fxmCBbGFvnkSUyY/eajO9Q5X9QObJJaqPIxFOL6t6n8NygDwHK+MLI+Xs4qdpr+Gi6tweoYx3OMdAqY8CqeQ7/HmHxneM2Ellrc0BAntMRzW90yo+V07EuQHhw4WRdewtNYF+9kMct8I4e5/m+CGTGDOTFJOf/YQ1hZfwsSNFRSPjCCdm8fIo6WGnqLi89NIrx3Ck19Law/DUppi2hrX0uVt7ugyVv7zcYx8jwTMFx9VnhWXaRIgPKdnc/11KqwMVdi1TfiffAG5l6vttMxXL2F+3YeTSbrX743hiV8vYfqvUiRjangXuEOxTc68Dqc7ikuv6HRc/SZPLG8ev0vx+RzWH/PD/+YKZms8b+mx55ApPo7IBWpkHzOBN5I49y0ST/1jeOFCB/1CkmfuWdU8lu3gRkZ1NNxRo86D57Xu6+HhBcu412Nk2deXqOQIz8twhzN4vgFb7jVDJWctaiDNCQ8F3mEB980+7wRUPW9lO7e+C1vH1cOSTBKjtVa7d7Ioz5HwWt6qw/LB186hM6Y8pyhH3ZOeSMydsrfNcOc/sVjS+03yR92DGdaomhhbiZvnuOm5Rua7LSbIVq7H52svSuPyak5oKezxolbRmy9qbs+oeV5a3AThPj89L6aS1toJxhWUl4mquCsi1JCauU7Mcqr7Afae8fwe+m7uAqVJzQuqpGlLLyanyVuvuexPuemvpVn69X26E63r4SG0IKz12uE7jo/nkFFcnknVLHizFl1jq4nSdM+z5XZMt5+pB+oR2//8VjAY/D/zuSVQ/CgUeFRbuHd6MPFyGiPvpmF/KWXCdk/PM5cx/RUbxR9EEH2+gyZOE+0qJ4n5OWCkWePVBnhy51lgdgfu871ib+ssv7GDehG0R+xlXvDv3QzcGG2TULl/pK2vgcRs9vDCfbwGz0P2PEG7XWJ1f9DqctbBniJB8RS/xUOC6HABmW/duyDieQ3pLz+Buz9PY7rDBFE7Sb5KlmGbXzmt+iFD7+ROoQFJLDjhbYcBDgLpsVVY7vCOsI8wntIheCay7w7t2at+u1ZoD+IpEjoCKSedgzyLCpIXO0fySmgHrS5n4ikSBEEQBEEgRBQJgiAIgiAQIooEQRAEQRAIEUWCIAiCIAiEiCJBEARBEARCRJEgCIIgCAIhokgQBEEQBIEQUSTsS/jXfvVyCfq/wrscgruS+LxeVkHYb/AvWzf52UL+VfBm3+0xVT/USVv7foSSf/2Yf+jR/f+w0Or7qY6fn1+zZ/ZA2xL+tesdlQ13yRz32fJnadNaiYgiYR+i1y7jxRe7Lf1fNW6HVyuLu0KvJJ4cycI6295fsBZaDK/f5IS3WZuq3egOq7wiu9nufYmHe4XX5HIQ7lDR2Onw+mHtf2bN4QVbschlaRTJC8NqnTzblmU/Won8orXQEey4nLA3aChodlxKyE1VNxT8M/nDt8Nq4cz9tobUXrObOsv5HO/Xa4+rVe8xR3+j5QVO2boOvBpG8TT9X8sjNGTrlco3MrB5fTO1PtQq8j0R2OqLAjJqYVCzBtpaH3K9JHbdtdD4+at9tGWNtF2VS286vbBn6zSQ91PnhhxS4WUMZOPmfqn0rqR0R0xxNMq78aOcRw6cfhuq5Lt5p7wIER1WKlDOAathva7fXqzxt+O84vw4b8qB+7wpbO7YMkaNINH1dxbO8Uo+qfJ1kcVnfd6pvHIc2P2UGyXO4yKGTd7o8+hD3XUXEPDExcctHHbbCu91dBrhPg/3u033OVTw1gdOW9Ya9jwHel7ZABauW4i7bZhK6zjSVe2ayRNv2J23cefQozikdtw6cjBptaYQT5Gwv7g4CnsqhwI1OOX/dZZTAsP9Tnml7PRtIHRMfEUPHOpkYrzKtvGKuJ15Y3ywjwOz6tgUcn7tyVPf9JM1PKPjSPEK3l4vx8UFOraPnqgm0Wsh9yp3BxtwPOF7TaKXGuq1Lbqp7pC+R+oAu+f1yvjam8Srp8e2HQ7x9VtYLeddWB2fmI/AUuWfwmccWKZzZzYcC30d5UnzwKvTq3uhbREINx1G0qvB50jwZehYLl+JpnlH5cvSnuLUegjxXJ/OL175/rjxFNddF3Xxu0SnY57rVAsQToN1ncJrBTCJGLXqvLlGU48Tt2GLBSWauDykWawNQaVBpd+tA3RcaqWkxJr96T/Cp91zDrAgagciioR9hB6iyJG1F+yPV/5XLfDK1nMYzpSn4bhJVrb5KDxAriwjDxvxHQ3VlJCbcRfCTWN5vQTrsH5qpZXKopfpG3mU/AHP8+Rj3Q4+gT5/Hsvq2DSKm/y/E3HngdDm5s1G1twj3UN3wbNQaBILK4B11Ow2obSyYMoz5weX5pp4+FmU9EcmfbuzS3x57tVQED6r24Rux1Z5R+VLiWV97+X84nzxlJOdXpfLIahtqR2iDZ3VQ6SNDAAljK/vfrHn6DESzOXnS9cey6JQVQeEdiKiSNhHsOXIllQBuanKf2Vt8ddscSkLUcbc24N+HjYPcVFH06o5PtxBWb0kLi70wVpf3nWn0w42nIrI4856lK1+suyFeniIqTz3aipHcqY97Oq6xqu02ssiyp2Iza640i5EnLAfEVEk7DOiGLAcLF9x/5tgts7P8vBMA9fyUQuW+Si0ADMc4IqCIAsYhkRquNx/+DxDmDy8CeRvaHnj6xkoW8WJ0zZQK3zY2vf3Ya7XKp/D5SDgNx87ALbunQaehXqSWN0IeoaMdF44N/Ve47xrxAacUrAyRHZmACHP8Fn0cOeW+G7LB+e2fo7sJXGTbZXLAeeJ52bKbJ1329HsulvBE68zGxYCaoiuhPxMWL3E0ejNseRaAUF3qK5M5RnxpGl31pAX7ZUaprvRqOM2ix0p/g8CIoqEfUYa4yPsGXL/G84EYPlsxN1hC97M0EX0cKUDFh4gyjNn8noIelhDzQGK6DASqfkNcyx1KI4VM88mAixWvHmlTQsxE0+Eupz6uRh6CC0IdwiK6Ya1uVovgPcM9g5lgCGTH7zxPJEGE6+TIzwXJl6fF03zrhFU/mdysNzrnbVIJJmviG4yGNw5dZ1G8tVKumOUTpXsK+PIbrr1tw/Oinsz+tlHKJwFZ9O82wENr1sTvwt7lfQ1uEx6yx2nwUbWqh22J8g4yJTvQb/aX3VN5FH2HV5c1ffBcfDblDyPyJyn5iU1mrAvtAV5+0zoCFpXTswbH+4Qm7AtrXgW5TepajuwC/xm1cK2r0HzXJC+tcpkWP12kn67sJXsy/aLxerpIsJt7lilrRfaQavLmXiKhIcafkMH9zD5UegQ+LVksp7Zg1QWQNTp81tvCx3qCdlborh8NoS8mXQsCMLuEE+R0BFIOekc5FlUkLzYOZJXQjtodTkTT5EgCIIgCAIhokgQBEEQBIFouSj6zW9+g/e+971mTxAEQRAEYfewlmBN0UpaLoreeecdfPCDHzR7giAIgiAIu4e1BGuKVtJyUfSrX/1KqTvLssRjJAiCIAjCrvBqCNYUraTlb5+5fOhDH8IHPvABvOc97zEhgiAIgiAIW8NDZuwharUgYtomigRBEARBEDoZeftMEARBEASBEFEkCIIgCIJAiCgSBEEQBEEgRBQJgiAIgiAQIooEQRAEQRAIEUWCIAiCIAiEiCJBEARBEARCRJEgCIIgCAIhokgQBEEQBIEQUSQIgiAIgkCIKBIEQRAEQQDw/xFdAhkqid1TAAAAAElFTkSuQmCC;" parent="1" vertex="1">
          <mxGeometry x="-570" y="-35" width="483.15" height="790" as="geometry" />
        </mxCell>
        <mxCell id="hA0B3OljWH3qkmqwlUpI-189" value="Alle power ground i samme punkt på motoren" style="text;html=1;align=center;verticalAlign=middle;whiteSpace=wrap;rounded=0;" parent="1" vertex="1">
          <mxGeometry x="623" y="1030" width="90" height="70" as="geometry" />
        </mxCell>
        <mxCell id="jnp6Ri8hMt9BKPlArO9U-2" value="" style="endArrow=none;html=1;rounded=0;fillColor=#f5f5f5;strokeColor=#666666;" edge="1" parent="1">
          <mxGeometry width="50" height="50" relative="1" as="geometry">
            <mxPoint x="680" y="230" as="sourcePoint" />
            <mxPoint x="679" y="55" as="targetPoint" />
          </mxGeometry>
        </mxCell>
        <mxCell id="jnp6Ri8hMt9BKPlArO9U-3" value="Power Ground&lt;div&gt;B27, G17, G24&lt;/div&gt;" style="text;html=1;align=center;verticalAlign=middle;whiteSpace=wrap;rounded=0;" vertex="1" parent="1">
          <mxGeometry x="623" y="200" width="60" height="50" as="geometry" />
        </mxCell>
        <mxCell id="jnp6Ri8hMt9BKPlArO9U-4" value="" style="endArrow=none;html=1;rounded=0;fillColor=#f5f5f5;strokeColor=#666666;" edge="1" parent="1">
          <mxGeometry width="50" height="50" relative="1" as="geometry">
            <mxPoint x="886" y="480" as="sourcePoint" />
            <mxPoint x="886" y="250" as="targetPoint" />
          </mxGeometry>
        </mxCell>
        <mxCell id="jnp6Ri8hMt9BKPlArO9U-5" value="Power Ground&lt;div&gt;B27, G17, G24&lt;/div&gt;" style="text;html=1;align=center;verticalAlign=middle;whiteSpace=wrap;rounded=0;" vertex="1" parent="1">
          <mxGeometry x="890" y="440" width="100" height="50" as="geometry" />
        </mxCell>
      </root>
    </mxGraphModel>
  </diagram>
</mxfile>
